<svg width="40" height="40" viewBox="0 0 40 40" fill="none" xmlns="http://www.w3.org/2000/svg">
<path d="M10.9319 33.7689H29.0675C29.2473 33.7689 29.4197 33.6841 29.5469 33.5334C29.674 33.3826 29.7454 33.1781 29.7454 32.9648V29.4472C29.7454 29.234 29.674 29.0295 29.5469 28.8787C29.4197 28.7279 29.2473 28.6432 29.0675 28.6432H29.0456C28.9025 26.5 28.2216 24.4567 27.0906 22.7765C25.9597 21.0962 24.4305 19.856 22.6999 19.2155L22.6673 18.9314C22.5893 18.253 22.3067 17.6311 21.8718 17.1808C21.4369 16.7305 20.8791 16.4824 20.3018 16.4824H19.7828C19.2055 16.4825 18.6478 16.7306 18.2129 17.1808C17.778 17.6311 17.4954 18.253 17.4174 18.9314L17.3848 19.2198C15.6551 19.8607 14.1267 21.1005 12.996 22.7798C11.8653 24.4591 11.1839 26.5011 11.0396 28.6432H10.9319C10.7521 28.6432 10.5796 28.7279 10.4525 28.8787C10.3253 29.0295 10.2539 29.234 10.2539 29.4472V32.9648C10.2539 33.1781 10.3253 33.3826 10.4525 33.5334C10.5796 33.6841 10.7521 33.7689 10.9319 33.7689ZM28.3895 32.1608H11.6098V30.2513H28.3895V32.1608ZM18.8222 25.9955C18.8222 25.7093 18.8938 25.4294 19.0279 25.1914C19.162 24.9534 19.3526 24.768 19.5755 24.6584C19.7985 24.5489 20.0439 24.5202 20.2806 24.5761C20.5174 24.6319 20.7348 24.7697 20.9055 24.9721C21.0761 25.1745 21.1924 25.4324 21.2394 25.7131C21.2865 25.9939 21.2624 26.2849 21.17 26.5493C21.0776 26.8138 20.9212 27.0398 20.7205 27.1988C20.5199 27.3578 20.2839 27.4427 20.0426 27.4427C19.719 27.4424 19.4088 27.2898 19.18 27.0184C18.9512 26.7471 18.8225 26.3792 18.8222 25.9955V25.9955ZM26.068 23.8356C26.9893 25.2179 27.5514 26.8884 27.6855 28.6432H21.3248C21.6622 28.4131 21.9512 28.0955 22.1705 27.7141C22.3897 27.3328 22.5333 26.8976 22.5907 26.4411C22.9767 26.2126 23.305 25.8671 23.5422 25.4397C23.7794 25.0123 23.9172 24.5181 23.9415 24.0072L24.0498 21.699C24.8231 22.2652 25.5064 22.9885 26.0682 23.8356H26.068ZM18.1628 20.6264C18.2945 20.5872 18.4133 20.502 18.5037 20.3819C18.5941 20.2617 18.652 20.1121 18.6698 19.9525L18.7614 19.1431C18.7952 18.8507 18.9174 18.5827 19.1052 18.3891C19.2931 18.1955 19.5339 18.0894 19.7828 18.0905H20.3018C20.5507 18.0894 20.7914 18.1955 20.9792 18.3891C21.1671 18.5827 21.2892 18.8506 21.3231 19.143L21.4146 19.9571C21.4325 20.1165 21.4905 20.2658 21.5809 20.3856C21.6713 20.5054 21.79 20.5902 21.9216 20.629C22.195 20.7106 22.4643 20.8108 22.7281 20.9289L22.5878 23.9166C22.5749 24.1832 22.4931 24.4386 22.3535 24.6481C22.1443 24.1429 21.8214 23.7161 21.4206 23.4149C21.0197 23.1136 20.5564 22.9496 20.0819 22.9409C19.6074 22.9323 19.14 23.0794 18.7316 23.366C18.3231 23.6525 17.9894 24.0674 17.7672 24.5647C17.6578 24.372 17.5939 24.1479 17.5823 23.916L17.4342 20.8938C17.6731 20.7899 17.9164 20.7006 18.1631 20.6264H18.1628ZM14.0166 23.8392C14.5971 22.9623 15.3073 22.2179 16.1126 21.6424L16.2286 24.0092C16.2542 24.4981 16.3829 24.9715 16.6029 25.3862C16.8229 25.8008 17.127 26.1433 17.4876 26.3824C17.5384 26.85 17.6797 27.2974 17.9005 27.6896C18.1212 28.0817 18.4153 28.4081 18.7599 28.6432H12.3998C12.5352 26.89 13.0968 25.2211 14.0166 23.8392V23.8392Z" fill="#4AC328"/>
<path d="M40 10.9749V4.07457C40 1.80291 38.5 0 36.6566 0H3.34305C1.5 0 0 1.80291 0 4.07457V35.9254C0 38.1971 1.5 40 3.34305 40H36.6566C38.5 40 40 38.1971 40 35.9254V10.9901C40 10.9874 40 10.9849 40 10.9822C40 10.9795 40 10.9771 40 10.9749ZM3.34305 1.60804H36.6566C37.7524 1.60804 38.6441 2.68975 38.6441 4.07457V10.1508H1.35593V4.07457C1.35593 2.68975 2.24737 1.60804 3.34305 1.60804ZM36.6566 38.392H3.34305C2.24737 38.392 1.35593 37.3103 1.35593 35.9254V11.7588H38.6441V35.9254C38.6441 37.3103 37.7524 38.392 36.6566 38.392Z" fill="#4AC328"/>
<path d="M10.4499 8.74769C11.8034 8.74769 12.9046 7.39543 12.9046 5.73322C12.9046 4.07101 11.8034 2.71875 10.4499 2.71875C9.0963 2.71875 7.99511 4.07111 7.99511 5.73322C7.99511 7.39533 9.0963 8.74769 10.4499 8.74769ZM10.4499 4.32679C11.0558 4.32679 11.5487 4.95764 11.5487 5.73322C11.5487 6.5088 11.0558 7.13965 10.4499 7.13965C9.84392 7.13965 9.35104 6.5088 9.35104 5.73322C9.35104 4.95764 9.84392 4.32679 10.4499 4.32679V4.32679ZM16.2243 8.74769C17.5778 8.74769 18.679 7.39543 18.679 5.73322C18.679 4.07101 17.5778 2.71875 16.2243 2.71875C14.8707 2.71875 13.7695 4.07111 13.7695 5.73322C13.7695 7.39533 14.8708 8.74769 16.2243 8.74769ZM16.2243 4.32679C16.8302 4.32679 17.3231 4.95764 17.3231 5.73322C17.3231 6.5088 16.8302 7.13965 16.2243 7.13965C15.6183 7.13965 15.1254 6.5088 15.1254 5.73322C15.1254 4.95764 15.6185 4.32679 16.2243 4.32679V4.32679ZM4.67545 8.74769C6.02901 8.74769 7.13019 7.39543 7.13019 5.73322C7.13019 4.07101 6.02901 2.71875 4.67545 2.71875C3.32189 2.71875 2.2207 4.07111 2.2207 5.73322C2.2207 7.39533 3.32189 8.74769 4.67545 8.74769ZM4.67545 4.32679C5.2813 4.32679 5.77426 4.95764 5.77426 5.73322C5.77426 6.5088 5.2813 7.13965 4.67545 7.13965C4.0696 7.13965 3.57664 6.5088 3.57664 5.73322C3.57664 4.95764 4.06952 4.32679 4.67545 4.32679V4.32679Z" fill="#4AC328"/>
</svg>
