<svg width="40" height="40" viewBox="0 0 40 40" fill="none" xmlns="http://www.w3.org/2000/svg">
<path d="M14.9883 10.625H4.98828C4.6431 10.625 4.36328 10.9048 4.36328 11.25V18.75C4.36328 19.0952 4.6431 19.375 4.98828 19.375H14.9883C15.3335 19.375 15.6133 19.0952 15.6133 18.75V11.25C15.6133 10.9048 15.3335 10.625 14.9883 10.625Z" fill="#C2E4F8"/>
<path d="M11.2363 21.8809V32.3883C11.2363 33.1433 10.6801 33.7508 9.98633 33.7508C9.29508 33.7508 8.73633 33.1433 8.73633 32.3883V21.8809H11.2363ZM29.3651 11.9396C29.9697 11.8167 30.5972 11.8755 31.1684 12.1086C31.7396 12.3417 32.2291 12.7387 32.5751 13.2496C32.9211 13.7605 33.1082 14.3625 33.1126 14.9795C33.1171 15.5966 32.9387 16.2012 32.6001 16.7171C32.2612 17.2329 31.7772 17.6369 31.209 17.8781C30.6409 18.1192 30.014 18.1867 29.4076 18.072" fill="#C2E4F8"/>
<path d="M29.3633 6.96373C29.3633 6.22436 28.8036 5.625 28.1133 5.625C27.4229 5.625 26.8633 6.22436 26.8633 6.96373V23.0363C26.8633 23.7756 27.4229 24.375 28.1133 24.375C28.8036 24.375 29.3633 23.7756 29.3633 23.0363V6.96373Z" fill="#C2E4F8"/>
<path d="M14.9883 10.625H4.98828C4.6431 10.625 4.36328 10.9048 4.36328 11.25V18.75C4.36328 19.0952 4.6431 19.375 4.98828 19.375H14.9883C15.3335 19.375 15.6133 19.0952 15.6133 18.75V11.25C15.6133 10.9048 15.3335 10.625 14.9883 10.625Z" stroke="#4AC328"/>
<path d="M4.37305 13.125H1.87305V16.875H4.37305V13.125Z" fill="white" stroke="#4AC328" stroke-linecap="round" stroke-linejoin="round"/>
<path d="M13.1133 19.375H6.86328V21.875H13.1133V19.375Z" fill="white" stroke="#4AC328"/>
<path d="M14.9863 13.125H8.73633M14.9863 16.875H8.73633M11.2363 21.88V32.3875C11.2363 33.1425 10.6801 33.75 9.98633 33.75C9.29508 33.75 8.73633 33.1425 8.73633 32.3875V21.88H11.2363Z" stroke="#4AC328"/>
<path d="M15.6113 11.25L26.8613 6.25V23.75L15.6113 18.75V11.25Z" fill="white" stroke="#4AC328" stroke-linecap="round" stroke-linejoin="round"/>
<path d="M29.3652 11.9396C29.9698 11.8167 30.5973 11.8755 31.1686 12.1086C31.7398 12.3417 32.2293 12.7387 32.5752 13.2496C32.9213 13.7605 33.1083 14.3625 33.1128 14.9795C33.1172 15.5966 32.9389 16.2012 32.6002 16.7171C32.2614 17.2329 31.7774 17.6369 31.2092 17.8781C30.641 18.1192 30.0142 18.1867 29.4077 18.072" stroke="#4AC328" stroke-linecap="round" stroke-linejoin="round"/>
<path d="M29.3633 6.96373C29.3633 6.22436 28.8036 5.625 28.1133 5.625C27.4229 5.625 26.8633 6.22436 26.8633 6.96373V23.0363C26.8633 23.7756 27.4229 24.375 28.1133 24.375C28.8036 24.375 29.3633 23.7756 29.3633 23.0363V6.96373Z" stroke="#4AC328" stroke-linecap="round" stroke-linejoin="round"/>
<path d="M34.9862 15.0007H37.4862M33.8887 12.3495L35.6562 10.582M33.8887 17.6533L35.6562 19.4208" stroke="#4AC328"/>
<path d="M11.2363 24.375H13.7363V28.125H11.2363V24.375Z" fill="white" stroke="#4AC328"/>
</svg>
