<svg width="40" height="40" viewBox="0 0 40 40" fill="none" xmlns="http://www.w3.org/2000/svg">
<path d="M36 22H31.5V11C31.5 10.9342 31.487 10.8691 31.4618 10.8084C31.4365 10.7476 31.3996 10.6924 31.353 10.646L25.354 4.647C25.3076 4.60042 25.2524 4.56346 25.1916 4.53823C25.1309 4.51301 25.0658 4.50001 25 4.5H23.5V3C23.5 2.86739 23.4473 2.74021 23.3536 2.64645C23.2598 2.55268 23.1326 2.5 23 2.5H6.5C6.36739 2.5 6.24021 2.55268 6.14645 2.64645C6.05268 2.74021 6 2.86739 6 3V22H4C3.173 22 2.5 22.673 2.5 23.5V35C2.5 36.3785 3.6215 37.5 5 37.5H35C36.3785 37.5 37.5 36.3785 37.5 35V23.5C37.5 22.673 36.827 22 36 22ZM26.5 22C26.473 22 26.45 22.011 26.4235 22.015C26.39 22.0205 26.357 22.0235 26.3255 22.035C26.294 22.047 26.2675 22.066 26.2395 22.0835C26.213 22.1 26.186 22.1135 26.163 22.135C26.1365 22.16 26.118 22.19 26.097 22.22C26.083 22.24 26.064 22.254 26.0525 22.2765L24.691 25H15.309L13.9475 22.2765C13.936 22.254 13.917 22.2395 13.9025 22.2195C13.8825 22.1895 13.8635 22.1595 13.8375 22.1355C13.814 22.114 13.7865 22.1 13.76 22.0835C13.732 22.066 13.706 22.047 13.675 22.0355C13.643 22.0235 13.61 22.0205 13.576 22.0155C13.55 22.011 13.527 22 13.5 22H9.5V5.5H24.5V10C24.5 10.827 25.173 11.5 26 11.5H30.5V22H26.5ZM25.5 6.207L29.793 10.5H26C25.7245 10.5 25.5 10.276 25.5 10V6.207V6.207ZM7 3.5H22.5V4.5H9C8.86739 4.5 8.74021 4.55268 8.64645 4.64645C8.55268 4.74021 8.5 4.86739 8.5 5V22H7V3.5ZM36.5 35C36.5 35.827 35.827 36.5 35 36.5H5C4.173 36.5 3.5 35.827 3.5 35V23.5C3.5 23.224 3.7245 23 4 23H13.191L14.4145 25.4475C14.4972 25.6141 14.625 25.7542 14.7832 25.8518C14.9415 25.9495 15.124 26.0008 15.31 26H24.6915C24.8773 26.0006 25.0596 25.9492 25.2177 25.8515C25.3758 25.7539 25.5034 25.6139 25.586 25.4475L26.809 23H36C36.2755 23 36.5 23.224 36.5 23.5V35Z" fill="#4AC328"/>
<path d="M24.5 29.5C24.3674 29.5 24.2402 29.5527 24.1464 29.6464C24.0527 29.7402 24 29.8674 24 30V31H16V30C16 29.8674 15.9473 29.7402 15.8536 29.6464C15.7598 29.5527 15.6326 29.5 15.5 29.5C15.3674 29.5 15.2402 29.5527 15.1464 29.6464C15.0527 29.7402 15 29.8674 15 30V31.5C15 31.6326 15.0527 31.7598 15.1464 31.8536C15.2402 31.9473 15.3674 32 15.5 32H24.5C24.6326 32 24.7598 31.9473 24.8536 31.8536C24.9473 31.7598 25 31.6326 25 31.5V30C25 29.8674 24.9473 29.7402 24.8536 29.6464C24.7598 29.5527 24.6326 29.5 24.5 29.5ZM11.5 9H21.5C21.6326 9 21.7598 8.94732 21.8536 8.85355C21.9473 8.75979 22 8.63261 22 8.5C22 8.36739 21.9473 8.24021 21.8536 8.14645C21.7598 8.05268 21.6326 8 21.5 8H11.5C11.3674 8 11.2402 8.05268 11.1464 8.14645C11.0527 8.24021 11 8.36739 11 8.5C11 8.63261 11.0527 8.75979 11.1464 8.85355C11.2402 8.94732 11.3674 9 11.5 9ZM11.5 12.5H23C23.1326 12.5 23.2598 12.4473 23.3536 12.3536C23.4473 12.2598 23.5 12.1326 23.5 12C23.5 11.8674 23.4473 11.7402 23.3536 11.6464C23.2598 11.5527 23.1326 11.5 23 11.5H11.5C11.3674 11.5 11.2402 11.5527 11.1464 11.6464C11.0527 11.7402 11 11.8674 11 12C11 12.1326 11.0527 12.2598 11.1464 12.3536C11.2402 12.4473 11.3674 12.5 11.5 12.5ZM11.5 16H28.5C28.6326 16 28.7598 15.9473 28.8536 15.8536C28.9473 15.7598 29 15.6326 29 15.5C29 15.3674 28.9473 15.2402 28.8536 15.1464C28.7598 15.0527 28.6326 15 28.5 15H11.5C11.3674 15 11.2402 15.0527 11.1464 15.1464C11.0527 15.2402 11 15.3674 11 15.5C11 15.6326 11.0527 15.7598 11.1464 15.8536C11.2402 15.9473 11.3674 16 11.5 16ZM28.5 18.5H11.5C11.3674 18.5 11.2402 18.5527 11.1464 18.6464C11.0527 18.7402 11 18.8674 11 19C11 19.1326 11.0527 19.2598 11.1464 19.3536C11.2402 19.4473 11.3674 19.5 11.5 19.5H28.5C28.6326 19.5 28.7598 19.4473 28.8536 19.3536C28.9473 19.2598 29 19.1326 29 19C29 18.8674 28.9473 18.7402 28.8536 18.6464C28.7598 18.5527 28.6326 18.5 28.5 18.5Z" fill="#4AC328"/>
</svg>
