<svg width="40" height="40" viewBox="0 0 40 40" fill="none" xmlns="http://www.w3.org/2000/svg">
<path d="M33.8579 35.816L17.7271 35.8218C16.5235 35.8218 15.5388 34.8371 15.5388 33.6335L15.5371 33.0568M15.5385 21.8157V5.34263C15.5385 4.13902 16.5232 3.1543 17.7268 3.1543H36.8966C38.1002 3.1543 39.0849 4.13902 39.0849 5.34263V33.6335C39.0849 34.8371 38.1002 35.8218 36.8966 35.8218H35.9654" stroke="#4AC328" stroke-miterlimit="10" stroke-linecap="round" stroke-linejoin="round"/>
<path opacity="0.3" d="M15.5371 6.86763V5.34263C15.5371 4.13902 16.5218 3.1543 17.7254 3.1543H36.8952C38.0988 3.1543 39.0835 4.13902 39.0835 5.34263V6.86763H15.5371Z" fill="#528AC8"/>
<path d="M18.1549 10.9876H35.3771M18.1549 18.2099H30.0993M18.1549 14.8765H31.766M33.8568 20.6526H35.9649M33.8568 34.7873H35.9649M33.8568 33.2996H35.9649M15.5371 6.86763V5.34263C15.5371 4.13902 16.5218 3.1543 17.7254 3.1543H36.8952C38.0988 3.1543 39.0835 4.13902 39.0835 5.34263V6.86763H15.5371ZM35.9649 37.1432H33.8568V20.2807L34.911 18.2193L35.9649 20.2807V37.1432Z" stroke="#4AC328" stroke-miterlimit="10" stroke-linecap="round" stroke-linejoin="round"/>
<path opacity="0.3" d="M33.8574 33.2988H35.9652V34.7866H33.8574V33.2988Z" fill="#528AC8"/>
<path d="M33.8574 20.6521H35.9655M33.8574 34.7868H35.9655M33.8574 33.299H35.9655M35.9655 37.1426H33.8574V20.2801L34.9116 18.2188L35.9655 20.2801V37.1426Z" stroke="#4AC328" stroke-miterlimit="10" stroke-linecap="round" stroke-linejoin="round"/>
<path opacity="0.3" d="M35.9655 20.6521H33.8574V20.2801L34.9116 18.2188L35.9655 20.2801V20.6521Z" fill="#528AC8"/>
<path d="M33.8584 20.653H35.9665M33.8584 34.7877H35.9665M33.8584 33.2999H35.9665M10.9614 15.0383V17.1008M11.9926 16.0696H9.93034M7.69784 6.60742V10.0524M9.42034 8.32992H5.97534M1.26367 21.8174H21.7206V33.0569H1.26367V21.8174Z" stroke="#4AC328" stroke-miterlimit="10" stroke-linecap="round" stroke-linejoin="round"/>
<path opacity="0.3" d="M3.4043 24.2578H8.6968V30.5911H3.4043V24.2578Z" fill="#528AC8"/>
<path d="M3.4043 24.2578H8.6968V30.5911H3.4043V24.2578Z" stroke="#4AC328" stroke-miterlimit="10" stroke-linecap="round" stroke-linejoin="round"/>
<path d="M11.2109 24.5977H19.822M11.2109 26.8199H17.0443" stroke="#4AC328" stroke-miterlimit="10" stroke-linecap="round" stroke-linejoin="round"/>
<path d="M11.8809 30.2851C12.2271 30.2851 12.5078 30.0044 12.5078 29.6582C12.5078 29.3119 12.2271 29.0312 11.8809 29.0312C11.5346 29.0312 11.2539 29.3119 11.2539 29.6582C11.2539 30.0044 11.5346 30.2851 11.8809 30.2851Z" stroke="#4AC328" stroke-miterlimit="10" stroke-linecap="round" stroke-linejoin="round"/>
<path d="M14.7344 30.2851C15.0806 30.2851 15.3613 30.0044 15.3613 29.6582C15.3613 29.3119 15.0806 29.0312 14.7344 29.0312C14.3881 29.0312 14.1074 29.3119 14.1074 29.6582C14.1074 30.0044 14.3881 30.2851 14.7344 30.2851Z" stroke="#4AC328" stroke-miterlimit="10" stroke-linecap="round" stroke-linejoin="round"/>
<path d="M17.5898 30.2851C17.9361 30.2851 18.2168 30.0044 18.2168 29.6582C18.2168 29.3119 17.9361 29.0312 17.5898 29.0312C17.2436 29.0312 16.9629 29.3119 16.9629 29.6582C16.9629 30.0044 17.2436 30.2851 17.5898 30.2851Z" stroke="#4AC328" stroke-miterlimit="10" stroke-linecap="round" stroke-linejoin="round"/>
</svg>
