<svg width="40" height="40" viewBox="0 0 40 40" fill="none" xmlns="http://www.w3.org/2000/svg">
<path d="M29.3636 29.186C28.0454 29.1862 26.3764 28.6908 24.4458 27.7076C24.2594 27.6128 24.185 27.3846 24.28 27.1984C24.3747 27.012 24.6035 26.9382 24.7888 27.0326C27.8007 28.566 30.1218 28.8521 31.1572 27.8184C32.5243 26.4512 31.5482 22.83 28.6699 18.5929C28.552 18.4198 28.5975 18.1844 28.77 18.0669C28.9442 17.9493 29.1788 17.9944 29.2962 18.1674C32.4835 22.8593 33.3794 26.6672 31.6927 28.3538C31.1366 28.9096 30.3478 29.186 29.3636 29.186ZM10.1763 14.0124C10.0482 14.0124 9.92284 13.9476 9.8519 13.8297C7.35857 9.7117 6.79604 6.48224 8.3087 4.96984C9.56497 3.7133 12.0251 3.88637 15.2351 5.4557C15.423 5.5477 15.5008 5.77424 15.4091 5.9621C15.3179 6.15024 15.0906 6.2285 14.9028 6.1361C12.0472 4.74037 9.83897 4.50984 8.84404 5.5053C7.6351 6.7145 8.26924 9.75397 10.4996 13.4376C10.6082 13.6165 10.551 13.8496 10.3719 13.9577C10.3103 13.9946 10.2428 14.0124 10.1763 14.0124Z" fill="#4AC328"/>
<path d="M26.1503 22.4179C25.9659 22.4179 25.8041 22.2828 25.7761 22.095C25.7456 21.8882 25.8885 21.6954 26.0951 21.6648C31.8867 20.8038 35.7776 18.7939 35.7776 16.6636C35.7776 15.006 33.4253 13.3931 29.4851 12.3492C29.2829 12.2955 29.1627 12.0884 29.2164 11.8863C29.2701 11.6842 29.4777 11.564 29.6793 11.6171C34.0361 12.7718 36.5348 14.6112 36.5348 16.6636C36.5348 19.2632 32.5773 21.4667 26.2065 22.4138C26.1877 22.4167 26.1691 22.4179 26.1503 22.4179ZM13.8464 22.4179C13.8277 22.4179 13.8089 22.4167 13.7903 22.4138C7.4224 21.4664 3.4668 19.2631 3.4668 16.6636C3.4668 14.6122 5.96893 12.771 10.3321 11.612C10.5363 11.5592 10.7419 11.6794 10.7951 11.881C10.8488 12.0831 10.7285 12.2904 10.5264 12.3442C6.58026 13.3922 4.224 15.007 4.224 16.6636C4.224 18.7938 8.11306 20.8035 13.9016 21.6648C14.1087 21.6956 14.2512 21.8882 14.2207 22.095C14.1925 22.2828 14.0308 22.4179 13.8464 22.4179Z" fill="#4AC328"/>
<path d="M29.8295 14.0022C29.7629 14.0022 29.6949 13.9845 29.6337 13.9473C29.4548 13.839 29.3976 13.6061 29.506 13.4274C31.7344 9.75166 32.3671 6.71593 31.1561 5.50526C30.1597 4.50886 27.948 4.74006 25.0875 6.141C24.8992 6.23286 24.6728 6.155 24.5807 5.96713C24.4889 5.77926 24.5664 5.55246 24.7543 5.4606C27.9708 3.88633 30.4344 3.71233 31.6916 4.9698C33.2061 6.48406 32.6456 9.70993 30.1539 13.8198C30.0824 13.9373 29.9576 14.0022 29.8295 14.0022ZM10.6376 29.1858C9.65253 29.1858 8.86373 28.9095 8.3076 28.3535C6.62146 26.6674 7.51533 22.8615 10.6987 18.1723C10.8156 17.9998 11.0507 17.9537 11.2243 18.0718C11.3973 18.1894 11.4427 18.4249 11.3248 18.5978C8.4504 22.8322 7.47626 26.4511 8.84293 27.8181C9.8788 28.8534 12.2053 28.565 15.2261 27.0275C15.412 26.9331 15.6407 27.0069 15.7349 27.1931C15.83 27.3795 15.7556 27.6075 15.5693 27.7025C13.6327 28.6885 11.9584 29.1855 10.6376 29.1858Z" fill="#4AC328"/>
<path d="M23.7314 29.3955H16.2843C15.5867 29.3955 15.0192 28.828 15.0192 28.1304V25.384C15.0192 24.1803 14.4684 23.0358 13.5076 22.2438C11.1298 20.2983 9.76562 17.4148 9.76562 14.3335C9.76562 11.423 11.01 8.64056 13.1803 6.70002C15.3796 4.73309 18.2259 3.83362 21.1802 4.16496C25.644 4.66762 29.3964 8.23709 30.1028 12.6526C30.6747 16.2926 29.3426 19.8628 26.5388 22.2042C26.5384 22.2047 26.5379 22.2051 26.5374 22.2054C25.5582 23.0139 24.9967 24.1656 24.9967 25.3651V28.1304C24.9964 28.828 24.429 29.3955 23.7314 29.3955ZM19.9848 4.85482C17.6488 4.85482 15.4446 5.69109 13.685 7.26456C11.6754 9.06149 10.5227 11.638 10.5227 14.3334C10.5227 17.1867 11.7859 19.8564 13.9882 21.6584C15.1251 22.5956 15.7763 23.9532 15.7763 25.3839V28.1303C15.7763 28.4103 16.0042 28.6382 16.2842 28.6382H23.7312C24.0112 28.6382 24.2391 28.4103 24.2391 28.1303V25.365C24.2391 23.939 24.9007 22.5747 26.0544 21.6218C28.6512 19.4527 29.8847 16.1443 29.3547 12.771C28.701 8.68602 25.2276 5.38256 21.0956 4.91709C20.7228 4.87549 20.3522 4.85482 19.9848 4.85482ZM26.296 21.9134H26.301H26.296Z" fill="#4AC328"/>
<path d="M21.5177 29.3961C21.3086 29.3961 21.139 29.2265 21.139 29.0174V19.573C20.3685 19.6241 19.6111 19.6241 18.8623 19.575V29.0174C18.8623 29.2265 18.6927 29.3961 18.4837 29.3961C18.2746 29.3961 18.105 29.2265 18.105 29.0174V19.4731L16.7862 19.2059C15.9846 19.0425 15.4023 18.3295 15.4023 17.511V17.367C15.4023 16.413 16.1783 15.6367 17.1323 15.6367C18.0863 15.6367 18.8623 16.413 18.8623 17.367V18.8185C19.6033 18.8686 20.3725 18.8687 21.139 18.8162V17.367C21.139 16.413 21.915 15.6367 22.869 15.6367C23.823 15.6367 24.5995 16.413 24.5995 17.367V17.511C24.5995 18.3297 24.0173 19.0426 23.2151 19.2059L21.8963 19.4751V29.0174C21.8963 29.2265 21.7266 29.3961 21.5177 29.3961ZM22.869 16.3941C22.3326 16.3941 21.8963 16.8306 21.8963 17.367V18.7041L23.0638 18.4639C23.5149 18.3719 23.8423 17.9711 23.8423 17.5109V17.3669C23.8422 16.8306 23.4054 16.3941 22.869 16.3941ZM17.1322 16.3941C16.5958 16.3941 16.1594 16.8306 16.1594 17.367V17.511C16.1594 17.9713 16.4867 18.3721 16.9374 18.4641L18.1049 18.7025V17.3671C18.1049 16.8306 17.6686 16.3941 17.1322 16.3941ZM23.9621 31.4961H16.0397C15.8306 31.4961 15.661 31.3265 15.661 31.1174C15.661 30.9083 15.8306 30.7387 16.0397 30.7387H23.9621C24.1711 30.7387 24.3407 30.9083 24.3407 31.1174C24.3407 31.3265 24.1711 31.4961 23.9621 31.4961ZM23.4853 33.7001H16.5163C16.3073 33.7001 16.1377 33.5305 16.1377 33.3214C16.1377 33.1123 16.3073 32.9427 16.5163 32.9427H23.4853C23.6943 32.9427 23.8639 33.1123 23.8639 33.3214C23.8639 33.5305 23.6943 33.7001 23.4853 33.7001ZM22.1221 35.9039H17.8782C17.6691 35.9039 17.4995 35.7343 17.4995 35.5253C17.4995 35.3162 17.6691 35.1466 17.8782 35.1466H22.1221C22.3311 35.1466 22.5007 35.3162 22.5007 35.5253C22.5007 35.7343 22.3311 35.9039 22.1221 35.9039Z" fill="#4AC328"/>
</svg>
