<svg width="40" height="40" viewBox="0 0 40 40" fill="none" xmlns="http://www.w3.org/2000/svg">
<g clip-path="url(#clip0_206_25)">
<path d="M20 0C8.95917 0 0 8.9575 0 19.9983C0 31.04 8.95917 40 20 40C31.0408 40 40 31.0392 40 19.9983C40 8.9575 31.0408 0 20 0ZM20 0.84C30.5867 0.84 39.16 9.41083 39.16 19.9983C39.16 30.5858 30.5867 39.16 20 39.16C9.41333 39.16 0.84 30.585 0.84 19.9983C0.84 9.41083 9.41333 0.84 20 0.84V0.84ZM9.58333 11.6667L9.16667 12.0833V13.3333H10V12.5H10.8333V11.6667H9.58333ZM11.6667 11.6667V12.5H13.3333V11.6667H11.6667ZM14.1667 11.6667V12.5H15.8333V11.6667H14.1667ZM16.6667 11.6667V12.5H18.3333V11.6667H16.6667ZM19.1667 11.6667V12.5H20.8333V11.6667H19.1667ZM21.6667 11.6667V12.5H23.3333V11.6667H21.6667ZM24.1667 11.6667V12.5H25.8333V11.6667H24.1667ZM26.6667 11.6667V12.5H28.3333V11.6667H26.6667ZM29.1667 11.6667V12.5H30V13.3333H30.8333V12.0833L30.4167 11.6667H29.1667ZM22.9283 14.1375C22.9158 14.138 22.9033 14.1392 22.8908 14.1408C22.8551 14.1449 22.8201 14.1536 22.7867 14.1667C22.6842 14.2028 22.5998 14.2776 22.5517 14.375L16.7183 24.3492C16.6896 24.3971 16.6707 24.4503 16.6628 24.5056C16.6549 24.561 16.6581 24.6173 16.6723 24.6714C16.6864 24.7254 16.7112 24.7761 16.7452 24.8205C16.7792 24.8649 16.8217 24.902 16.8702 24.9297C16.9187 24.9575 16.9723 24.9752 17.0278 24.982C17.0833 24.9888 17.1395 24.9844 17.1933 24.9691C17.2471 24.9538 17.2972 24.928 17.3409 24.8931C17.3845 24.8582 17.4208 24.8149 17.4475 24.7658L23.2808 14.7917C23.3247 14.7285 23.3502 14.6543 23.3546 14.5775C23.3589 14.5007 23.3419 14.4241 23.3054 14.3564C23.2689 14.2886 23.2143 14.2323 23.1478 14.1937C23.0812 14.1551 23.0053 14.1356 22.9283 14.1375ZM9.16667 14.1667V15.8333H10V14.1667H9.16667ZM30 14.1667V15.8333H30.8333V14.1667H30ZM15.4167 15.8333C15.3626 15.8348 15.3094 15.847 15.2602 15.8693C15.211 15.8917 15.1667 15.9236 15.13 15.9633L11.9275 19.1925C11.8775 19.2125 11.8375 19.2558 11.7967 19.2967C11.7579 19.3337 11.7271 19.3782 11.7061 19.4275C11.685 19.4767 11.6742 19.5298 11.6742 19.5833C11.6742 19.6369 11.685 19.6899 11.7061 19.7392C11.7271 19.7885 11.7579 19.833 11.7967 19.87C11.8383 19.9108 11.8767 19.9533 11.9267 19.9742L15.13 23.2033C15.167 23.2421 15.2115 23.2729 15.2608 23.2939C15.3101 23.315 15.3631 23.3258 15.4167 23.3258C15.4702 23.3258 15.5233 23.315 15.5725 23.2939C15.6218 23.2729 15.6663 23.2421 15.7033 23.2033C15.7421 23.1663 15.7729 23.1218 15.7939 23.0725C15.815 23.0233 15.8258 22.9702 15.8258 22.9167C15.8258 22.8631 15.815 22.8101 15.7939 22.7608C15.7729 22.7115 15.7421 22.667 15.7033 22.63L12.6558 19.5833L15.7033 16.5367C15.7421 16.4996 15.7729 16.4551 15.7939 16.4059C15.815 16.3566 15.8258 16.3036 15.8258 16.25C15.8258 16.1964 15.815 16.1434 15.7939 16.0941C15.7729 16.0449 15.7421 16.0004 15.7033 15.9633C15.6666 15.9237 15.6223 15.8917 15.5731 15.8694C15.5239 15.8471 15.4707 15.8348 15.4167 15.8333ZM24.5833 15.8333C24.5293 15.8347 24.4761 15.8469 24.4268 15.8693C24.3776 15.8916 24.3333 15.9236 24.2967 15.9633C24.2579 16.0004 24.2271 16.0449 24.2061 16.0941C24.185 16.1434 24.1742 16.1964 24.1742 16.25C24.1742 16.3036 24.185 16.3566 24.2061 16.4059C24.2271 16.4551 24.2579 16.4996 24.2967 16.5367L27.3442 19.5833L24.2967 22.63C24.2579 22.667 24.2271 22.7115 24.2061 22.7608C24.185 22.8101 24.1742 22.8631 24.1742 22.9167C24.1742 22.9702 24.185 23.0233 24.2061 23.0725C24.2271 23.1218 24.2579 23.1663 24.2967 23.2033C24.3337 23.2421 24.3782 23.2729 24.4275 23.2939C24.4767 23.315 24.5298 23.3258 24.5833 23.3258C24.6369 23.3258 24.6899 23.315 24.7392 23.2939C24.7885 23.2729 24.833 23.2421 24.87 23.2033L28.0725 19.9742C28.1225 19.9542 28.1625 19.9108 28.2033 19.87C28.2421 19.833 28.2729 19.7885 28.2939 19.7392C28.315 19.6899 28.3258 19.6369 28.3258 19.5833C28.3258 19.5298 28.315 19.4767 28.2939 19.4275C28.2729 19.3782 28.2421 19.3337 28.2033 19.2967C28.1617 19.2558 28.1233 19.2133 28.0725 19.1925L24.87 15.9633C24.8333 15.9237 24.789 15.8917 24.7398 15.8694C24.6906 15.8471 24.6374 15.8348 24.5833 15.8333V15.8333ZM9.16667 16.6667V18.3333H10V16.6667H9.16667ZM30 16.6667V18.3333H30.8333V16.6667H30ZM9.16667 19.1667V20.8333H10V19.1667H9.16667ZM30 19.1667V20.8333H30.8333V19.1667H30ZM9.16667 21.6667V23.3333H10V21.6667H9.16667ZM30 21.6667V23.3333H30.8333V21.6667H30ZM9.16667 24.1667V25.8333H10V24.1667H9.16667ZM30 24.1667V25.8333H30.8333V24.1667H30ZM9.16667 26.6667V27.0833L9.58333 27.5H10.8333V26.6667H9.16667ZM11.6667 26.6667V27.5H13.3333V26.6667H11.6667ZM14.1667 26.6667V27.5H15.8333V26.6667H14.1667ZM16.6667 26.6667V27.5H18.3333V26.6667H16.6667ZM19.1667 26.6667V27.5H20.8333V26.6667H19.1667ZM21.6667 26.6667V27.5H23.3333V26.6667H21.6667ZM24.1667 26.6667V27.5H25.8333V26.6667H24.1667ZM26.6667 26.6667V27.5H28.3333V26.6667H26.6667ZM29.1667 26.6667V27.5H30.4167L30.8333 27.0833V26.6667H29.1667Z" fill="#4AC328"/>
</g>
<defs>
<clipPath id="clip0_206_25">
<rect width="40" height="40" fill="white"/>
</clipPath>
</defs>
</svg>
