<svg width="40" height="40" viewBox="0 0 40 40" fill="none" xmlns="http://www.w3.org/2000/svg">
<path d="M35.625 7.5H4.375C3.87789 7.50054 3.40129 7.69826 3.04977 8.04977C2.69826 8.40129 2.50054 8.87789 2.5 9.375V30.625C2.50054 31.1221 2.69826 31.5987 3.04977 31.9502C3.40129 32.3017 3.87789 32.4995 4.375 32.5H35.625C36.1221 32.4995 36.5987 32.3017 36.9502 31.9502C37.3017 31.5987 37.4995 31.1221 37.5 30.625V9.375C37.4995 8.87789 37.3017 8.40129 36.9502 8.04977C36.5987 7.69826 36.1221 7.50054 35.625 7.5ZM3.75 9.375C3.75021 9.2093 3.81613 9.05045 3.93329 8.93329C4.05045 8.81613 4.2093 8.75021 4.375 8.75H35.625C35.7907 8.75021 35.9495 8.81613 36.0667 8.93329C36.1839 9.05045 36.2498 9.2093 36.25 9.375V11.25H3.75V9.375ZM36.25 30.625C36.2498 30.7907 36.1839 30.9495 36.0667 31.0667C35.9495 31.1839 35.7907 31.2498 35.625 31.25H4.375C4.2093 31.2498 4.05045 31.1839 3.93329 31.0667C3.81612 30.9495 3.75021 30.7907 3.75 30.625V12.5H36.25V30.625Z" fill="#4AC328"/>
<path d="M34.3811 9.375H34.375C34.2087 9.37581 34.0495 9.44255 33.9323 9.56058C33.8152 9.6786 33.7496 9.83828 33.75 10.0046C33.7504 10.1709 33.8168 10.3303 33.9345 10.4477C34.0522 10.5652 34.2118 10.6311 34.3781 10.6311C34.5444 10.6311 34.7039 10.5652 34.8216 10.4477C34.9394 10.3303 35.0057 10.1709 35.0061 10.0046C35.0065 9.83828 34.941 9.6786 34.8238 9.56058C34.7066 9.44255 34.5474 9.37581 34.3811 9.375V9.375ZM31.875 9.375H31.8689C31.7026 9.37581 31.5434 9.44255 31.4262 9.56058C31.309 9.6786 31.2435 9.83828 31.2439 10.0046C31.2443 10.1709 31.3106 10.3303 31.4284 10.4477C31.5461 10.5652 31.7056 10.6311 31.8719 10.6311C32.0382 10.6311 32.1978 10.5652 32.3155 10.4477C32.4332 10.3303 32.4996 10.1709 32.5 10.0046C32.5004 9.83828 32.4348 9.6786 32.3177 9.56058C32.2005 9.44255 32.0413 9.37581 31.875 9.375V9.375ZM29.3781 9.375H29.3719C29.2056 9.37581 29.0464 9.44255 28.9293 9.56058C28.8121 9.6786 28.7465 9.83828 28.7469 10.0046C28.7473 10.1709 28.8137 10.3303 28.9314 10.4477C29.0492 10.5652 29.2087 10.6311 29.375 10.6311C29.5413 10.6311 29.7008 10.5652 29.8186 10.4477C29.9363 10.3303 30.0027 10.1709 30.0031 10.0046C30.0035 9.83828 29.9379 9.6786 29.8207 9.56058C29.7036 9.44255 29.5444 9.37581 29.3781 9.375V9.375ZM5.625 15H10C10.1658 15 10.3247 14.9342 10.4419 14.8169C10.5592 14.6997 10.625 14.5408 10.625 14.375C10.625 14.2092 10.5592 14.0503 10.4419 13.9331C10.3247 13.8158 10.1658 13.75 10 13.75H5.625C5.45924 13.75 5.30027 13.8158 5.18306 13.9331C5.06585 14.0503 5 14.2092 5 14.375C5 14.5408 5.06585 14.6997 5.18306 14.8169C5.30027 14.9342 5.45924 15 5.625 15V15ZM5.625 17.5H10C10.1658 17.5 10.3247 17.4342 10.4419 17.3169C10.5592 17.1997 10.625 17.0408 10.625 16.875C10.625 16.7092 10.5592 16.5503 10.4419 16.4331C10.3247 16.3158 10.1658 16.25 10 16.25H5.625C5.45924 16.25 5.30027 16.3158 5.18306 16.4331C5.06585 16.5503 5 16.7092 5 16.875C5 17.0408 5.06585 17.1997 5.18306 17.3169C5.30027 17.4342 5.45924 17.5 5.625 17.5V17.5ZM5.625 20H10C10.1658 20 10.3247 19.9342 10.4419 19.8169C10.5592 19.6997 10.625 19.5408 10.625 19.375C10.625 19.2092 10.5592 19.0503 10.4419 18.9331C10.3247 18.8158 10.1658 18.75 10 18.75H5.625C5.45924 18.75 5.30027 18.8158 5.18306 18.9331C5.06585 19.0503 5 19.2092 5 19.375C5 19.5408 5.06585 19.6997 5.18306 19.8169C5.30027 19.9342 5.45924 20 5.625 20V20ZM5.625 22.5H10C10.1658 22.5 10.3247 22.4342 10.4419 22.3169C10.5592 22.1997 10.625 22.0408 10.625 21.875C10.625 21.7092 10.5592 21.5503 10.4419 21.4331C10.3247 21.3158 10.1658 21.25 10 21.25H5.625C5.45924 21.25 5.30027 21.3158 5.18306 21.4331C5.06585 21.5503 5 21.7092 5 21.875C5 22.0408 5.06585 22.1997 5.18306 22.3169C5.30027 22.4342 5.45924 22.5 5.625 22.5V22.5ZM24.375 21.25H29.8868C29.9784 21.2501 30.069 21.2299 30.152 21.1911C30.235 21.1522 30.3084 21.0956 30.3671 21.0251C30.4257 20.9547 30.4682 20.8722 30.4914 20.7836C30.5146 20.6949 30.518 20.6022 30.5014 20.5121C30.2385 19.1023 29.5755 17.7979 28.5916 16.7546L29.1409 15.625H31.875C32.0408 15.625 32.1997 15.5592 32.3169 15.4419C32.4342 15.3247 32.5 15.1658 32.5 15C32.5 14.8342 32.4342 14.6753 32.3169 14.5581C32.1997 14.4408 32.0408 14.375 31.875 14.375H28.75C28.6328 14.375 28.5179 14.4079 28.4185 14.4701C28.3191 14.5323 28.2392 14.6211 28.1879 14.7266L27.6254 15.8828C26.7015 15.1836 25.6272 14.7097 24.4879 14.4986C24.3978 14.482 24.3051 14.4854 24.2164 14.5086C24.1278 14.5318 24.0453 14.5743 23.9749 14.6329C23.9044 14.6916 23.8478 14.765 23.8089 14.848C23.7701 14.9311 23.7499 15.0216 23.75 15.1133V20.625C23.75 20.7908 23.8159 20.9497 23.9331 21.0669C24.0503 21.1841 24.2092 21.25 24.375 21.25V21.25ZM25 15.9113C25.9588 16.2162 26.8305 16.7466 27.542 17.458C28.2534 18.1695 28.7838 19.0412 29.0887 20H25V15.9113ZM34.375 15.625H34.3811C34.5474 15.6242 34.7066 15.5575 34.8238 15.4394C34.941 15.3214 35.0065 15.1617 35.0061 14.9954C35.0057 14.8291 34.9394 14.6697 34.8216 14.5523C34.7039 14.4348 34.5444 14.3689 34.3781 14.3689C34.2118 14.3689 34.0522 14.4348 33.9345 14.5523C33.8168 14.6697 33.7504 14.8291 33.75 14.9954C33.7496 15.1617 33.8152 15.3214 33.9323 15.4394C34.0495 15.5575 34.2087 15.6242 34.375 15.625V15.625Z" fill="#4AC328"/>
<path d="M34.3759 16.25H32.5009C32.3351 16.25 32.1761 16.3159 32.0589 16.4331C31.9417 16.5503 31.8759 16.7093 31.8759 16.875C31.8759 17.0408 31.9417 17.1997 32.0589 17.317C32.1761 17.4342 32.3351 17.5 32.5009 17.5H34.3759C34.5416 17.5 34.7006 17.4342 34.8178 17.317C34.935 17.1997 35.0009 17.0408 35.0009 16.875C35.0009 16.7093 34.935 16.5503 34.8178 16.4331C34.7006 16.3159 34.5416 16.25 34.3759 16.25ZM17.2323 26.6016L16.491 28.125H13.757C13.5912 28.125 13.4322 28.1909 13.315 28.3081C13.1978 28.4253 13.132 28.5843 13.132 28.75C13.132 28.9158 13.1978 29.0747 13.315 29.192C13.4322 29.3092 13.5912 29.375 13.757 29.375H16.882C16.9992 29.375 17.1141 29.3421 17.2135 29.2799C17.3129 29.2177 17.3928 29.1289 17.4441 29.0235L18.1844 27.5024C19.1785 28.3794 20.3877 28.9768 21.6883 29.2334C22.9889 29.49 24.3344 29.3967 25.5871 28.963C26.8399 28.5293 27.955 27.7708 28.8186 26.7649C29.6821 25.759 30.2631 24.5419 30.5022 23.238C30.5189 23.1478 30.5154 23.0551 30.4922 22.9665C30.469 22.8778 30.4266 22.7953 30.3679 22.7249C30.3093 22.6545 30.2358 22.5978 30.1528 22.5589C30.0698 22.5201 29.9793 22.5 29.8876 22.5H22.5009V15.1133C22.5009 15.0216 22.4808 14.9311 22.4419 14.8481C22.4031 14.7651 22.3464 14.6916 22.276 14.633C22.2056 14.5743 22.1231 14.5319 22.0344 14.5086C21.9457 14.4854 21.853 14.482 21.7629 14.4986C20.4882 14.7328 19.2961 15.2938 18.3031 16.1266C17.31 16.9594 16.5501 18.0357 16.0975 19.2501C15.6449 20.4645 15.5151 21.7756 15.7209 23.0552C15.9266 24.3348 16.4609 25.5391 17.2714 26.5505C17.2574 26.5668 17.2444 26.5838 17.2323 26.6016V26.6016ZM21.2509 15.9103V23.125C21.2509 23.2908 21.3167 23.4497 21.4339 23.5669C21.5511 23.6841 21.7101 23.75 21.8759 23.75H29.0905C28.768 24.775 28.1867 25.6996 27.4027 26.4345C26.6188 27.1693 25.6586 27.6897 24.6149 27.9454C23.5713 28.2011 22.4793 28.1835 21.4444 27.8942C20.4095 27.605 19.4667 27.0538 18.7069 26.294C17.947 25.5342 17.3959 24.5913 17.1066 23.5565C16.8174 22.5216 16.7997 21.4296 17.0554 20.3859C17.3111 19.3423 17.8315 18.3821 18.5664 17.5981C19.3013 16.8142 20.2259 16.2329 21.2509 15.9103V15.9103ZM11.257 29.375C11.4227 29.375 11.5817 29.3092 11.6989 29.192C11.8161 29.0747 11.882 28.9158 11.882 28.75C11.882 28.5843 11.8161 28.4253 11.6989 28.3081C11.5817 28.1909 11.4227 28.125 11.257 28.125H11.2509C11.0851 28.1258 10.9264 28.1925 10.8098 28.3102C10.6932 28.428 10.6281 28.5873 10.6289 28.7531C10.6297 28.9188 10.6964 29.0775 10.8141 29.1941C10.9319 29.3108 11.0912 29.3758 11.257 29.375V29.375Z" fill="#4AC328"/>
<path d="M11.2559 27.5H13.1309C13.2966 27.5 13.4556 27.4342 13.5728 27.3169C13.69 27.1997 13.7559 27.0408 13.7559 26.875C13.7559 26.7092 13.69 26.5503 13.5728 26.4331C13.4556 26.3158 13.2966 26.25 13.1309 26.25H11.2559C11.0901 26.25 10.9311 26.3158 10.8139 26.4331C10.6967 26.5503 10.6309 26.7092 10.6309 26.875C10.6309 27.0408 10.6967 27.1997 10.8139 27.3169C10.9311 27.4342 11.0901 27.5 11.2559 27.5Z" fill="#4AC328"/>
</svg>
