<svg width="40" height="40" viewBox="0 0 40 40" fill="none" xmlns="http://www.w3.org/2000/svg">
<path opacity="0.3" d="M26.9551 29.1289H21.1223V30.5186H26.9551V29.1289Z" fill="#528AC8"/>
<path d="M14.5186 29.1637H35.6433C37.483 29.1637 38.9883 27.6584 38.9883 25.8187V9.47977C38.9883 7.64004 37.483 6.13477 35.6433 6.13477H12.3736C10.5338 6.13477 9.02856 7.64004 9.02856 9.47977V15.7398" stroke="#4AC328" stroke-miterlimit="10" stroke-linecap="round" stroke-linejoin="round"/>
<path d="M14.5182 24.3726H35.621C36.6094 24.3726 37.418 23.564 37.418 22.5757V9.57457C37.418 8.58623 36.6094 7.77734 35.6207 7.77734H12.3949C11.4066 7.77734 10.598 8.58595 10.598 9.57429V15.5951" stroke="#4AC328" stroke-miterlimit="10" stroke-linecap="round" stroke-linejoin="round"/>
<path opacity="0.3" d="M37.418 10.1446V9.57457C37.418 8.58623 36.6094 7.77734 35.6207 7.77734H12.3949C11.4066 7.77734 10.598 8.58595 10.598 9.57429V10.1446H37.418Z" fill="#528AC8"/>
<path d="M37.418 10.1446V9.57457C37.418 8.58623 36.6094 7.77734 35.6207 7.77734H12.3949C11.4066 7.77734 10.598 8.58595 10.598 9.57429V10.1446H37.418Z" stroke="#4AC328" stroke-miterlimit="10" stroke-linecap="round" stroke-linejoin="round"/>
<path opacity="0.3" d="M24.0084 27.8387C23.4553 27.8387 23.007 27.3904 23.007 26.8373C23.007 26.2843 23.4553 25.8359 24.0084 25.8359C24.5614 25.8359 25.0098 26.2843 25.0098 26.8373C25.0098 27.3904 24.5614 27.8387 24.0084 27.8387Z" fill="#528AC8"/>
<path d="M24.0084 27.8387C23.4553 27.8387 23.007 27.3904 23.007 26.8373C23.007 26.2843 23.4553 25.8359 24.0084 25.8359C24.5614 25.8359 25.0098 26.2843 25.0098 26.8373C25.0098 27.3904 24.5614 27.8387 24.0084 27.8387Z" stroke="#4AC328" stroke-miterlimit="10" stroke-linecap="round" stroke-linejoin="round"/>
<path d="M21.0804 29.2349C21.0804 29.2349 21.6093 32.6538 19.006 32.6538H24.2124H23.8871H29.0121C26.409 32.6538 26.9785 29.2705 26.9785 29.2705M23.789 12.3761H15.4557M23.789 14.0427H14.0668M23.789 15.1538H15.4557M35.4062 11.9238H25.4188V15.6555H35.4062V11.9238Z" stroke="#4AC328" stroke-miterlimit="10" stroke-linecap="round" stroke-linejoin="round"/>
<path opacity="0.3" d="M35.4062 17.7148H30.4124V22.7087H35.4062V17.7148Z" fill="#528AC8"/>
<path d="M35.4062 17.7138H30.4124V22.7077H35.4062V17.7138ZM28.6015 17.7138H23.6076V22.7077H28.6015V17.7138ZM21.7968 17.7138H16.8029V22.7077H21.7968V17.7138ZM2.57597 34.6888H13.1679C13.5228 34.6878 13.8629 34.5464 14.1139 34.2954C14.3649 34.0444 14.5063 33.7043 14.5074 33.3494V17.0777C14.5063 16.7228 14.3649 16.3827 14.1139 16.1317C13.8629 15.8808 13.5228 15.7393 13.1679 15.7383H2.57597C2.22105 15.7393 1.88095 15.8808 1.62998 16.1317C1.37901 16.3827 1.23756 16.7228 1.23653 17.0777V33.3494C1.23756 33.7043 1.37901 34.0444 1.62998 34.2954C1.88095 34.5464 2.22105 34.6878 2.57597 34.6888V34.6888Z" stroke="#4AC328" stroke-miterlimit="10" stroke-linecap="round" stroke-linejoin="round"/>
<path d="M3.0273 31.6409H12.7162C12.9453 31.6409 13.165 31.5499 13.3271 31.3878C13.4891 31.2258 13.5801 31.0061 13.5801 30.777V17.6842C13.5801 17.4551 13.4891 17.2354 13.3271 17.0733C13.165 16.9113 12.9453 16.8203 12.7162 16.8203H3.0273C2.79818 16.8203 2.57845 16.9113 2.41644 17.0733C2.25443 17.2354 2.16341 17.4551 2.16341 17.6842V30.777C2.16341 31.0061 2.25443 31.2258 2.41644 31.3878C2.57845 31.5499 2.79818 31.6409 3.0273 31.6409V31.6409Z" stroke="#4AC328" stroke-miterlimit="10" stroke-linecap="round" stroke-linejoin="round"/>
<path opacity="0.3" d="M7.37355 33.7373C7.03512 33.7373 6.76077 33.4629 6.76077 33.1245C6.76077 32.7861 7.03512 32.5117 7.37355 32.5117C7.71198 32.5117 7.98633 32.7861 7.98633 33.1245C7.98633 33.4629 7.71198 33.7373 7.37355 33.7373Z" fill="#528AC8"/>
<path d="M7.37355 33.7373C7.03512 33.7373 6.76077 33.4629 6.76077 33.1245C6.76077 32.7861 7.03512 32.5117 7.37355 32.5117C7.71198 32.5117 7.98633 32.7861 7.98633 33.1245C7.98633 33.4629 7.71198 33.7373 7.37355 33.7373Z" stroke="#4AC328" stroke-miterlimit="10" stroke-linecap="round" stroke-linejoin="round"/>
<path opacity="0.3" d="M11.9551 18.2344H3.45619V25.3591H11.9551V18.2344Z" fill="#528AC8"/>
<path d="M11.8453 27.3755H5.17865M11.8453 28.4866H6.28977M5.12921 11.2518V12.9827M4.26365 12.1171H5.99449M2.31671 5.10156V7.99267M0.871154 6.54712H3.76199M12.1348 18.2341H3.45754V25.3588H12.1348V18.2341Z" stroke="#4AC328" stroke-miterlimit="10" stroke-linecap="round" stroke-linejoin="round"/>
</svg>
