<svg width="40" height="40" viewBox="0 0 40 40" fill="none" xmlns="http://www.w3.org/2000/svg">
<g clip-path="url(#clip0_213_303)">
<path d="M0.47619 36.0149C0.739183 36.0149 0.952381 35.8017 0.952381 35.5387C0.952381 35.2757 0.739183 35.0625 0.47619 35.0625C0.213198 35.0625 0 35.2757 0 35.5387C0 35.8017 0.213198 36.0149 0.47619 36.0149Z" fill="#4AC328"/>
<path d="M2.61821 35.0625H1.90392C1.77763 35.0625 1.65651 35.1127 1.56721 35.202C1.4779 35.2913 1.42773 35.4124 1.42773 35.5387C1.42773 35.665 1.4779 35.7861 1.56721 35.8754C1.65651 35.9647 1.77763 36.0149 1.90392 36.0149H2.61821C2.7445 36.0149 2.86562 35.9647 2.95493 35.8754C3.04423 35.7861 3.0944 35.665 3.0944 35.5387C3.0944 35.4124 3.04423 35.2913 2.95493 35.202C2.86562 35.1127 2.7445 35.0625 2.61821 35.0625ZM38.0944 35.0625H37.3801C37.2538 35.0625 37.1327 35.1127 37.0434 35.202C36.9541 35.2913 36.9039 35.4124 36.9039 35.5387C36.9039 35.665 36.9541 35.7861 37.0434 35.8754C37.1327 35.9647 37.2538 36.0149 37.3801 36.0149H38.0944C38.2207 36.0149 38.3418 35.9647 38.4311 35.8754C38.5204 35.7861 38.5706 35.665 38.5706 35.5387C38.5706 35.4124 38.5204 35.2913 38.4311 35.202C38.3418 35.1127 38.2207 35.0625 38.0944 35.0625Z" fill="#4AC328"/>
<path d="M39.5231 36.0149C39.7861 36.0149 39.9993 35.8017 39.9993 35.5387C39.9993 35.2757 39.7861 35.0625 39.5231 35.0625C39.2601 35.0625 39.0469 35.2757 39.0469 35.5387C39.0469 35.8017 39.2601 36.0149 39.5231 36.0149Z" fill="#4AC328"/>
<path d="M28.131 36.9668H26.153C26.0333 36.9764 25.9216 37.0307 25.8401 37.119C25.7587 37.2072 25.7134 37.3229 25.7134 37.443C25.7134 37.5631 25.7587 37.6788 25.8401 37.767C25.9216 37.8553 26.0333 37.9096 26.153 37.9192H28.131C28.2508 37.9096 28.3625 37.8553 28.4439 37.767C28.5254 37.6788 28.5706 37.5631 28.5706 37.443C28.5706 37.3229 28.5254 37.2072 28.4439 37.119C28.3625 37.0307 28.2508 36.9764 28.131 36.9668ZM13.8453 36.9668H11.8673C11.7476 36.9764 11.6359 37.0307 11.5544 37.119C11.473 37.2072 11.4277 37.3229 11.4277 37.443C11.4277 37.5631 11.473 37.6788 11.5544 37.767C11.6359 37.8553 11.7476 37.9096 11.8673 37.9192H13.8453C13.965 37.9096 14.0767 37.8553 14.1582 37.767C14.2397 37.6788 14.2849 37.5631 14.2849 37.443C14.2849 37.3229 14.2397 37.2072 14.1582 37.119C14.0767 37.0307 13.965 36.9764 13.8453 36.9668V36.9668ZM24.7611 36.9668H15.2373C15.111 36.9668 14.9898 37.017 14.9005 37.1063C14.8112 37.1956 14.7611 37.3167 14.7611 37.443C14.7611 37.5693 14.8112 37.6904 14.9005 37.7797C14.9898 37.869 15.111 37.9192 15.2373 37.9192H19.0325V38.3954H17.142C17.0157 38.3954 16.8946 38.4455 16.8053 38.5348C16.716 38.6241 16.6658 38.7453 16.6658 38.8716C16.6658 38.9979 16.716 39.119 16.8053 39.2083C16.8946 39.2976 17.0157 39.3477 17.142 39.3477H23.0944C23.2207 39.3477 23.3418 39.2976 23.4311 39.2083C23.5204 39.119 23.5706 38.9979 23.5706 38.8716C23.5706 38.7453 23.5204 38.6241 23.4311 38.5348C23.3418 38.4455 23.2207 38.3954 23.0944 38.3954H20.9658V37.9192H24.7611C24.8874 37.9192 25.0085 37.869 25.0978 37.7797C25.1871 37.6904 25.2373 37.5693 25.2373 37.443C25.2373 37.3167 25.1871 37.1956 25.0978 37.1063C25.0085 37.017 24.8874 36.9668 24.7611 36.9668Z" fill="#4AC328"/>
<path d="M13.3067 25.301H18.0951V26.2533H17.1427C17.0164 26.2533 16.8953 26.3035 16.806 26.3928C16.7167 26.4821 16.6665 26.6032 16.6665 26.7295C16.6665 26.8558 16.7167 26.977 16.806 27.0663C16.8953 27.1556 17.0164 27.2057 17.1427 27.2057H22.857C22.9833 27.2057 23.1044 27.1556 23.1937 27.0663C23.283 26.977 23.3331 26.8558 23.3331 26.7295C23.3331 26.6032 23.283 26.4821 23.1937 26.3928C23.1044 26.3035 22.9833 26.2533 22.857 26.2533H21.9046V25.301H26.6928C26.7515 25.3013 26.8097 25.2901 26.8642 25.2679C26.9186 25.2458 26.9681 25.2131 27.0099 25.1718C27.0516 25.1305 27.0849 25.0814 27.1077 25.0272C27.1305 24.9731 27.1423 24.915 27.1427 24.8562V16.6979C27.142 16.5793 27.0942 16.4658 27.0098 16.3824C26.9254 16.2991 26.8114 16.2526 26.6928 16.2533H13.3067C13.1881 16.2527 13.0741 16.2991 12.9898 16.3825C12.9054 16.4659 12.8577 16.5793 12.857 16.6979V24.8562C12.8573 24.915 12.8692 24.973 12.8919 25.0272C12.9147 25.0813 12.9479 25.1304 12.9897 25.1717C13.0314 25.213 13.0809 25.2457 13.1353 25.2679C13.1897 25.2901 13.2479 25.3013 13.3067 25.301V25.301ZM20.9522 26.2533H19.0474V25.301H20.9522V26.2533ZM13.8093 17.2057H26.1903V24.3486H13.8093V17.2057ZM4.99563 11.068L7.61468 12.6157C7.68805 12.659 7.77172 12.6819 7.85696 12.6819C7.94219 12.6819 8.02587 12.659 8.09924 12.6157L10.7183 11.068C10.7895 11.0259 10.8486 10.966 10.8896 10.8941C10.9306 10.8222 10.9522 10.7409 10.9522 10.6581V7.56287C10.9522 7.48011 10.9306 7.39878 10.8896 7.3269C10.8486 7.25502 10.7895 7.19507 10.7183 7.15295L8.09924 5.60533C8.02587 5.56195 7.94219 5.53906 7.85696 5.53906C7.77172 5.53906 7.68805 5.56195 7.61468 5.60533L4.99563 7.15295C4.92439 7.19507 4.86535 7.25502 4.82433 7.3269C4.78332 7.39878 4.76174 7.48011 4.76172 7.56287V10.6581C4.76174 10.7409 4.78332 10.8222 4.82433 10.8941C4.86535 10.966 4.92439 11.0259 4.99563 11.068V11.068ZM5.7141 7.83457L7.85696 6.56841L9.99981 7.83457V10.3864L7.85696 11.6526L5.7141 10.3864V7.83457ZM10.1596 12.5642C10.0652 12.6481 10.008 12.766 10.0006 12.8921C9.99322 13.0181 10.0362 13.142 10.12 13.2364L12.0248 15.3792C12.1088 15.4734 12.2267 15.5303 12.3526 15.5376C12.4785 15.545 12.6022 15.502 12.6965 15.4182C12.7908 15.3344 12.848 15.2166 12.8556 15.0907C12.8631 14.9648 12.8204 14.841 12.7367 14.7465L10.832 12.6037C10.7904 12.5569 10.7401 12.5188 10.6838 12.4915C10.6275 12.4642 10.5664 12.4483 10.504 12.4446C10.4415 12.4409 10.379 12.4496 10.3199 12.4701C10.2608 12.4906 10.2063 12.5226 10.1596 12.5642V12.5642Z" fill="#4AC328"/>
<path d="M7.85705 9.58519C8.12004 9.58519 8.33324 9.372 8.33324 9.109C8.33324 8.84601 8.12004 8.63281 7.85705 8.63281C7.59406 8.63281 7.38086 8.84601 7.38086 9.109C7.38086 9.372 7.59406 9.58519 7.85705 9.58519Z" fill="#4AC328"/>
<path d="M29.2813 11.068L31.9003 12.6157C31.9737 12.659 32.0574 12.6819 32.1426 12.6819C32.2279 12.6819 32.3115 12.659 32.3849 12.6157L35.004 11.068C35.0752 11.0259 35.1342 10.966 35.1753 10.8941C35.2163 10.8222 35.2379 10.7409 35.2379 10.6581V7.56287C35.2379 7.48011 35.2163 7.39878 35.1753 7.3269C35.1342 7.25502 35.0752 7.19507 35.004 7.15295L32.3849 5.60533C32.3115 5.56195 32.2279 5.53906 32.1426 5.53906C32.0574 5.53906 31.9737 5.56195 31.9003 5.60533L29.2813 7.15295C29.2101 7.19507 29.151 7.25502 29.11 7.3269C29.069 7.39878 29.0474 7.48011 29.0474 7.56287V10.6581C29.0474 10.7409 29.069 10.8222 29.11 10.8941C29.151 10.966 29.2101 11.0259 29.2813 11.068V11.068ZM29.9998 7.83457L32.1426 6.56841L34.2855 7.83457V10.3864L32.1426 11.6526L29.9998 10.3864V7.83457ZM27.6186 15.5391C27.6859 15.5392 27.7525 15.525 27.8139 15.4974C27.8753 15.4699 27.9301 15.4296 27.9748 15.3792L29.8796 13.2364C29.9632 13.1419 30.0059 13.0181 29.9984 12.8922C29.9908 12.7663 29.9336 12.6485 29.8393 12.5647C29.745 12.4809 29.6213 12.4379 29.4954 12.4452C29.3695 12.4525 29.2516 12.5095 29.1676 12.6037L27.2628 14.7465C27.2019 14.8151 27.162 14.8999 27.1481 14.9906C27.1342 15.0813 27.1468 15.1741 27.1843 15.2579C27.2219 15.3416 27.2829 15.4127 27.3599 15.4626C27.437 15.5125 27.5268 15.539 27.6186 15.5391V15.5391Z" fill="#4AC328"/>
<path d="M32.1422 9.58519C32.4052 9.58519 32.6184 9.372 32.6184 9.109C32.6184 8.84601 32.4052 8.63281 32.1422 8.63281C31.8792 8.63281 31.666 8.84601 31.666 9.109C31.666 9.372 31.8792 9.58519 32.1422 9.58519Z" fill="#4AC328"/>
<path d="M12.0244 26.1749L10.1197 28.3177C10.036 28.4122 9.99331 28.5359 10.0009 28.6619C10.0084 28.7878 10.0656 28.9056 10.1599 28.9894C10.2542 29.0732 10.3779 29.1161 10.5038 29.1088C10.6298 29.1015 10.7477 29.0445 10.8316 28.9504L12.7364 26.8075C12.82 26.7131 12.8627 26.5893 12.8552 26.4634C12.8477 26.3375 12.7905 26.2197 12.6962 26.1359C12.6019 26.0521 12.4782 26.0091 12.3522 26.0164C12.2263 26.0237 12.1084 26.0807 12.0244 26.1749V26.1749Z" fill="#4AC328"/>
<path d="M7.85705 32.9192C8.12004 32.9192 8.33324 32.706 8.33324 32.443C8.33324 32.18 8.12004 31.9668 7.85705 31.9668C7.59406 31.9668 7.38086 32.18 7.38086 32.443C7.38086 32.706 7.59406 32.9192 7.85705 32.9192Z" fill="#4AC328"/>
<path d="M29.167 28.9504C29.251 29.0445 29.3689 29.1015 29.4948 29.1088C29.6208 29.1161 29.7445 29.0732 29.8388 28.9894C29.933 28.9056 29.9902 28.7878 29.9978 28.6619C30.0053 28.5359 29.9626 28.4122 29.879 28.3177L27.9742 26.1749C27.8902 26.0807 27.7723 26.0237 27.6464 26.0164C27.5205 26.0091 27.3968 26.0521 27.3025 26.1359C27.2082 26.2197 27.151 26.3375 27.1434 26.4634C27.1359 26.5893 27.1786 26.7131 27.2622 26.8075L29.167 28.9504Z" fill="#4AC328"/>
<path d="M32.1422 32.9192C32.4052 32.9192 32.6184 32.706 32.6184 32.443C32.6184 32.18 32.4052 31.9668 32.1422 31.9668C31.8792 31.9668 31.666 32.18 31.666 32.443C31.666 32.706 31.8792 32.9192 32.1422 32.9192Z" fill="#4AC328"/>
<path d="M16.8795 18.9208L15.4509 18.2065C15.338 18.15 15.2072 18.1407 15.0874 18.1807C14.9675 18.2206 14.8685 18.3065 14.812 18.4195C14.7555 18.5325 14.7462 18.6633 14.7862 18.7831C14.8261 18.9029 14.912 19.002 15.025 19.0585L15.6019 19.3468L15.025 19.6351C14.969 19.6631 14.9192 19.7018 14.8782 19.749C14.8372 19.7963 14.8059 19.8511 14.7862 19.9105C14.7664 19.9698 14.7585 20.0324 14.7629 20.0948C14.7674 20.1572 14.784 20.2181 14.812 20.2741C14.84 20.33 14.8787 20.3799 14.9259 20.4208C14.9732 20.4618 15.028 20.4931 15.0874 20.5129C15.1467 20.5327 15.2093 20.5406 15.2717 20.5361C15.3341 20.5317 15.395 20.515 15.4509 20.487L16.8795 19.7728C16.9586 19.7332 17.0251 19.6724 17.0716 19.5971C17.1181 19.5219 17.1427 19.4352 17.1427 19.3468C17.1427 19.2583 17.1181 19.1717 17.0716 19.0964C17.0251 19.0212 16.9586 18.9604 16.8795 18.9208V18.9208ZM19.0475 20.2992H17.6189C17.4926 20.2992 17.3715 20.3493 17.2822 20.4386C17.1929 20.5279 17.1427 20.6491 17.1427 20.7754C17.1427 20.9016 17.1929 21.0228 17.2822 21.1121C17.3715 21.2014 17.4926 21.2515 17.6189 21.2515H19.0475C19.1738 21.2515 19.2949 21.2014 19.3842 21.1121C19.4735 21.0228 19.5237 20.9016 19.5237 20.7754C19.5237 20.6491 19.4735 20.5279 19.3842 20.4386C19.2949 20.3493 19.1738 20.2992 19.0475 20.2992Z" fill="#4AC328"/>
<path d="M35.8865 35.0619H33.8852L35.0047 34.4004C35.0759 34.3583 35.1349 34.2984 35.1759 34.2265C35.217 34.1546 35.2385 34.0733 35.2386 33.9905V30.8953C35.2385 30.8125 35.217 30.7312 35.1759 30.6593C35.1349 30.5874 35.0759 30.5275 35.0047 30.4854L32.3856 28.9377C32.3122 28.8944 32.2286 28.8715 32.1433 28.8715C32.0581 28.8715 31.9744 28.8944 31.901 28.9377L29.282 30.4854C29.2108 30.5275 29.1517 30.5874 29.1107 30.6593C29.0697 30.7312 29.0481 30.8125 29.0481 30.8953V33.9905C29.0481 34.0733 29.0697 34.1546 29.1107 34.2265C29.1517 34.2984 29.2108 34.3583 29.282 34.4004L30.4015 35.0619H9.59947L10.7189 34.4004C10.7902 34.3583 10.8492 34.2984 10.8902 34.2265C10.9312 34.1546 10.9528 34.0733 10.9528 33.9905V30.8953C10.9528 30.8125 10.9312 30.7312 10.8902 30.6593C10.8492 30.5874 10.7902 30.5275 10.7189 30.4854L8.09989 28.9377C8.02652 28.8944 7.94284 28.8715 7.85761 28.8715C7.77237 28.8715 7.6887 28.8944 7.61533 28.9377L4.99628 30.4854C4.92504 30.5275 4.866 30.5874 4.82498 30.6593C4.78397 30.7312 4.76239 30.8125 4.76237 30.8953V33.9905C4.76239 34.0733 4.78397 34.1546 4.82498 34.2265C4.866 34.2984 4.92504 34.3583 4.99628 34.4004L6.11575 35.0619H4.11444C4.04669 35.0531 3.97784 35.0588 3.91248 35.0787C3.84711 35.0986 3.78674 35.1322 3.7354 35.1772C3.68406 35.2223 3.64292 35.2778 3.61474 35.34C3.58656 35.4023 3.57198 35.4698 3.57198 35.5381C3.57198 35.6065 3.58656 35.674 3.61474 35.7362C3.64292 35.7985 3.68406 35.854 3.7354 35.899C3.78674 35.9441 3.84711 35.9777 3.91248 35.9976C3.97784 36.0175 4.04669 36.0232 4.11444 36.0143H35.8865C35.9542 36.0232 36.0231 36.0175 36.0885 35.9976C36.1538 35.9777 36.2142 35.9441 36.2655 35.899C36.3169 35.854 36.358 35.7985 36.3862 35.7362C36.4144 35.674 36.4289 35.6065 36.4289 35.5381C36.4289 35.4698 36.4144 35.4023 36.3862 35.34C36.358 35.2778 36.3169 35.2223 36.2655 35.1772C36.2142 35.1322 36.1538 35.0986 36.0885 35.0787C36.0231 35.0588 35.9542 35.0531 35.8865 35.0619ZM30.0005 31.167L32.1433 29.9008L34.2862 31.167V33.7188L32.1433 34.985L30.0005 33.7188V31.167ZM5.71475 31.167L7.85761 29.9008L10.0005 31.167V33.7188L7.85761 34.985L5.71475 33.7188V31.167ZM13.2765 4.95351C13.4177 4.95351 13.5558 4.91162 13.6733 4.83313C13.7908 4.75464 13.8823 4.64309 13.9364 4.51257C13.9904 4.38205 14.0046 4.23843 13.977 4.09987C13.9495 3.96132 13.8814 3.83404 13.7815 3.73415C13.6817 3.63425 13.5544 3.56622 13.4158 3.53866C13.2773 3.5111 13.1336 3.52525 13.0031 3.57931C12.8726 3.63337 12.7611 3.72493 12.6826 3.84239C12.6041 3.95985 12.5622 4.09795 12.5622 4.23922C12.5624 4.4286 12.6377 4.61015 12.7716 4.74406C12.9055 4.87797 13.0871 4.95329 13.2765 4.95351ZM13.2765 3.88208C13.3471 3.88208 13.4162 3.90303 13.4749 3.94227C13.5336 3.98151 13.5794 4.03729 13.6064 4.10255C13.6335 4.16781 13.6405 4.23962 13.6268 4.3089C13.613 4.37818 13.579 4.44182 13.529 4.49176C13.4791 4.54171 13.4154 4.57572 13.3461 4.5895C13.2769 4.60329 13.2051 4.59621 13.1398 4.56918C13.0745 4.54215 13.0188 4.49637 12.9795 4.43764C12.9403 4.37891 12.9193 4.30986 12.9193 4.23922C12.9194 4.14453 12.9571 4.05375 13.024 3.98679C13.091 3.91983 13.1818 3.88218 13.2765 3.88208ZM38.5719 16.4905C38.4777 16.4905 38.3856 16.5184 38.3073 16.5708C38.229 16.6231 38.168 16.6975 38.132 16.7845C38.0959 16.8715 38.0865 16.9672 38.1049 17.0596C38.1232 17.152 38.1686 17.2368 38.2352 17.3034C38.3018 17.37 38.3866 17.4154 38.479 17.4337C38.5714 17.4521 38.6671 17.4427 38.7541 17.4066C38.8411 17.3706 38.9155 17.3096 38.9678 17.2313C39.0202 17.153 39.0481 17.0609 39.0481 16.9667C39.0479 16.8405 38.9977 16.7194 38.9085 16.6301C38.8192 16.5409 38.6981 16.4907 38.5719 16.4905V16.4905ZM38.5719 17.2048C38.5248 17.2048 38.4788 17.1908 38.4396 17.1647C38.4005 17.1385 38.3699 17.1013 38.3519 17.0578C38.3339 17.0143 38.3292 16.9664 38.3384 16.9203C38.3476 16.8741 38.3702 16.8316 38.4035 16.7983C38.4368 16.765 38.4793 16.7424 38.5254 16.7332C38.5716 16.724 38.6195 16.7287 38.663 16.7467C38.7065 16.7648 38.7437 16.7953 38.7699 16.8344C38.796 16.8736 38.81 16.9196 38.81 16.9667C38.8099 17.0298 38.7848 17.0904 38.7402 17.135C38.6955 17.1796 38.635 17.2047 38.5719 17.2048V17.2048ZM3.57189 0.652344C3.47771 0.652344 3.38565 0.680272 3.30734 0.732596C3.22903 0.784921 3.16799 0.859292 3.13195 0.946304C3.09591 1.03332 3.08648 1.12906 3.10485 1.22143C3.12323 1.31381 3.16858 1.39866 3.23518 1.46525C3.30177 1.53185 3.38662 1.5772 3.47899 1.59557C3.57137 1.61395 3.66711 1.60452 3.75412 1.56848C3.84114 1.53244 3.91551 1.4714 3.96783 1.39309C4.02016 1.31478 4.04808 1.22272 4.04808 1.12853C4.04794 1.00228 3.99772 0.881248 3.90845 0.791976C3.81918 0.702704 3.69814 0.652488 3.57189 0.652344ZM3.57189 1.36663C3.5248 1.36663 3.47877 1.35267 3.43962 1.3265C3.40046 1.30034 3.36994 1.26316 3.35192 1.21965C3.3339 1.17614 3.32919 1.12827 3.33837 1.08208C3.34756 1.0359 3.37024 0.993474 3.40354 0.960175C3.43683 0.926877 3.47926 0.904201 3.52544 0.895014C3.57163 0.885827 3.6195 0.890542 3.66301 0.908563C3.70652 0.926584 3.7437 0.957101 3.76986 0.996256C3.79603 1.03541 3.80999 1.08144 3.80999 1.12853C3.80993 1.19166 3.78482 1.25219 3.74018 1.29682C3.69555 1.34146 3.63502 1.36657 3.57189 1.36663V1.36663ZM38.3338 1.49052C38.2396 1.49052 38.1475 1.51844 38.0692 1.57077C37.9909 1.62309 37.9299 1.69746 37.8939 1.78448C37.8578 1.87149 37.8484 1.96723 37.8668 2.05961C37.8851 2.15198 37.9305 2.23683 37.9971 2.30342C38.0637 2.37002 38.1485 2.41537 38.2409 2.43375C38.3333 2.45212 38.429 2.44269 38.516 2.40665C38.603 2.37061 38.6774 2.30957 38.7297 2.23126C38.7821 2.15295 38.81 2.06089 38.81 1.96671C38.8098 1.84046 38.7596 1.71942 38.6704 1.63015C38.5811 1.54088 38.46 1.49066 38.3338 1.49052V1.49052ZM38.3338 2.2048C38.2867 2.2048 38.2407 2.19084 38.2015 2.16467C38.1624 2.13851 38.1318 2.10133 38.1138 2.05782C38.0958 2.01431 38.0911 1.96644 38.1003 1.92026C38.1095 1.87407 38.1321 1.83165 38.1654 1.79835C38.1987 1.76505 38.2412 1.74237 38.2873 1.73319C38.3335 1.724 38.3814 1.72871 38.4249 1.74673C38.4684 1.76476 38.5056 1.79527 38.5318 1.83443C38.5579 1.87358 38.5719 1.91961 38.5719 1.96671C38.5718 2.02983 38.5467 2.09036 38.5021 2.13499C38.4575 2.17963 38.3969 2.20474 38.3338 2.2048V2.2048ZM20.0005 8.1151C20.0005 8.02091 19.9725 7.92885 19.9202 7.85054C19.8679 7.77223 19.7935 7.7112 19.7065 7.67515C19.6195 7.63911 19.5237 7.62968 19.4314 7.64806C19.339 7.66643 19.2542 7.71178 19.1876 7.77838C19.121 7.84497 19.0756 7.92982 19.0572 8.0222C19.0389 8.11457 19.0483 8.21031 19.0843 8.29733C19.1204 8.38434 19.1814 8.45871 19.2597 8.51103C19.338 8.56336 19.4301 8.59129 19.5243 8.59129C19.6505 8.59114 19.7716 8.54093 19.8608 8.45165C19.9501 8.36238 20.0003 8.24135 20.0005 8.1151ZM19.2862 8.1151C19.2862 8.06801 19.3001 8.02197 19.3263 7.98282C19.3525 7.94366 19.3897 7.91315 19.4332 7.89512C19.4767 7.8771 19.5245 7.87239 19.5707 7.88158C19.6169 7.89076 19.6593 7.91344 19.6926 7.94674C19.7259 7.98004 19.7486 8.02246 19.7578 8.06865C19.767 8.11483 19.7623 8.1627 19.7442 8.20621C19.7262 8.24972 19.6957 8.2869 19.6566 8.31306C19.6174 8.33923 19.5714 8.35319 19.5243 8.35319C19.4611 8.35313 19.4006 8.32802 19.356 8.28338C19.3113 8.23875 19.2862 8.17822 19.2862 8.1151V8.1151Z" fill="#4AC328"/>
<path d="M1.93211 8.23105L2.28592 7.76534L2.06235 7.63867L1.83521 8.1601H1.82759L1.59687 7.64248L1.36926 7.77272L1.71973 8.22748V8.23486L1.17188 8.16391V8.41724L1.7233 8.34653V8.35391L1.36926 8.80843L1.58164 8.94272L1.82402 8.41724H1.8314L2.05497 8.93891L2.28973 8.80486L1.93211 8.35772V8.3501L2.49449 8.41724V8.16391L1.93211 8.23843V8.23105Z" fill="#4AC328"/>
<path d="M21.2707 1.16581L21.0669 1.42748L21.1891 1.50486L21.3286 1.20224H21.3329L21.4617 1.50248L21.5969 1.42533L21.391 1.16795V1.16367L21.7148 1.20224V1.05629L21.391 1.09914V1.0951L21.5948 0.826763L21.466 0.753906L21.335 1.05414H21.3307L21.1979 0.756049L21.0669 0.831049L21.2686 1.09295V1.09724L20.9531 1.05629V1.20224L21.2707 1.16153V1.16581Z" fill="#4AC328"/>
<path d="M37.0764 6.69131V6.44273L36.5248 6.51583V6.50869L36.8722 6.05178L36.6529 5.92773L36.43 6.43916H36.4224L36.1962 5.93131L35.9729 6.05916L36.3167 6.50512V6.51226L35.7793 6.44273V6.69131L36.3203 6.62202V6.62916L35.9729 7.07488L36.1812 7.20654L36.4191 6.69131H36.426L36.6452 7.20297L36.8757 7.07131L36.5248 6.63273V6.62559L37.0764 6.69131Z" fill="#4AC328"/>
<path d="M27.7974 4.48752L28.0969 4.09347L27.9076 3.98633L27.7155 4.42752H27.7091L27.5138 3.98942L27.3212 4.0999L27.6176 4.48442V4.49061L27.1543 4.43085V4.64514L27.6207 4.58538V4.59157L27.3212 4.97609L27.501 5.08966L27.706 4.64514H27.7122L27.9014 5.08633L28.1 4.97299L27.7974 4.59466V4.58847L28.2731 4.64514V4.43085L27.7974 4.49371V4.48752Z" fill="#4AC328"/>
<path d="M0.47619 36.0149C0.739183 36.0149 0.952381 35.8017 0.952381 35.5387C0.952381 35.2757 0.739183 35.0625 0.47619 35.0625C0.213198 35.0625 0 35.2757 0 35.5387C0 35.8017 0.213198 36.0149 0.47619 36.0149Z" fill="#4AC328"/>
<path d="M2.61821 35.0625H1.90392C1.77763 35.0625 1.65651 35.1127 1.56721 35.202C1.4779 35.2913 1.42773 35.4124 1.42773 35.5387C1.42773 35.665 1.4779 35.7861 1.56721 35.8754C1.65651 35.9647 1.77763 36.0149 1.90392 36.0149H2.61821C2.7445 36.0149 2.86562 35.9647 2.95493 35.8754C3.04423 35.7861 3.0944 35.665 3.0944 35.5387C3.0944 35.4124 3.04423 35.2913 2.95493 35.202C2.86562 35.1127 2.7445 35.0625 2.61821 35.0625ZM38.0944 35.0625H37.3801C37.2538 35.0625 37.1327 35.1127 37.0434 35.202C36.9541 35.2913 36.9039 35.4124 36.9039 35.5387C36.9039 35.665 36.9541 35.7861 37.0434 35.8754C37.1327 35.9647 37.2538 36.0149 37.3801 36.0149H38.0944C38.2207 36.0149 38.3418 35.9647 38.4311 35.8754C38.5204 35.7861 38.5706 35.665 38.5706 35.5387C38.5706 35.4124 38.5204 35.2913 38.4311 35.202C38.3418 35.1127 38.2207 35.0625 38.0944 35.0625Z" fill="#4AC328"/>
<path d="M39.5231 36.0149C39.7861 36.0149 39.9993 35.8017 39.9993 35.5387C39.9993 35.2757 39.7861 35.0625 39.5231 35.0625C39.2601 35.0625 39.0469 35.2757 39.0469 35.5387C39.0469 35.8017 39.2601 36.0149 39.5231 36.0149Z" fill="#4AC328"/>
<path d="M28.131 36.9668H26.153C26.0333 36.9764 25.9216 37.0307 25.8401 37.119C25.7587 37.2072 25.7134 37.3229 25.7134 37.443C25.7134 37.5631 25.7587 37.6788 25.8401 37.767C25.9216 37.8553 26.0333 37.9096 26.153 37.9192H28.131C28.2508 37.9096 28.3625 37.8553 28.4439 37.767C28.5254 37.6788 28.5706 37.5631 28.5706 37.443C28.5706 37.3229 28.5254 37.2072 28.4439 37.119C28.3625 37.0307 28.2508 36.9764 28.131 36.9668ZM13.8453 36.9668H11.8673C11.7476 36.9764 11.6359 37.0307 11.5544 37.119C11.473 37.2072 11.4277 37.3229 11.4277 37.443C11.4277 37.5631 11.473 37.6788 11.5544 37.767C11.6359 37.8553 11.7476 37.9096 11.8673 37.9192H13.8453C13.965 37.9096 14.0767 37.8553 14.1582 37.767C14.2397 37.6788 14.2849 37.5631 14.2849 37.443C14.2849 37.3229 14.2397 37.2072 14.1582 37.119C14.0767 37.0307 13.965 36.9764 13.8453 36.9668V36.9668ZM24.7611 36.9668H15.2373C15.111 36.9668 14.9898 37.017 14.9005 37.1063C14.8112 37.1956 14.7611 37.3167 14.7611 37.443C14.7611 37.5693 14.8112 37.6904 14.9005 37.7797C14.9898 37.869 15.111 37.9192 15.2373 37.9192H19.0325V38.3954H17.142C17.0157 38.3954 16.8946 38.4455 16.8053 38.5348C16.716 38.6241 16.6658 38.7453 16.6658 38.8716C16.6658 38.9979 16.716 39.119 16.8053 39.2083C16.8946 39.2976 17.0157 39.3477 17.142 39.3477H23.0944C23.2207 39.3477 23.3418 39.2976 23.4311 39.2083C23.5204 39.119 23.5706 38.9979 23.5706 38.8716C23.5706 38.7453 23.5204 38.6241 23.4311 38.5348C23.3418 38.4455 23.2207 38.3954 23.0944 38.3954H20.9658V37.9192H24.7611C24.8874 37.9192 25.0085 37.869 25.0978 37.7797C25.1871 37.6904 25.2373 37.5693 25.2373 37.443C25.2373 37.3167 25.1871 37.1956 25.0978 37.1063C25.0085 37.017 24.8874 36.9668 24.7611 36.9668Z" fill="#4AC328"/>
<path d="M13.3067 25.301H18.0951V26.2533H17.1427C17.0164 26.2533 16.8953 26.3035 16.806 26.3928C16.7167 26.4821 16.6665 26.6032 16.6665 26.7295C16.6665 26.8558 16.7167 26.977 16.806 27.0663C16.8953 27.1556 17.0164 27.2057 17.1427 27.2057H22.857C22.9833 27.2057 23.1044 27.1556 23.1937 27.0663C23.283 26.977 23.3331 26.8558 23.3331 26.7295C23.3331 26.6032 23.283 26.4821 23.1937 26.3928C23.1044 26.3035 22.9833 26.2533 22.857 26.2533H21.9046V25.301H26.6928C26.7515 25.3013 26.8097 25.2901 26.8642 25.2679C26.9186 25.2458 26.9681 25.2131 27.0099 25.1718C27.0516 25.1305 27.0849 25.0814 27.1077 25.0272C27.1305 24.9731 27.1423 24.915 27.1427 24.8562V16.6979C27.142 16.5793 27.0942 16.4658 27.0098 16.3824C26.9254 16.2991 26.8114 16.2526 26.6928 16.2533H13.3067C13.1881 16.2527 13.0741 16.2991 12.9898 16.3825C12.9054 16.4659 12.8577 16.5793 12.857 16.6979V24.8562C12.8573 24.915 12.8692 24.973 12.8919 25.0272C12.9147 25.0813 12.9479 25.1304 12.9897 25.1717C13.0314 25.213 13.0809 25.2457 13.1353 25.2679C13.1897 25.2901 13.2479 25.3013 13.3067 25.301V25.301ZM20.9522 26.2533H19.0474V25.301H20.9522V26.2533ZM13.8093 17.2057H26.1903V24.3486H13.8093V17.2057ZM4.99563 11.068L7.61468 12.6157C7.68805 12.659 7.77172 12.6819 7.85696 12.6819C7.94219 12.6819 8.02587 12.659 8.09924 12.6157L10.7183 11.068C10.7895 11.0259 10.8486 10.966 10.8896 10.8941C10.9306 10.8222 10.9522 10.7409 10.9522 10.6581V7.56287C10.9522 7.48011 10.9306 7.39878 10.8896 7.3269C10.8486 7.25502 10.7895 7.19507 10.7183 7.15295L8.09924 5.60533C8.02587 5.56195 7.94219 5.53906 7.85696 5.53906C7.77172 5.53906 7.68805 5.56195 7.61468 5.60533L4.99563 7.15295C4.92439 7.19507 4.86535 7.25502 4.82433 7.3269C4.78332 7.39878 4.76174 7.48011 4.76172 7.56287V10.6581C4.76174 10.7409 4.78332 10.8222 4.82433 10.8941C4.86535 10.966 4.92439 11.0259 4.99563 11.068V11.068ZM5.7141 7.83457L7.85696 6.56841L9.99981 7.83457V10.3864L7.85696 11.6526L5.7141 10.3864V7.83457ZM10.1596 12.5642C10.0652 12.6481 10.008 12.766 10.0006 12.8921C9.99322 13.0181 10.0362 13.142 10.12 13.2364L12.0248 15.3792C12.1088 15.4734 12.2267 15.5303 12.3526 15.5376C12.4785 15.545 12.6022 15.502 12.6965 15.4182C12.7908 15.3344 12.848 15.2166 12.8556 15.0907C12.8631 14.9648 12.8204 14.841 12.7367 14.7465L10.832 12.6037C10.7904 12.5569 10.7401 12.5188 10.6838 12.4915C10.6275 12.4642 10.5664 12.4483 10.504 12.4446C10.4415 12.4409 10.379 12.4496 10.3199 12.4701C10.2608 12.4906 10.2063 12.5226 10.1596 12.5642V12.5642Z" fill="#4AC328"/>
<path d="M7.85705 9.58519C8.12004 9.58519 8.33324 9.372 8.33324 9.109C8.33324 8.84601 8.12004 8.63281 7.85705 8.63281C7.59406 8.63281 7.38086 8.84601 7.38086 9.109C7.38086 9.372 7.59406 9.58519 7.85705 9.58519Z" fill="#4AC328"/>
<path d="M29.2813 11.068L31.9003 12.6157C31.9737 12.659 32.0574 12.6819 32.1426 12.6819C32.2279 12.6819 32.3115 12.659 32.3849 12.6157L35.004 11.068C35.0752 11.0259 35.1342 10.966 35.1753 10.8941C35.2163 10.8222 35.2379 10.7409 35.2379 10.6581V7.56287C35.2379 7.48011 35.2163 7.39878 35.1753 7.3269C35.1342 7.25502 35.0752 7.19507 35.004 7.15295L32.3849 5.60533C32.3115 5.56195 32.2279 5.53906 32.1426 5.53906C32.0574 5.53906 31.9737 5.56195 31.9003 5.60533L29.2813 7.15295C29.2101 7.19507 29.151 7.25502 29.11 7.3269C29.069 7.39878 29.0474 7.48011 29.0474 7.56287V10.6581C29.0474 10.7409 29.069 10.8222 29.11 10.8941C29.151 10.966 29.2101 11.0259 29.2813 11.068V11.068ZM29.9998 7.83457L32.1426 6.56841L34.2855 7.83457V10.3864L32.1426 11.6526L29.9998 10.3864V7.83457ZM27.6186 15.5391C27.6859 15.5392 27.7525 15.525 27.8139 15.4974C27.8753 15.4699 27.9301 15.4296 27.9748 15.3792L29.8796 13.2364C29.9632 13.1419 30.0059 13.0181 29.9984 12.8922C29.9908 12.7663 29.9336 12.6485 29.8393 12.5647C29.745 12.4809 29.6213 12.4379 29.4954 12.4452C29.3695 12.4525 29.2516 12.5095 29.1676 12.6037L27.2628 14.7465C27.2019 14.8151 27.162 14.8999 27.1481 14.9906C27.1342 15.0813 27.1468 15.1741 27.1843 15.2579C27.2219 15.3416 27.2829 15.4127 27.3599 15.4626C27.437 15.5125 27.5268 15.539 27.6186 15.5391V15.5391Z" fill="#4AC328"/>
<path d="M32.1422 9.58519C32.4052 9.58519 32.6184 9.372 32.6184 9.109C32.6184 8.84601 32.4052 8.63281 32.1422 8.63281C31.8792 8.63281 31.666 8.84601 31.666 9.109C31.666 9.372 31.8792 9.58519 32.1422 9.58519Z" fill="#4AC328"/>
<path d="M12.0244 26.1749L10.1197 28.3177C10.036 28.4122 9.99331 28.5359 10.0009 28.6619C10.0084 28.7878 10.0656 28.9056 10.1599 28.9894C10.2542 29.0732 10.3779 29.1161 10.5038 29.1088C10.6298 29.1015 10.7477 29.0445 10.8316 28.9504L12.7364 26.8075C12.82 26.7131 12.8627 26.5893 12.8552 26.4634C12.8477 26.3375 12.7905 26.2197 12.6962 26.1359C12.6019 26.0521 12.4782 26.0091 12.3522 26.0164C12.2263 26.0237 12.1084 26.0807 12.0244 26.1749V26.1749Z" fill="#4AC328"/>
<path d="M7.85705 32.9192C8.12004 32.9192 8.33324 32.706 8.33324 32.443C8.33324 32.18 8.12004 31.9668 7.85705 31.9668C7.59406 31.9668 7.38086 32.18 7.38086 32.443C7.38086 32.706 7.59406 32.9192 7.85705 32.9192Z" fill="#4AC328"/>
<path d="M29.167 28.9504C29.251 29.0445 29.3689 29.1015 29.4948 29.1088C29.6208 29.1161 29.7445 29.0732 29.8388 28.9894C29.933 28.9056 29.9902 28.7878 29.9978 28.6619C30.0053 28.5359 29.9626 28.4122 29.879 28.3177L27.9742 26.1749C27.8902 26.0807 27.7723 26.0237 27.6464 26.0164C27.5205 26.0091 27.3968 26.0521 27.3025 26.1359C27.2082 26.2197 27.151 26.3375 27.1434 26.4634C27.1359 26.5893 27.1786 26.7131 27.2622 26.8075L29.167 28.9504Z" fill="#4AC328"/>
<path d="M32.1422 32.9192C32.4052 32.9192 32.6184 32.706 32.6184 32.443C32.6184 32.18 32.4052 31.9668 32.1422 31.9668C31.8792 31.9668 31.666 32.18 31.666 32.443C31.666 32.706 31.8792 32.9192 32.1422 32.9192Z" fill="#4AC328"/>
<path d="M16.8795 18.9208L15.4509 18.2065C15.338 18.15 15.2072 18.1407 15.0874 18.1807C14.9675 18.2206 14.8685 18.3065 14.812 18.4195C14.7555 18.5325 14.7462 18.6633 14.7862 18.7831C14.8261 18.9029 14.912 19.002 15.025 19.0585L15.6019 19.3468L15.025 19.6351C14.969 19.6631 14.9192 19.7018 14.8782 19.749C14.8372 19.7963 14.8059 19.8511 14.7862 19.9105C14.7664 19.9698 14.7585 20.0324 14.7629 20.0948C14.7674 20.1572 14.784 20.2181 14.812 20.2741C14.84 20.33 14.8787 20.3799 14.9259 20.4208C14.9732 20.4618 15.028 20.4931 15.0874 20.5129C15.1467 20.5327 15.2093 20.5406 15.2717 20.5361C15.3341 20.5317 15.395 20.515 15.4509 20.487L16.8795 19.7728C16.9586 19.7332 17.0251 19.6724 17.0716 19.5971C17.1181 19.5219 17.1427 19.4352 17.1427 19.3468C17.1427 19.2583 17.1181 19.1717 17.0716 19.0964C17.0251 19.0212 16.9586 18.9604 16.8795 18.9208V18.9208ZM19.0475 20.2992H17.6189C17.4926 20.2992 17.3715 20.3493 17.2822 20.4386C17.1929 20.5279 17.1427 20.6491 17.1427 20.7754C17.1427 20.9016 17.1929 21.0228 17.2822 21.1121C17.3715 21.2014 17.4926 21.2515 17.6189 21.2515H19.0475C19.1738 21.2515 19.2949 21.2014 19.3842 21.1121C19.4735 21.0228 19.5237 20.9016 19.5237 20.7754C19.5237 20.6491 19.4735 20.5279 19.3842 20.4386C19.2949 20.3493 19.1738 20.2992 19.0475 20.2992Z" fill="#4AC328"/>
<path d="M35.8865 35.0619H33.8852L35.0047 34.4004C35.0759 34.3583 35.1349 34.2984 35.1759 34.2265C35.217 34.1546 35.2385 34.0733 35.2386 33.9905V30.8953C35.2385 30.8125 35.217 30.7312 35.1759 30.6593C35.1349 30.5874 35.0759 30.5275 35.0047 30.4854L32.3856 28.9377C32.3122 28.8944 32.2286 28.8715 32.1433 28.8715C32.0581 28.8715 31.9744 28.8944 31.901 28.9377L29.282 30.4854C29.2108 30.5275 29.1517 30.5874 29.1107 30.6593C29.0697 30.7312 29.0481 30.8125 29.0481 30.8953V33.9905C29.0481 34.0733 29.0697 34.1546 29.1107 34.2265C29.1517 34.2984 29.2108 34.3583 29.282 34.4004L30.4015 35.0619H9.59947L10.7189 34.4004C10.7902 34.3583 10.8492 34.2984 10.8902 34.2265C10.9312 34.1546 10.9528 34.0733 10.9528 33.9905V30.8953C10.9528 30.8125 10.9312 30.7312 10.8902 30.6593C10.8492 30.5874 10.7902 30.5275 10.7189 30.4854L8.09989 28.9377C8.02652 28.8944 7.94284 28.8715 7.85761 28.8715C7.77237 28.8715 7.6887 28.8944 7.61533 28.9377L4.99628 30.4854C4.92504 30.5275 4.866 30.5874 4.82498 30.6593C4.78397 30.7312 4.76239 30.8125 4.76237 30.8953V33.9905C4.76239 34.0733 4.78397 34.1546 4.82498 34.2265C4.866 34.2984 4.92504 34.3583 4.99628 34.4004L6.11575 35.0619H4.11444C4.04669 35.0531 3.97784 35.0588 3.91248 35.0787C3.84711 35.0986 3.78674 35.1322 3.7354 35.1772C3.68406 35.2223 3.64292 35.2778 3.61474 35.34C3.58656 35.4023 3.57198 35.4698 3.57198 35.5381C3.57198 35.6065 3.58656 35.674 3.61474 35.7362C3.64292 35.7985 3.68406 35.854 3.7354 35.899C3.78674 35.9441 3.84711 35.9777 3.91248 35.9976C3.97784 36.0175 4.04669 36.0232 4.11444 36.0143H35.8865C35.9542 36.0232 36.0231 36.0175 36.0885 35.9976C36.1538 35.9777 36.2142 35.9441 36.2655 35.899C36.3169 35.854 36.358 35.7985 36.3862 35.7362C36.4144 35.674 36.4289 35.6065 36.4289 35.5381C36.4289 35.4698 36.4144 35.4023 36.3862 35.34C36.358 35.2778 36.3169 35.2223 36.2655 35.1772C36.2142 35.1322 36.1538 35.0986 36.0885 35.0787C36.0231 35.0588 35.9542 35.0531 35.8865 35.0619ZM30.0005 31.167L32.1433 29.9008L34.2862 31.167V33.7188L32.1433 34.985L30.0005 33.7188V31.167ZM5.71475 31.167L7.85761 29.9008L10.0005 31.167V33.7188L7.85761 34.985L5.71475 33.7188V31.167ZM13.2765 4.95351C13.4177 4.95351 13.5558 4.91162 13.6733 4.83313C13.7908 4.75464 13.8823 4.64309 13.9364 4.51257C13.9904 4.38205 14.0046 4.23843 13.977 4.09987C13.9495 3.96132 13.8814 3.83404 13.7815 3.73415C13.6817 3.63425 13.5544 3.56622 13.4158 3.53866C13.2773 3.5111 13.1336 3.52525 13.0031 3.57931C12.8726 3.63337 12.7611 3.72493 12.6826 3.84239C12.6041 3.95985 12.5622 4.09795 12.5622 4.23922C12.5624 4.4286 12.6377 4.61015 12.7716 4.74406C12.9055 4.87797 13.0871 4.95329 13.2765 4.95351ZM13.2765 3.88208C13.3471 3.88208 13.4162 3.90303 13.4749 3.94227C13.5336 3.98151 13.5794 4.03729 13.6064 4.10255C13.6335 4.16781 13.6405 4.23962 13.6268 4.3089C13.613 4.37818 13.579 4.44182 13.529 4.49176C13.4791 4.54171 13.4154 4.57572 13.3461 4.5895C13.2769 4.60329 13.2051 4.59621 13.1398 4.56918C13.0745 4.54215 13.0188 4.49637 12.9795 4.43764C12.9403 4.37891 12.9193 4.30986 12.9193 4.23922C12.9194 4.14453 12.9571 4.05375 13.024 3.98679C13.091 3.91983 13.1818 3.88218 13.2765 3.88208ZM38.5719 16.4905C38.4777 16.4905 38.3856 16.5184 38.3073 16.5708C38.229 16.6231 38.168 16.6975 38.132 16.7845C38.0959 16.8715 38.0865 16.9672 38.1049 17.0596C38.1232 17.152 38.1686 17.2368 38.2352 17.3034C38.3018 17.37 38.3866 17.4154 38.479 17.4337C38.5714 17.4521 38.6671 17.4427 38.7541 17.4066C38.8411 17.3706 38.9155 17.3096 38.9678 17.2313C39.0202 17.153 39.0481 17.0609 39.0481 16.9667C39.0479 16.8405 38.9977 16.7194 38.9085 16.6301C38.8192 16.5409 38.6981 16.4907 38.5719 16.4905V16.4905ZM38.5719 17.2048C38.5248 17.2048 38.4788 17.1908 38.4396 17.1647C38.4005 17.1385 38.3699 17.1013 38.3519 17.0578C38.3339 17.0143 38.3292 16.9664 38.3384 16.9203C38.3476 16.8741 38.3702 16.8316 38.4035 16.7983C38.4368 16.765 38.4793 16.7424 38.5254 16.7332C38.5716 16.724 38.6195 16.7287 38.663 16.7467C38.7065 16.7648 38.7437 16.7953 38.7699 16.8344C38.796 16.8736 38.81 16.9196 38.81 16.9667C38.8099 17.0298 38.7848 17.0904 38.7402 17.135C38.6955 17.1796 38.635 17.2047 38.5719 17.2048V17.2048ZM3.57189 0.652344C3.47771 0.652344 3.38565 0.680272 3.30734 0.732596C3.22903 0.784921 3.16799 0.859292 3.13195 0.946304C3.09591 1.03332 3.08648 1.12906 3.10485 1.22143C3.12323 1.31381 3.16858 1.39866 3.23518 1.46525C3.30177 1.53185 3.38662 1.5772 3.47899 1.59557C3.57137 1.61395 3.66711 1.60452 3.75412 1.56848C3.84114 1.53244 3.91551 1.4714 3.96783 1.39309C4.02016 1.31478 4.04808 1.22272 4.04808 1.12853C4.04794 1.00228 3.99772 0.881248 3.90845 0.791976C3.81918 0.702704 3.69814 0.652488 3.57189 0.652344ZM3.57189 1.36663C3.5248 1.36663 3.47877 1.35267 3.43962 1.3265C3.40046 1.30034 3.36994 1.26316 3.35192 1.21965C3.3339 1.17614 3.32919 1.12827 3.33837 1.08208C3.34756 1.0359 3.37024 0.993474 3.40354 0.960175C3.43683 0.926877 3.47926 0.904201 3.52544 0.895014C3.57163 0.885827 3.6195 0.890542 3.66301 0.908563C3.70652 0.926584 3.7437 0.957101 3.76986 0.996256C3.79603 1.03541 3.80999 1.08144 3.80999 1.12853C3.80993 1.19166 3.78482 1.25219 3.74018 1.29682C3.69555 1.34146 3.63502 1.36657 3.57189 1.36663V1.36663ZM38.3338 1.49052C38.2396 1.49052 38.1475 1.51844 38.0692 1.57077C37.9909 1.62309 37.9299 1.69746 37.8939 1.78448C37.8578 1.87149 37.8484 1.96723 37.8668 2.05961C37.8851 2.15198 37.9305 2.23683 37.9971 2.30342C38.0637 2.37002 38.1485 2.41537 38.2409 2.43375C38.3333 2.45212 38.429 2.44269 38.516 2.40665C38.603 2.37061 38.6774 2.30957 38.7297 2.23126C38.7821 2.15295 38.81 2.06089 38.81 1.96671C38.8098 1.84046 38.7596 1.71942 38.6704 1.63015C38.5811 1.54088 38.46 1.49066 38.3338 1.49052V1.49052ZM38.3338 2.2048C38.2867 2.2048 38.2407 2.19084 38.2015 2.16467C38.1624 2.13851 38.1318 2.10133 38.1138 2.05782C38.0958 2.01431 38.0911 1.96644 38.1003 1.92026C38.1095 1.87407 38.1321 1.83165 38.1654 1.79835C38.1987 1.76505 38.2412 1.74237 38.2873 1.73319C38.3335 1.724 38.3814 1.72871 38.4249 1.74673C38.4684 1.76476 38.5056 1.79527 38.5318 1.83443C38.5579 1.87358 38.5719 1.91961 38.5719 1.96671C38.5718 2.02983 38.5467 2.09036 38.5021 2.13499C38.4575 2.17963 38.3969 2.20474 38.3338 2.2048V2.2048ZM20.0005 8.1151C20.0005 8.02091 19.9725 7.92885 19.9202 7.85054C19.8679 7.77223 19.7935 7.7112 19.7065 7.67515C19.6195 7.63911 19.5237 7.62968 19.4314 7.64806C19.339 7.66643 19.2542 7.71178 19.1876 7.77838C19.121 7.84497 19.0756 7.92982 19.0572 8.0222C19.0389 8.11457 19.0483 8.21031 19.0843 8.29733C19.1204 8.38434 19.1814 8.45871 19.2597 8.51103C19.338 8.56336 19.4301 8.59129 19.5243 8.59129C19.6505 8.59114 19.7716 8.54093 19.8608 8.45165C19.9501 8.36238 20.0003 8.24135 20.0005 8.1151ZM19.2862 8.1151C19.2862 8.06801 19.3001 8.02197 19.3263 7.98282C19.3525 7.94366 19.3897 7.91315 19.4332 7.89512C19.4767 7.8771 19.5245 7.87239 19.5707 7.88158C19.6169 7.89076 19.6593 7.91344 19.6926 7.94674C19.7259 7.98004 19.7486 8.02246 19.7578 8.06865C19.767 8.11483 19.7623 8.1627 19.7442 8.20621C19.7262 8.24972 19.6957 8.2869 19.6566 8.31306C19.6174 8.33923 19.5714 8.35319 19.5243 8.35319C19.4611 8.35313 19.4006 8.32802 19.356 8.28338C19.3113 8.23875 19.2862 8.17822 19.2862 8.1151V8.1151Z" fill="#4AC328"/>
<path d="M1.93211 8.23105L2.28592 7.76534L2.06235 7.63867L1.83521 8.1601H1.82759L1.59687 7.64248L1.36926 7.77272L1.71973 8.22748V8.23486L1.17188 8.16391V8.41724L1.7233 8.34653V8.35391L1.36926 8.80843L1.58164 8.94272L1.82402 8.41724H1.8314L2.05497 8.93891L2.28973 8.80486L1.93211 8.35772V8.3501L2.49449 8.41724V8.16391L1.93211 8.23843V8.23105Z" fill="#4AC328"/>
<path d="M21.2707 1.16581L21.0669 1.42748L21.1891 1.50486L21.3286 1.20224H21.3329L21.4617 1.50248L21.5969 1.42533L21.391 1.16795V1.16367L21.7148 1.20224V1.05629L21.391 1.09914V1.0951L21.5948 0.826763L21.466 0.753906L21.335 1.05414H21.3307L21.1979 0.756049L21.0669 0.831049L21.2686 1.09295V1.09724L20.9531 1.05629V1.20224L21.2707 1.16153V1.16581Z" fill="#4AC328"/>
<path d="M37.0764 6.69131V6.44273L36.5248 6.51583V6.50869L36.8722 6.05178L36.6529 5.92773L36.43 6.43916H36.4224L36.1962 5.93131L35.9729 6.05916L36.3167 6.50512V6.51226L35.7793 6.44273V6.69131L36.3203 6.62202V6.62916L35.9729 7.07488L36.1812 7.20654L36.4191 6.69131H36.426L36.6452 7.20297L36.8757 7.07131L36.5248 6.63273V6.62559L37.0764 6.69131Z" fill="#4AC328"/>
<path d="M27.7974 4.48752L28.0969 4.09347L27.9076 3.98633L27.7155 4.42752H27.7091L27.5138 3.98942L27.3212 4.0999L27.6176 4.48442V4.49061L27.1543 4.43085V4.64514L27.6207 4.58538V4.59157L27.3212 4.97609L27.501 5.08966L27.706 4.64514H27.7122L27.9014 5.08633L28.1 4.97299L27.7974 4.59466V4.58847L28.2731 4.64514V4.43085L27.7974 4.49371V4.48752Z" fill="#4AC328"/>
</g>
<defs>
<clipPath id="clip0_213_303">
<rect width="40" height="40" fill="white"/>
</clipPath>
</defs>
</svg>
