<svg width="40" height="40" viewBox="0 0 40 40" fill="none" xmlns="http://www.w3.org/2000/svg">
<path d="M29.6906 21.3653C30.0695 20.6969 30.103 20.0991 30.103 19.5422C30.103 17.0133 27.7921 14.9562 24.9518 14.9562C24.4199 14.9558 23.8906 15.0296 23.3791 15.1756V14.8173C23.3786 14.3044 23.1746 13.8127 22.8119 13.45C22.4492 13.0874 21.9575 12.8834 21.4446 12.8828H12.2938C11.781 12.8834 11.2892 13.0874 10.9266 13.45C10.5639 13.8127 10.3599 14.3044 10.3594 14.8173V20.1159C10.3599 20.6287 10.5639 21.1204 10.9266 21.4831C11.2892 21.8458 11.781 22.0498 12.2938 22.0503H14.1101V23.5025C14.1101 23.5881 14.1335 23.672 14.1778 23.7453C14.2222 23.8185 14.2857 23.8781 14.3615 23.9178C14.4374 23.9575 14.5226 23.9757 14.608 23.9703C14.6935 23.965 14.7758 23.9364 14.8461 23.8876L17.4919 22.0503H20.6419C21.5629 23.3003 23.1502 24.1284 24.9515 24.1284C25.9247 24.1284 27.1368 23.6905 27.7322 23.3902C28.4027 23.7949 29.1666 24.0192 29.9495 24.041C30.0721 24.0559 30.1963 24.0359 30.308 23.9833C30.4196 23.9307 30.5142 23.8476 30.5808 23.7437C30.6473 23.6397 30.6832 23.5191 30.6843 23.3957C30.6854 23.2722 30.6516 23.151 30.5868 23.0459C30.1148 22.2796 29.7794 21.6254 29.6906 21.3653V21.3653ZM17.3454 21.1125C17.2498 21.1125 17.1565 21.1417 17.078 21.1963L15.0476 22.606V21.5812C15.0476 21.4569 14.9982 21.3377 14.9103 21.2498C14.8224 21.1619 14.7031 21.1125 14.5788 21.1125H12.2938C12.0295 21.1122 11.7761 21.0071 11.5892 20.8202C11.4023 20.6333 11.2972 20.3799 11.2969 20.1155V14.817C11.2972 14.5526 11.4023 14.2992 11.5892 14.1123C11.7761 13.9254 12.0295 13.8203 12.2938 13.82H21.4446C21.7089 13.8203 21.9624 13.9254 22.1493 14.1123C22.3362 14.2992 22.4413 14.5526 22.4416 14.817V15.5395C20.8675 16.3251 19.8006 17.8245 19.8006 19.5422C19.8007 20.0809 19.9065 20.6144 20.1119 21.1125H17.3454ZM29.1999 22.997C28.8312 22.9039 28.4794 22.7535 28.1575 22.5511C28.0392 22.4777 27.9038 22.4366 27.7646 22.432C27.6255 22.4274 27.4876 22.4594 27.3648 22.5249C26.7616 22.8452 25.6676 23.1909 24.9518 23.1909C22.6284 23.1909 20.7381 21.5541 20.7381 19.5425C20.7381 17.5309 22.6287 15.8941 24.9518 15.8941C27.2748 15.8941 29.1655 17.5309 29.1655 19.5425C29.1655 20.1416 29.1116 20.5316 28.8171 21.0004C28.6949 21.1947 28.5456 21.4327 29.5005 23.0592C29.3993 23.0426 29.2991 23.0218 29.1999 22.997Z" fill="#4AC328"/>
<path d="M24.8852 16.6349C24.6563 16.6317 24.4289 16.674 24.2165 16.7594C24.004 16.8448 23.8106 16.9715 23.6476 17.1323C23.4845 17.2931 23.355 17.4846 23.2667 17.6959C23.1783 17.9071 23.1328 18.1338 23.1328 18.3628C23.1328 18.4871 23.1822 18.6064 23.2701 18.6943C23.358 18.7822 23.4772 18.8316 23.6016 18.8316C23.7259 18.8316 23.8451 18.7822 23.933 18.6943C24.0209 18.6064 24.0703 18.4871 24.0703 18.3628C24.0703 18.2581 24.0911 18.1543 24.1315 18.0576C24.1719 17.961 24.2312 17.8733 24.3058 17.7998C24.3804 17.7262 24.4689 17.6682 24.5662 17.6292C24.6634 17.5901 24.7674 17.5708 24.8722 17.5724C25.0697 17.5747 25.2592 17.6508 25.4034 17.7858C25.5476 17.9209 25.636 18.105 25.6513 18.3019C25.6665 18.4989 25.6075 18.6944 25.4858 18.85C25.3641 19.0056 25.1886 19.11 24.9937 19.1427C24.8257 19.1703 24.6729 19.2567 24.5628 19.3865C24.4526 19.5164 24.3921 19.6811 24.3922 19.8514V20.5203C24.3922 20.6446 24.4416 20.7638 24.5295 20.8517C24.6174 20.9396 24.7366 20.989 24.8609 20.989C24.9853 20.989 25.1045 20.9396 25.1924 20.8517C25.2803 20.7638 25.3297 20.6446 25.3297 20.5203V20.0271C25.6972 19.9254 26.0204 19.7042 26.2484 19.3985C26.4763 19.0928 26.5961 18.72 26.5887 18.3387C26.5796 17.8897 26.3972 17.4617 26.0797 17.1442C25.7622 16.8266 25.3342 16.6442 24.8852 16.6349V16.6349ZM24.88 21.4699C24.769 21.4699 24.6605 21.5028 24.5682 21.5645C24.4759 21.6262 24.4039 21.7139 24.3615 21.8164C24.319 21.919 24.3079 22.0319 24.3295 22.1407C24.3512 22.2496 24.4047 22.3496 24.4832 22.4281C24.5617 22.5066 24.6617 22.5601 24.7706 22.5817C24.8795 22.6034 24.9923 22.5923 25.0949 22.5498C25.1975 22.5073 25.2851 22.4353 25.3468 22.343C25.4085 22.2507 25.4414 22.1422 25.4414 22.0312C25.4412 21.8824 25.382 21.7397 25.2768 21.6344C25.1715 21.5292 25.0288 21.47 24.88 21.4699Z" fill="#4AC328"/>
<path d="M7.08187 26.8784H33.2592C33.4719 26.8782 33.6758 26.7937 33.8262 26.6435C33.9767 26.4932 34.0613 26.2894 34.0617 26.0767V10.1766C34.0614 9.96399 33.9767 9.76017 33.8262 9.60988C33.6758 9.45959 33.4719 9.37512 33.2592 9.375H7.08187C6.86922 9.37512 6.66529 9.45959 6.51483 9.60988C6.36438 9.76016 6.27967 9.96398 6.2793 10.1766V26.0767C6.27969 26.2894 6.3644 26.4932 6.51486 26.6435C6.66531 26.7937 6.86922 26.8782 7.08187 26.8784V26.8784ZM7.2168 10.3125H33.1242V25.9409H7.2168V10.3125Z" fill="#4AC328"/>
<path d="M37.1356 28.8392V8.48906C37.1343 7.87409 36.8891 7.28476 36.4538 6.85035C36.0185 6.41594 35.4287 6.17194 34.8137 6.17188H5.52786C4.91291 6.17196 4.32309 6.41597 3.88782 6.85037C3.45255 7.28478 3.20737 7.87411 3.20606 8.48906V28.8033C2.54705 28.8265 1.92355 29.1077 1.47002 29.5865C1.01649 30.0652 0.769282 30.7029 0.781696 31.3622C0.79411 32.0215 1.06515 32.6496 1.53638 33.1109C2.0076 33.5722 2.64125 33.8298 3.30067 33.8281H36.7007C37.3304 33.8296 37.9377 33.5947 38.4025 33.1697C38.8672 32.7448 39.1554 32.1608 39.2101 31.5335C39.2648 30.9061 39.082 30.2811 38.6978 29.7822C38.3136 29.2832 37.7561 28.9467 37.1356 28.8392V28.8392ZM5.52786 7.10938H34.8137C35.1801 7.10917 35.5317 7.25431 35.7912 7.51296C36.0507 7.77161 36.1971 8.12265 36.1981 8.48906V28.8009H25.3408C24.9711 28.801 24.6167 28.9477 24.3551 29.2088C24.0935 29.47 23.9462 29.8242 23.9454 30.1938C23.945 30.3149 23.8966 30.4308 23.8108 30.5162C23.7249 30.6016 23.6088 30.6495 23.4877 30.6493H16.0754C15.9543 30.6495 15.8381 30.6016 15.7523 30.5162C15.6664 30.4309 15.618 30.3149 15.6175 30.1938C15.6168 29.8242 15.4695 29.47 15.2079 29.2088C14.9463 28.9477 14.5919 28.801 14.2222 28.8009H4.14356V8.48906C4.1446 8.12267 4.29092 7.77164 4.55044 7.51299C4.80995 7.25434 5.16146 7.10919 5.52786 7.10938ZM37.821 32.4266C37.6742 32.5742 37.4996 32.6912 37.3073 32.7709C37.115 32.8505 36.9088 32.8912 36.7007 32.8906H3.30067C3.09276 32.8921 2.88661 32.8524 2.6941 32.7738C2.50159 32.6953 2.32652 32.5794 2.17899 32.4329C2.03145 32.2864 1.91435 32.1122 1.83445 31.9202C1.75454 31.7283 1.71341 31.5224 1.71341 31.3145C1.71341 31.1066 1.75454 30.9007 1.83445 30.7088C1.91435 30.5168 2.03145 30.3426 2.17899 30.1961C2.32652 30.0496 2.50159 29.9337 2.6941 29.8551C2.88661 29.7766 3.09276 29.7369 3.30067 29.7384H14.2225C14.3436 29.7382 14.4598 29.7861 14.5456 29.8714C14.6315 29.9568 14.6799 30.0728 14.6804 30.1938C14.6811 30.5635 14.8284 30.9177 15.09 31.1789C15.3515 31.44 15.706 31.5867 16.0757 31.5868H23.488C23.8576 31.5867 24.2121 31.4399 24.4737 31.1788C24.7352 30.9177 24.8825 30.5634 24.8833 30.1938C24.8837 30.0728 24.9322 29.9568 25.018 29.8714C25.1038 29.7861 25.22 29.7382 25.3411 29.7384H36.7007C37.1189 29.7383 37.5202 29.9039 37.8165 30.1991C38.1129 30.4942 38.2803 30.8947 38.2819 31.313C38.2826 31.5199 38.2422 31.7248 38.1631 31.916C38.084 32.1071 37.9677 32.2807 37.821 32.4266V32.4266Z" fill="#4AC328"/>
<path d="M18.4715 15.7148C18.4715 15.5905 18.4221 15.4713 18.3342 15.3834C18.2463 15.2955 18.1271 15.2461 18.0027 15.2461H13.3887C13.2644 15.2461 13.1451 15.2955 13.0572 15.3834C12.9693 15.4713 12.9199 15.5905 12.9199 15.7148C12.9199 15.8392 12.9693 15.9584 13.0572 16.0463C13.1451 16.1342 13.2644 16.1836 13.3887 16.1836H18.0027C18.1271 16.1836 18.2463 16.1342 18.3342 16.0463C18.4221 15.9584 18.4715 15.8392 18.4715 15.7148V15.7148ZM20.8152 15.7148C20.8152 15.5905 20.7658 15.4713 20.6779 15.3834C20.59 15.2955 20.4708 15.2461 20.3465 15.2461H19.6387C19.5144 15.2461 19.3951 15.2955 19.3072 15.3834C19.2193 15.4713 19.1699 15.5905 19.1699 15.7148C19.1699 15.8392 19.2193 15.9584 19.3072 16.0463C19.3951 16.1342 19.5144 16.1836 19.6387 16.1836H20.3465C20.4708 16.1836 20.59 16.1342 20.6779 16.0463C20.7658 15.9584 20.8152 15.8392 20.8152 15.7148V15.7148ZM14.0965 17.5898H13.3887C13.2644 17.5898 13.1451 17.6392 13.0572 17.7271C12.9693 17.815 12.9199 17.9343 12.9199 18.0586C12.9199 18.1829 12.9693 18.3021 13.0572 18.3901C13.1451 18.478 13.2644 18.5273 13.3887 18.5273H14.0965C14.2208 18.5273 14.34 18.478 14.4279 18.3901C14.5158 18.3021 14.5652 18.1829 14.5652 18.0586C14.5652 17.9343 14.5158 17.815 14.4279 17.7271C14.34 17.6392 14.2208 17.5898 14.0965 17.5898V17.5898ZM18.784 17.5898H15.7324C15.6081 17.5898 15.4889 17.6392 15.401 17.7271C15.3131 17.815 15.2637 17.9343 15.2637 18.0586C15.2637 18.1829 15.3131 18.3021 15.401 18.3901C15.4889 18.478 15.6081 18.5273 15.7324 18.5273H18.784C18.9083 18.5273 19.0275 18.478 19.1154 18.3901C19.2033 18.3021 19.2527 18.1829 19.2527 18.0586C19.2527 17.9343 19.2033 17.815 19.1154 17.7271C19.0275 17.6392 18.9083 17.5898 18.784 17.5898V17.5898Z" fill="#4AC328"/>
</svg>
