<svg width="40" height="40" viewBox="0 0 40 40" fill="none" xmlns="http://www.w3.org/2000/svg">
<path d="M20.5285 7.11834C20.4109 6.94187 20.2344 6.82422 19.9991 6.82422C19.7638 6.82422 19.5873 6.94187 19.4697 7.11834C15.1756 15.5889 15.5285 14.9419 15.5285 15.0595V37.3536C15.5285 38.4713 16.4697 39.4125 17.5873 39.4125H22.4109C23.5285 39.4125 24.4697 38.4713 24.4697 37.3536C24.4697 13.5301 24.5285 14.9419 24.352 14.7066L20.5285 7.11834ZM19.9991 8.70657L21.2932 11.236C20.4697 11.5301 19.5285 11.5301 18.705 11.236L19.9991 8.70657ZM18.1756 12.2948C19.352 12.7066 20.6462 12.7066 21.8226 12.2948L22.9403 14.4713H17.0579L18.1756 12.2948ZM16.705 15.6477H19.4109V32.6478H16.705V15.6477ZM23.2932 37.3536C23.2932 37.8242 22.8815 38.236 22.4109 38.236H17.5873C17.1168 38.236 16.705 37.8242 16.705 37.3536V33.8242H23.2932V37.3536ZM23.2932 32.6478H20.5873V15.6477H23.2932V32.6478Z" fill="#4AC328"/>
<path d="M32.8816 5.41142C34.2345 5.41142 35.2933 4.3526 35.2933 2.99966C35.2933 1.64671 34.2345 0.587891 32.8816 0.587891C31.7639 0.587891 30.8815 1.3526 30.5874 2.41142H22.411V1.17613C22.411 0.823185 22.1757 0.587891 21.8227 0.587891H18.2345C17.8815 0.587891 17.6463 0.823185 17.6463 1.17613V2.41142H9.41096C9.11684 1.3526 8.23449 0.587891 7.05802 0.587891C5.7639 0.587891 4.70508 1.64671 4.70508 2.99966C4.70508 4.29377 5.7639 5.41142 7.05802 5.41142C8.17567 5.41142 9.11684 4.64671 9.35214 3.58789H14.4698C10.4698 5.3526 7.46978 9.05848 6.64625 13.5291H5.29331C4.94037 13.5291 4.70508 13.7644 4.70508 14.1173V17.7055C4.70508 18.0585 4.94037 18.2938 5.29331 18.2938H8.94037C9.29331 18.2938 9.52861 18.0585 9.52861 17.7055V14.1173C9.52861 13.7644 9.29331 13.5291 8.94037 13.5291H7.94037C8.88155 8.64671 12.7639 4.82318 17.6463 3.82318V4.82318C17.6463 5.17613 17.8815 5.41142 18.2345 5.41142H21.8227C22.1757 5.41142 22.411 5.17613 22.411 4.82318V3.82318C27.2933 4.76436 31.1168 8.64671 32.1168 13.5291H31.1168C30.7639 13.5291 30.5286 13.7644 30.5286 14.1173V17.7055C30.5286 18.0585 30.7639 18.2938 31.1168 18.2938H34.7051C35.058 18.2938 35.2933 18.0585 35.2933 17.7055V14.1173C35.2933 13.7644 35.058 13.5291 34.7051 13.5291H33.2345C32.411 9.05848 29.4698 5.41142 25.411 3.58789H30.5874C30.8815 4.58789 31.7639 5.41142 32.8816 5.41142ZM32.9404 1.76436C33.5874 1.76436 34.1168 2.29377 34.1168 2.99966C34.1168 3.64671 33.5874 4.23495 32.8816 4.23495C32.2345 4.23495 31.6463 3.70554 31.6463 2.99966C31.7051 2.29377 32.2345 1.76436 32.9404 1.76436ZM7.11684 4.23495C6.41096 4.23495 5.88155 3.70554 5.88155 2.99966C5.88155 2.29377 6.41096 1.76436 7.11684 1.76436C7.7639 1.76436 8.35214 2.29377 8.35214 2.99966C8.29331 3.64671 7.7639 4.23495 7.11684 4.23495ZM8.29331 14.7055V17.1173H5.88155V14.7055H8.29331ZM21.2345 4.23495H18.8227V1.76436H21.2345V4.23495ZM34.1168 14.7055V17.1173H31.6463V14.7055H34.1168Z" fill="#4AC328"/>
</svg>
