<svg width="41" height="36" viewBox="0 0 41 36" fill="none" xmlns="http://www.w3.org/2000/svg">
<path d="M20.1573 21.6718C18.1299 21.6718 16.4864 20.0283 16.4864 18.0009C16.4864 15.9736 18.1299 14.3301 20.1573 14.3301C22.1846 14.3301 23.8281 15.9736 23.8281 18.0009C23.8281 20.0283 22.1846 21.6718 20.1573 21.6718Z" fill="#4AC328"/>
<path d="M6.21427 11.9463C6.92268 11.6887 7.66329 11.4311 8.4361 11.2057C8.2429 10.4329 8.0819 9.66011 7.95309 8.9195C7.27689 4.66905 8.01749 1.67442 10.0783 0.515206C10.6901 0.161002 11.3663 0 12.1391 0C14.3932 0 17.259 1.67442 20.157 4.47585C23.0551 1.67442 25.9209 0 28.1749 0C28.9477 0 29.6239 0.161002 30.2357 0.515206C32.2966 1.70662 33.0372 4.70125 32.361 8.9195C32.2322 9.66011 32.0712 10.4329 31.878 11.2057C32.6508 11.4311 33.3914 11.6565 34.0998 11.9463C38.1248 13.4919 40.3145 15.6172 40.3145 18C40.3145 20.3828 38.0926 22.5081 34.0998 24.0537C33.3914 24.3113 32.6508 24.5689 31.878 24.7943C32.0712 25.5671 32.2322 26.3399 32.361 27.0805C33.0372 31.3309 32.2966 34.3256 30.2357 35.4848C29.6239 35.839 28.9477 36 28.1749 36C25.8887 36 23.0229 34.3256 20.157 31.5242C17.259 34.3256 14.3932 36 12.1391 36C11.3663 36 10.6901 35.839 10.0783 35.4848C8.01749 34.2934 7.27689 31.2987 7.95309 27.0805C8.0819 26.3399 8.2429 25.5671 8.4361 24.7943C7.66329 24.5689 6.92268 24.3435 6.21427 24.0537C2.18923 22.5081 -0.000393254 20.3828 -0.000393254 18C-0.000393254 15.6172 2.18923 13.4919 6.21427 11.9463ZM10.9799 2.12522C9.65971 2.89803 9.20891 5.28086 9.75631 8.6619C9.85291 9.3381 10.0139 10.0465 10.2071 10.7871C11.8815 10.4007 13.6526 10.1431 15.5202 9.98211C16.615 8.43649 17.742 7.05188 18.869 5.79606C16.4862 3.44544 14.0712 1.83542 12.1069 1.83542C11.6883 1.83542 11.3019 1.93202 10.9799 2.12522V2.12522ZM14.5864 21.22C15.166 22.2504 15.8422 23.2809 16.5506 24.3113C17.742 24.4079 18.9334 24.4401 20.157 24.4401C21.4128 24.4401 22.6043 24.4079 23.7635 24.3113C24.4719 23.2809 25.1159 22.2504 25.6955 21.22C26.3073 20.1574 26.8869 19.0626 27.4021 18C26.8869 16.9374 26.3073 15.8426 25.6955 14.78C25.1159 13.7496 24.4397 12.7191 23.7313 11.6887C22.5399 11.5921 21.3484 11.5599 20.1248 11.5599C18.869 11.5599 17.6776 11.5921 16.5184 11.6887C15.81 12.7191 15.166 13.7496 14.5864 14.78C13.9746 15.8426 13.395 16.9374 12.8797 18C13.4272 19.0626 13.9746 20.1252 14.5864 21.22ZM11.9137 20.1574C11.4307 21.2844 11.0443 22.3792 10.6901 23.4741C11.7849 23.7317 12.9442 23.9249 14.1678 24.0859C13.7814 23.4741 13.3628 22.8301 13.0086 22.1538C12.6221 21.4776 12.2679 20.8014 11.9137 20.1574ZM20.157 28.8837C20.9298 28.0465 21.6704 27.1449 22.3789 26.2111C21.6382 26.2433 20.8976 26.2755 20.157 26.2755C19.4164 26.2755 18.6758 26.2433 17.9352 26.2111C18.6436 27.1449 19.3842 28.0465 20.157 28.8837ZM26.1463 24.0537C27.3699 23.8927 28.5291 23.6995 29.6239 23.4419C29.2697 22.3792 28.8833 21.2522 28.4003 20.1252C28.0461 20.7692 27.6919 21.4454 27.3055 22.0894C26.9191 22.7979 26.5327 23.4097 26.1463 24.0537V24.0537ZM28.4003 15.8426C28.8833 14.7156 29.2697 13.6208 29.6239 12.5259C28.5291 12.2683 27.3699 12.0751 26.1463 11.9141C26.5327 12.5259 26.9513 13.1699 27.3055 13.8462C27.6919 14.5224 28.0461 15.1986 28.4003 15.8426V15.8426ZM20.157 7.11628C19.3842 7.95349 18.6436 8.8551 17.9352 9.78891C18.6758 9.75671 19.4164 9.72451 20.157 9.72451C20.8976 9.72451 21.6382 9.75671 22.3789 9.78891C21.6704 8.8551 20.9298 7.95349 20.157 7.11628V7.11628ZM13.0086 13.8784L14.1678 11.9463C12.9442 12.1073 11.7849 12.3005 10.6901 12.5581C11.0443 13.6208 11.4307 14.7478 11.9137 15.8748C12.2679 15.1986 12.6221 14.5224 13.0086 13.8784V13.8784ZM30.5577 8.6619C31.1052 5.28086 30.6543 2.89803 29.3341 2.12522C29.0121 1.93202 28.6257 1.83542 28.2071 1.83542C26.2751 1.83542 23.8601 3.41324 21.445 5.79606C22.5721 7.01968 23.6991 8.43649 24.7939 9.98211C26.6615 10.1431 28.4325 10.4329 30.1069 10.7871C30.3001 10.0465 30.4289 9.3381 30.5577 8.6619ZM38.5112 18C38.5112 16.4866 36.6758 14.8766 33.4558 13.6852C32.8118 13.4275 32.1034 13.2021 31.395 13.0089C30.8797 14.619 30.2357 16.3256 29.4629 18.0322C30.2357 19.7388 30.9119 21.4132 31.395 23.0233C35.8386 21.7352 38.5112 19.8032 38.5112 18V18ZM29.3341 33.8748C30.6543 33.102 31.1052 30.7191 30.5577 27.3381C30.4611 26.6619 30.3001 25.9535 30.1069 25.2129C28.4325 25.5993 26.6615 25.8569 24.7939 26.0179C23.6991 27.5635 22.5721 28.9481 21.445 30.2039C23.8279 32.5546 26.2429 34.1646 28.2071 34.1646C28.6257 34.1646 29.0121 34.068 29.3341 33.8748ZM9.75631 27.3381C9.20891 30.7191 9.65971 33.102 10.9799 33.8748C11.3019 34.068 11.6883 34.1646 12.1069 34.1646C14.039 34.1646 16.454 32.5868 18.869 30.2039C17.742 28.9803 16.615 27.5635 15.5202 26.0179C13.6526 25.8569 11.8815 25.5671 10.2071 25.2129C10.0139 25.9535 9.88511 26.6619 9.75631 27.3381V27.3381ZM6.85828 22.3148C7.50229 22.5725 8.2107 22.7979 8.9191 22.9911C9.43431 21.381 10.0783 19.6744 10.8511 17.9678C10.0783 16.2612 9.40211 14.5868 8.9191 12.9767C4.47546 14.2648 1.80283 16.1968 1.80283 18C1.80283 19.5134 3.67045 21.1234 6.85828 22.3148V22.3148Z" fill="#4AC328"/>
</svg>
