<svg width="40" height="40" viewBox="0 0 40 40" fill="none" xmlns="http://www.w3.org/2000/svg">
<g clip-path="url(#clip0_203_218)">
<path d="M25.3873 14.6121C29.9457 19.1751 29.8831 26.4908 25.4148 30.984C25.4059 30.9936 25.3967 31.003 25.3873 31.0122L20.2604 36.1391C15.7384 40.6611 8.38147 40.6604 3.86021 36.1391C-0.661738 31.6179 -0.661738 24.2602 3.86021 19.739L6.69115 16.9081C7.44186 16.1574 8.73475 16.6563 8.7735 17.7172C8.82295 19.0693 9.06537 20.4277 9.51279 21.7395C9.66428 22.1837 9.55607 22.675 9.2242 23.0069L8.22576 24.0054C6.08756 26.1436 6.02045 29.6251 8.13764 31.7843C10.2757 33.9647 13.79 33.9776 15.9444 31.8232L21.0714 26.697C23.2222 24.5462 23.2132 21.0698 21.0714 18.928C20.789 18.6462 20.5046 18.4272 20.2824 18.2743C20.1252 18.1663 19.9954 18.0232 19.9034 17.8562C19.8114 17.6892 19.7597 17.503 19.7524 17.3125C19.7222 16.5063 20.0079 15.6755 20.6449 15.0385L22.2512 13.4322C22.6725 13.0109 23.3333 12.9592 23.8217 13.3001C24.381 13.6907 24.9049 14.1297 25.3873 14.6121V14.6121Z" fill="#4AC328"/>
<path d="M36.1407 3.85998C31.6194 -0.661348 24.2625 -0.661973 19.7405 3.85998L14.6136 8.98693C14.6044 8.99607 14.5945 9.006 14.5861 9.01514C10.1179 13.5083 10.0552 20.824 14.6136 25.387C15.096 25.8694 15.6199 26.3084 16.1792 26.699C16.6676 27.0398 17.3285 26.988 17.7497 26.5669L19.356 24.9606C19.993 24.3236 20.2787 23.4928 20.2485 22.6866C20.2412 22.4961 20.1895 22.3099 20.0975 22.143C20.0054 21.976 19.8757 21.8328 19.7185 21.7249C19.4963 21.5719 19.2119 21.3529 18.9295 21.0712C16.7877 18.9294 16.7787 15.453 18.9295 13.3022L24.0565 8.176C26.2109 6.02154 29.7251 6.03451 31.8633 8.2149C33.9804 10.374 33.9134 13.8556 31.7751 15.9938L30.7767 16.9922C30.4448 17.3241 30.3365 17.8154 30.4881 18.2597C30.9355 19.5715 31.1779 20.9299 31.2274 22.2819C31.2662 23.3429 32.559 23.8419 33.3097 23.0911L36.1407 20.2601C40.6626 15.7389 40.6626 8.38115 36.1407 3.85998V3.85998Z" fill="#4AC328"/>
</g>
<defs>
<clipPath id="clip0_203_218">
<rect width="40" height="40" fill="white"/>
</clipPath>
</defs>
</svg>
