<svg width="40" height="40" viewBox="0 0 40 40" fill="none" xmlns="http://www.w3.org/2000/svg">
<g clip-path="url(#clip0_207_178)">
<path fill-rule="evenodd" clip-rule="evenodd" d="M24.3767 14.7819V2.08398C24.3767 1.5867 24.1791 1.10979 23.8275 0.758159C23.4759 0.406528 22.999 0.208984 22.5017 0.208984H5.06836C4.57108 0.208984 4.09416 0.406528 3.74253 0.758159C3.3909 1.10979 3.19336 1.5867 3.19336 2.08398V37.9173C3.19336 38.4146 3.3909 38.8915 3.74253 39.2431C4.09416 39.5948 4.57108 39.7923 5.06836 39.7923H22.5017C22.999 39.7923 23.4759 39.5948 23.8275 39.2431C24.1791 38.8915 24.3767 38.4146 24.3767 37.9173V27.2794C24.3767 27.1136 24.3108 26.9547 24.1936 26.8375C24.0764 26.7202 23.9175 26.6544 23.7517 26.6544C23.5859 26.6544 23.427 26.7202 23.3098 26.8375C23.1925 26.9547 23.1267 27.1136 23.1267 27.2794V37.9173C23.1267 38.0831 23.0608 38.242 22.9436 38.3593C22.8264 38.4765 22.6675 38.5423 22.5017 38.5423H5.06836C4.9026 38.5423 4.74363 38.4765 4.62642 38.3593C4.50921 38.242 4.44336 38.0831 4.44336 37.9173V2.08398C4.44336 1.91822 4.50921 1.75925 4.62642 1.64204C4.74363 1.52483 4.9026 1.45898 5.06836 1.45898H22.5017C22.5838 1.45893 22.6651 1.47506 22.7409 1.50645C22.8168 1.53784 22.8857 1.58387 22.9438 1.64192C23.0018 1.69997 23.0478 1.76889 23.0792 1.84474C23.1106 1.9206 23.1267 2.00189 23.1267 2.08398V14.7819C23.1267 14.9477 23.1925 15.1066 23.3098 15.2238C23.427 15.3411 23.5859 15.4069 23.7517 15.4069C23.9175 15.4069 24.0764 15.3411 24.1936 15.2238C24.3108 15.1066 24.3767 14.9477 24.3767 14.7819V14.7819Z" fill="#4AC328"/>
<path fill-rule="evenodd" clip-rule="evenodd" d="M6.83854 36.2836H8.87521C9.04097 36.2836 9.19994 36.2177 9.31715 36.1005C9.43436 35.9833 9.50021 35.8243 9.50021 35.6586C9.50021 35.4928 9.43436 35.3338 9.31715 35.2166C9.19994 35.0994 9.04097 35.0336 8.87521 35.0336H6.83854C6.67278 35.0336 6.51381 35.0994 6.3966 35.2166C6.27939 35.3338 6.21354 35.4928 6.21354 35.6586C6.21354 35.8243 6.27939 35.9833 6.3966 36.1005C6.51381 36.2177 6.67278 36.2836 6.83854 36.2836ZM6.83854 25.6527H12.3506C12.5164 25.6527 12.6754 25.5869 12.7926 25.4697C12.9098 25.3525 12.9756 25.1935 12.9756 25.0277C12.9756 24.862 12.9098 24.703 12.7926 24.5858C12.6754 24.4686 12.5164 24.4027 12.3506 24.4027H6.83854C6.67673 24.4086 6.52352 24.4771 6.41113 24.5936C6.29875 24.7102 6.23595 24.8658 6.23595 25.0277C6.23595 25.1897 6.29875 25.3453 6.41113 25.4618C6.52352 25.5784 6.67673 25.6468 6.83854 25.6527V25.6527ZM6.83854 28.199H12.3506C12.5164 28.199 12.6754 28.1331 12.7926 28.0159C12.9098 27.8987 12.9756 27.7397 12.9756 27.574C12.9756 27.4082 12.9098 27.2493 12.7926 27.132C12.6754 27.0148 12.5164 26.949 12.3506 26.949H6.83854C6.67278 26.949 6.51381 27.0148 6.3966 27.132C6.27939 27.2493 6.21354 27.4082 6.21354 27.574C6.21354 27.7397 6.27939 27.8987 6.3966 28.0159C6.51381 28.1331 6.67278 28.199 6.83854 28.199ZM6.83854 30.7448H12.3506C12.5164 30.7448 12.6754 30.679 12.7926 30.5618C12.9098 30.4445 12.9756 30.2856 12.9756 30.1198C12.9756 29.9541 12.9098 29.7951 12.7926 29.6779C12.6754 29.5607 12.5164 29.4948 12.3506 29.4948H6.83854C6.67278 29.4948 6.51381 29.5607 6.3966 29.6779C6.27939 29.7951 6.21354 29.9541 6.21354 30.1198C6.21354 30.2856 6.27939 30.4445 6.3966 30.5618C6.51381 30.679 6.67278 30.7448 6.83854 30.7448ZM18.6952 36.2836H20.7319C20.8976 36.2836 21.0566 36.2177 21.1738 36.1005C21.291 35.9833 21.3569 35.8243 21.3569 35.6586C21.3569 35.4928 21.291 35.3338 21.1738 35.2166C21.0566 35.0994 20.8976 35.0336 20.7319 35.0336H18.6952C18.5334 35.0395 18.3802 35.1079 18.2678 35.2245C18.1554 35.341 18.0926 35.4967 18.0926 35.6586C18.0926 35.8205 18.1554 35.9761 18.2678 36.0927C18.3802 36.2092 18.5334 36.2777 18.6952 36.2836ZM12.7669 36.2836H14.8035C14.9693 36.2836 15.1283 36.2177 15.2455 36.1005C15.3627 35.9833 15.4285 35.8243 15.4285 35.6586C15.4285 35.4928 15.3627 35.3338 15.2455 35.2166C15.1283 35.0994 14.9693 35.0336 14.8035 35.0336H12.7669C12.6011 35.0336 12.4421 35.0994 12.3249 35.2166C12.2077 35.3338 12.1419 35.4928 12.1419 35.6586C12.1419 35.8243 12.2077 35.9833 12.3249 36.1005C12.4421 36.2177 12.6011 36.2836 12.7669 36.2836ZM13.246 4.89648H14.3244C14.4901 4.89648 14.6491 4.83064 14.7663 4.71343C14.8835 4.59622 14.9494 4.43724 14.9494 4.27148C14.9494 4.10572 14.8835 3.94675 14.7663 3.82954C14.6491 3.71233 14.4901 3.64648 14.3244 3.64648H13.246C13.0803 3.64648 12.9213 3.71233 12.8041 3.82954C12.6869 3.94675 12.621 4.10572 12.621 4.27148C12.621 4.43724 12.6869 4.59622 12.8041 4.71343C12.9213 4.83064 13.0803 4.89648 13.246 4.89648ZM26.2098 22.3402C26.2001 22.3306 26.1931 22.3185 26.1896 22.3052C26.1861 22.292 26.1862 22.278 26.1898 22.2648C26.3808 21.3756 26.3459 20.4526 26.0882 19.5803C25.8306 18.708 25.3584 17.9142 24.7148 17.2715C23.6976 16.2521 22.3174 15.678 20.8773 15.6752C20.6235 15.6734 20.375 15.747 20.1632 15.8868C19.9514 16.0266 19.786 16.2263 19.688 16.4603C19.59 16.6944 19.5638 16.9523 19.6128 17.2013C19.6618 17.4503 19.7838 17.6791 19.9631 17.8586C20.4944 18.3927 21.0619 18.9602 21.0619 18.9602C21.1328 19.0312 21.1891 19.1154 21.2276 19.2081C21.266 19.3008 21.2857 19.4001 21.2857 19.5004C21.2857 19.6008 21.266 19.7001 21.2276 19.7928C21.1891 19.8855 21.1328 19.9697 21.0619 20.0407L19.7702 21.3323C19.6993 21.4033 19.6151 21.4596 19.5225 21.498C19.4298 21.5364 19.3305 21.5561 19.2302 21.5561C19.1299 21.5561 19.0306 21.5364 18.9379 21.498C18.8453 21.4596 18.7611 21.4033 18.6902 21.3323L17.5898 20.2319C17.4098 20.0516 17.1801 19.9291 16.93 19.88C16.68 19.831 16.421 19.8576 16.1862 19.9565C15.9514 20.0554 15.7515 20.2221 15.6119 20.4353C15.4723 20.6484 15.3995 20.8984 15.4027 21.1532C15.4086 22.5915 15.9833 23.9692 17.0015 24.9852C17.6449 25.6292 18.4394 26.1017 19.3125 26.3597C20.1855 26.6176 21.1093 26.6528 21.9994 26.4619C22.0115 26.4592 22.0242 26.4597 22.0361 26.4632C22.048 26.4667 22.0589 26.4731 22.0677 26.4819L22.069 26.4827C23.0015 27.4119 26.046 30.4561 27.964 32.374C28.513 32.923 29.2576 33.2314 30.034 33.2314C30.8104 33.2314 31.5549 32.923 32.104 32.374C32.3758 32.1022 32.5914 31.7795 32.7385 31.4244C32.8856 31.0692 32.9613 30.6886 32.9613 30.3042C32.9613 29.9198 32.8856 29.5392 32.7385 29.184C32.5914 28.8289 32.3758 28.5062 32.104 28.2344L26.2098 22.3402V22.3402ZM25.3256 23.224L31.2198 29.1182C31.5343 29.4327 31.711 29.8594 31.711 30.3042C31.711 30.749 31.5343 31.1757 31.2198 31.4902C31.0641 31.646 30.8792 31.7696 30.6758 31.8539C30.4723 31.9382 30.2542 31.9816 30.034 31.9816C29.8137 31.9816 29.5956 31.9382 29.3922 31.8539C29.1887 31.7696 29.0038 31.646 28.8481 31.4902C26.8834 29.5248 24.9177 27.5603 22.951 25.5969C22.7943 25.4405 22.6008 25.3259 22.3884 25.2636C22.1759 25.2013 21.9512 25.1933 21.7348 25.2402C21.0491 25.3865 20.3377 25.3589 19.6653 25.16C18.993 24.9611 18.381 24.5972 17.8852 24.1015C17.0995 23.3167 16.6564 22.2528 16.6527 21.1423V21.1382C16.6527 21.1257 16.6602 21.114 16.6719 21.109C16.6775 21.1067 16.6837 21.1062 16.6897 21.1073C16.6957 21.1085 16.7012 21.1114 16.7056 21.1157L17.806 22.2161C17.993 22.4031 18.215 22.5514 18.4594 22.6526C18.7037 22.7538 18.9655 22.8059 19.23 22.8059C19.4945 22.8059 19.7563 22.7538 20.0006 22.6526C20.245 22.5514 20.467 22.4031 20.654 22.2161L21.946 20.9244C22.3236 20.5467 22.5357 20.0345 22.5357 19.5004C22.5357 18.9664 22.3236 18.4542 21.946 18.0765C21.946 18.0765 21.3794 17.5098 20.8481 16.9761L20.8469 16.9748C20.8427 16.9707 20.8399 16.9655 20.8388 16.9597C20.8377 16.954 20.8383 16.9481 20.8406 16.9427C20.8429 16.9374 20.8467 16.9329 20.8515 16.9298C20.8563 16.9267 20.862 16.9251 20.8677 16.9252H20.8731C21.9444 16.929 23.0144 17.339 23.831 18.1557C24.3269 18.6511 24.6908 19.2628 24.8893 19.9351C25.0879 20.6073 25.1149 21.3186 24.9677 22.004C24.9202 22.221 24.9281 22.4466 24.9906 22.6598C25.0532 22.873 25.1684 23.067 25.3256 23.224V23.224ZM12.9756 8.4694C12.9758 8.27784 12.9382 8.08813 12.865 7.91113C12.7917 7.73412 12.6843 7.57329 12.5489 7.43784C12.4134 7.30239 12.2526 7.19497 12.0756 7.12174C11.8986 7.04851 11.7088 7.0109 11.5173 7.01107H7.44271C7.05594 7.01107 6.685 7.16471 6.41151 7.4382C6.13802 7.71169 5.98438 8.08263 5.98438 8.4694V12.5586C5.98421 12.7501 6.02182 12.9398 6.09505 13.1168C6.16828 13.2939 6.27569 13.4547 6.41115 13.5901C6.5466 13.7256 6.70743 13.833 6.88443 13.9062C7.06144 13.9795 7.25115 14.0171 7.44271 14.0169H11.5173C11.9041 14.0169 12.275 13.8633 12.5485 13.5898C12.822 13.3163 12.9756 12.9453 12.9756 12.5586V8.4694V8.4694ZM11.7256 8.4694V12.5586C11.7256 12.6138 11.7037 12.6668 11.6646 12.7059C11.6255 12.745 11.5725 12.7669 11.5173 12.7669H7.44271C7.38746 12.7669 7.33447 12.745 7.2954 12.7059C7.25633 12.6668 7.23438 12.6138 7.23438 12.5586V8.4694C7.23438 8.41415 7.25633 8.36116 7.2954 8.32209C7.33447 8.28302 7.38746 8.26107 7.44271 8.26107H11.5173C11.5725 8.26107 11.6255 8.28302 11.6646 8.32209C11.7037 8.36116 11.7256 8.41415 11.7256 8.4694ZM12.9756 16.7136C12.9758 16.522 12.9383 16.3323 12.8651 16.1552C12.7919 15.9782 12.6844 15.8173 12.549 15.6819C12.4135 15.5464 12.2527 15.439 12.0756 15.3658C11.8986 15.2926 11.7089 15.255 11.5173 15.2552H7.44271C7.25114 15.255 7.0614 15.2926 6.88437 15.3658C6.70734 15.439 6.54649 15.5464 6.41102 15.6819C6.27556 15.8173 6.16815 15.9782 6.09494 16.1552C6.02173 16.3323 5.98416 16.522 5.98438 16.7136V20.8027C5.98438 21.1895 6.13802 21.5604 6.41151 21.8339C6.685 22.1074 7.05594 22.2611 7.44271 22.2611H11.5173C11.9041 22.2611 12.275 22.1074 12.5485 21.8339C12.822 21.5604 12.9756 21.1895 12.9756 20.8027V16.7136ZM11.7256 16.7136V20.8027C11.7256 20.858 11.7037 20.911 11.6646 20.95C11.6255 20.9891 11.5725 21.0111 11.5173 21.0111H7.44271C7.38746 21.0111 7.33447 20.9891 7.2954 20.95C7.25633 20.911 7.23438 20.858 7.23438 20.8027V16.7136C7.23438 16.6583 7.25633 16.6053 7.2954 16.5663C7.33447 16.5272 7.38746 16.5052 7.44271 16.5052H11.5173C11.5725 16.5052 11.6255 16.5272 11.6646 16.5663C11.7037 16.6053 11.7256 16.6583 11.7256 16.7136ZM21.5865 8.4694C21.5866 8.27786 21.5489 8.08817 21.4757 7.91119C21.4024 7.73421 21.295 7.5734 21.1596 7.43796C21.0241 7.30252 20.8633 7.1951 20.6863 7.12185C20.5094 7.0486 20.3197 7.01096 20.1281 7.01107H16.0531C15.6664 7.01129 15.2956 7.16501 15.0222 7.43845C14.7487 7.71189 14.595 8.0827 14.5948 8.4694V12.5586C14.595 12.9453 14.7487 13.3161 15.0222 13.5895C15.2956 13.863 15.6664 14.0167 16.0531 14.0169H20.1281C20.5149 14.0169 20.8858 13.8633 21.1593 13.5898C21.4328 13.3163 21.5865 12.9453 21.5865 12.5586V8.4694ZM20.3365 8.4694V12.5586C20.3365 12.6138 20.3145 12.6668 20.2754 12.7059C20.2364 12.745 20.1834 12.7669 20.1281 12.7669H16.0531C15.9979 12.7668 15.9449 12.745 15.9056 12.7061C15.8667 12.6668 15.8449 12.6138 15.8448 12.5586V8.4694C15.8448 8.41415 15.8667 8.36116 15.9058 8.32209C15.9449 8.28302 15.9979 8.26107 16.0531 8.26107H20.1281C20.1555 8.26101 20.1826 8.26636 20.2079 8.27681C20.2332 8.28726 20.2562 8.30261 20.2756 8.32197C20.2949 8.34132 20.3103 8.36431 20.3207 8.38961C20.3312 8.41491 20.3365 8.44203 20.3365 8.4694V8.4694ZM32.8615 6.20273V6.05523C32.8615 5.72062 32.7285 5.39971 32.4919 5.1631C32.2553 4.92649 31.9344 4.79357 31.5998 4.79357H30.5748C30.2402 4.79357 29.9193 4.92649 29.6827 5.1631C29.446 5.39971 29.3131 5.72062 29.3131 6.05523V6.20273C29.3131 6.20498 29.3124 6.20717 29.3111 6.20903C29.3099 6.2109 29.3081 6.21236 29.306 6.21324C29.304 6.21412 29.3017 6.21438 29.2995 6.214C29.2973 6.21361 29.2952 6.21259 29.2935 6.21107L29.189 6.1069C29.0718 5.98971 28.9328 5.89674 28.7797 5.83332C28.6266 5.76989 28.4626 5.73724 28.2969 5.73724C28.1312 5.73724 27.9671 5.76989 27.8141 5.83332C27.661 5.89674 27.5219 5.98971 27.4048 6.1069L26.6802 6.83148C26.563 6.94861 26.4701 7.08768 26.4066 7.24075C26.3432 7.39382 26.3106 7.55788 26.3106 7.72357C26.3106 7.88926 26.3432 8.05332 26.4066 8.20639C26.4701 8.35945 26.563 8.49852 26.6802 8.61565L26.7844 8.72023C26.7877 8.72357 26.7885 8.72857 26.7869 8.73273C26.786 8.73482 26.7846 8.73661 26.7828 8.73787C26.7809 8.73913 26.7787 8.73981 26.7765 8.73982H26.6285C26.294 8.73993 25.9732 8.8729 25.7367 9.1095C25.5002 9.3461 25.3673 9.66694 25.3673 10.0015V11.0265C25.3673 11.361 25.5002 11.6819 25.7367 11.9185C25.9732 12.1551 26.294 12.288 26.6285 12.2882H26.776C26.7783 12.2882 26.7805 12.2889 26.7823 12.2901C26.7842 12.2914 26.7857 12.2932 26.7865 12.2952C26.7874 12.2973 26.7877 12.2996 26.7873 12.3018C26.7869 12.304 26.7859 12.3061 26.7844 12.3077L26.6802 12.4123C26.563 12.5294 26.4701 12.6685 26.4066 12.8216C26.3432 12.9746 26.3106 13.1387 26.3106 13.3044C26.3106 13.4701 26.3432 13.6342 26.4066 13.7872C26.4701 13.9403 26.563 14.0794 26.6802 14.1965L27.4048 14.9211C27.5219 15.0383 27.661 15.1312 27.8141 15.1947C27.9671 15.2581 28.1312 15.2907 28.2969 15.2907C28.4626 15.2907 28.6266 15.2581 28.7797 15.1947C28.9328 15.1312 29.0718 15.0383 29.189 14.9211L29.2935 14.8169C29.2952 14.8153 29.2972 14.8142 29.2994 14.8138C29.3016 14.8133 29.3039 14.8136 29.306 14.8144C29.3102 14.8161 29.3131 14.8202 29.3131 14.8248V14.9727C29.3132 15.3073 29.4462 15.6281 29.6828 15.8646C29.9194 16.1011 30.2402 16.234 30.5748 16.234H31.5998C31.9343 16.234 32.2552 16.1011 32.4918 15.8646C32.7284 15.6281 32.8613 15.3073 32.8615 14.9727V14.8248C32.8615 14.8202 32.8644 14.8161 32.8685 14.8144C32.8706 14.8136 32.8729 14.8133 32.8752 14.8138C32.8774 14.8142 32.8794 14.8153 32.881 14.8169L32.9856 14.9211C33.1028 15.0383 33.2418 15.1312 33.3949 15.1947C33.548 15.2581 33.712 15.2907 33.8777 15.2907C34.0434 15.2907 34.2075 15.2581 34.3605 15.1947C34.5136 15.1312 34.6527 15.0383 34.7698 14.9211L35.4944 14.1965C35.6116 14.0794 35.7045 13.9403 35.768 13.7872C35.8314 13.6342 35.864 13.4701 35.864 13.3044C35.864 13.1387 35.8314 12.9746 35.768 12.8216C35.7045 12.6685 35.6116 12.5294 35.4944 12.4123L35.3902 12.3077C35.3887 12.3061 35.3877 12.304 35.3873 12.3018C35.3869 12.2996 35.3872 12.2973 35.388 12.2952C35.3889 12.2932 35.3904 12.2914 35.3922 12.2901C35.3941 12.2889 35.3963 12.2882 35.3985 12.2882H35.546C35.7117 12.2882 35.8758 12.2555 36.0289 12.1921C36.1819 12.1287 36.321 12.0358 36.4382 11.9186C36.5553 11.8015 36.6483 11.6624 36.7117 11.5093C36.7751 11.3562 36.8077 11.1922 36.8077 11.0265V10.0015C36.8077 9.8358 36.7751 9.67174 36.7117 9.51867C36.6483 9.36559 36.5553 9.22651 36.4382 9.10935C36.321 8.99219 36.1819 8.89926 36.0289 8.83586C35.8758 8.77245 35.7117 8.73982 35.546 8.73982H35.3985C35.3963 8.73977 35.3941 8.73908 35.3922 8.73782C35.3904 8.73656 35.3889 8.73479 35.388 8.73272C35.3872 8.73065 35.3869 8.72837 35.3873 8.72616C35.3877 8.72394 35.3887 8.72189 35.3902 8.72023L35.4944 8.61565C35.6116 8.49852 35.7045 8.35945 35.768 8.20639C35.8314 8.05332 35.864 7.88926 35.864 7.72357C35.864 7.55788 35.8314 7.39382 35.768 7.24075C35.7045 7.08768 35.6116 6.94861 35.4944 6.83148L34.7698 6.1069C34.6527 5.98971 34.5136 5.89674 34.3605 5.83332C34.2075 5.76989 34.0434 5.73724 33.8777 5.73724C33.712 5.73724 33.548 5.76989 33.3949 5.83332C33.2418 5.89674 33.1028 5.98971 32.9856 6.1069L32.881 6.21107C32.8794 6.21259 32.8773 6.21361 32.8751 6.214C32.8729 6.21438 32.8706 6.21412 32.8686 6.21324C32.8665 6.21236 32.8647 6.2109 32.8635 6.20903C32.8622 6.20717 32.8615 6.20498 32.8615 6.20273V6.20273ZM31.6115 6.05523V6.20273C31.6119 6.45208 31.6861 6.69571 31.8248 6.90292C31.9635 7.11012 32.1605 7.27161 32.3908 7.36703C32.6212 7.46245 32.8747 7.48751 33.1192 7.43907C33.3638 7.39063 33.5886 7.27084 33.7652 7.09482L33.8694 6.99065C33.8704 6.98955 33.8717 6.98868 33.8731 6.98809C33.8745 6.98749 33.876 6.98718 33.8775 6.98718C33.879 6.98718 33.8805 6.98749 33.8819 6.98809C33.8833 6.98868 33.8846 6.98955 33.8856 6.99065L34.6106 7.71565C34.6117 7.7167 34.6126 7.71796 34.6132 7.71936C34.6138 7.72076 34.6141 7.72226 34.6141 7.72378C34.6141 7.72529 34.6138 7.7268 34.6132 7.72819C34.6126 7.72959 34.6117 7.73085 34.6106 7.7319L34.5065 7.83607C34.3304 8.01267 34.2106 8.23744 34.1622 8.48203C34.1138 8.72662 34.1388 8.98008 34.2342 9.21044C34.3297 9.44081 34.4912 9.63776 34.6984 9.77646C34.9056 9.91516 35.1492 9.9894 35.3985 9.98982H35.546C35.5523 9.98982 35.5577 9.99482 35.5577 10.0015V11.0265C35.5576 11.0295 35.5563 11.0325 35.5542 11.0346C35.552 11.0368 35.5491 11.038 35.546 11.0382H35.3985C35.1492 11.0386 34.9056 11.1128 34.6984 11.2515C34.4912 11.3902 34.3297 11.5872 34.2342 11.8175C34.1388 12.0479 34.1138 12.3013 34.1622 12.5459C34.2106 12.7905 34.3304 13.0153 34.5065 13.1919L34.6106 13.2961C34.6117 13.2971 34.6126 13.2984 34.6132 13.2998C34.6138 13.3012 34.6141 13.3027 34.6141 13.3042C34.6141 13.3057 34.6138 13.3072 34.6132 13.3086C34.6126 13.31 34.6117 13.3113 34.6106 13.3123L33.8856 14.0373C33.8846 14.0384 33.8833 14.0393 33.8819 14.0399C33.8805 14.0405 33.879 14.0408 33.8775 14.0408C33.876 14.0408 33.8745 14.0405 33.8731 14.0399C33.8717 14.0393 33.8704 14.0384 33.8694 14.0373L33.7652 13.9327C33.5887 13.7565 33.3639 13.6365 33.1192 13.588C32.8746 13.5394 32.621 13.5645 32.3906 13.6599C32.1601 13.7554 31.9631 13.9169 31.8245 14.1243C31.6858 14.3316 31.6117 14.5754 31.6115 14.8248V14.9727C31.6115 14.9742 31.6112 14.9757 31.6106 14.9771C31.61 14.9785 31.6091 14.9798 31.608 14.9808C31.6069 14.9819 31.6056 14.9827 31.6042 14.9833C31.6028 14.9838 31.6013 14.984 31.5998 14.984H30.5748C30.5718 14.984 30.5689 14.9828 30.5667 14.9807C30.5645 14.9786 30.5632 14.9758 30.5631 14.9727V14.8248C30.5629 14.5754 30.4888 14.3316 30.3501 14.1243C30.2114 13.9169 30.0145 13.7554 29.784 13.6599C29.5536 13.5645 29.3 13.5394 29.0553 13.588C28.8107 13.6365 28.5859 13.7565 28.4094 13.9327L28.3052 14.0373C28.3042 14.0384 28.3029 14.0393 28.3015 14.0399C28.3001 14.0405 28.2986 14.0408 28.2971 14.0408C28.2956 14.0408 28.2941 14.0405 28.2927 14.0399C28.2913 14.0393 28.29 14.0384 28.289 14.0373L27.564 13.3123C27.5629 13.3113 27.562 13.31 27.5614 13.3086C27.5608 13.3072 27.5605 13.3057 27.5605 13.3042C27.5605 13.3027 27.5608 13.3012 27.5614 13.2998C27.562 13.2984 27.5629 13.2971 27.564 13.2961L27.6681 13.1919C27.8443 13.0154 27.9643 12.7907 28.0129 12.546C28.0614 12.3014 28.0364 12.0479 27.941 11.8175C27.8456 11.587 27.6841 11.39 27.4768 11.2513C27.2696 11.1126 27.0259 11.0385 26.7765 11.0382H26.6285C26.6255 11.038 26.6227 11.0368 26.6206 11.0346C26.6185 11.0324 26.6173 11.0295 26.6173 11.0265V10.0015C26.6173 9.99482 26.6223 9.98982 26.6285 9.98982H26.7765C27.0259 9.98952 27.2696 9.91533 27.4768 9.77663C27.6841 9.63793 27.8456 9.44094 27.941 9.21051C28.0364 8.98008 28.0614 8.72655 28.0129 8.48193C27.9643 8.23731 27.8443 8.01257 27.6681 7.83607L27.564 7.7319C27.5629 7.73085 27.562 7.72959 27.5614 7.72819C27.5608 7.7268 27.5605 7.72529 27.5605 7.72378C27.5605 7.72226 27.5608 7.72076 27.5614 7.71936C27.562 7.71796 27.5629 7.7167 27.564 7.71565L28.289 6.99065C28.29 6.98955 28.2913 6.98868 28.2927 6.98809C28.2941 6.98749 28.2956 6.98718 28.2971 6.98718C28.2986 6.98718 28.3001 6.98749 28.3015 6.98809C28.3029 6.98868 28.3042 6.98955 28.3052 6.99065L28.4094 7.09482C28.586 7.27084 28.8107 7.39063 29.0553 7.43907C29.2999 7.48751 29.5534 7.46245 29.7838 7.36703C30.0141 7.27161 30.2111 7.11012 30.3498 6.90292C30.4885 6.69571 30.5627 6.45208 30.5631 6.20273V6.05523C30.5631 6.04898 30.5685 6.04357 30.5748 6.04357H31.5998C31.6065 6.04357 31.6115 6.04898 31.6115 6.05523V6.05523ZM31.0873 8.48523C30.5493 8.48557 30.0335 8.69941 29.6531 9.07981C29.2727 9.4602 29.0589 9.97603 29.0585 10.514C29.0589 11.0519 29.2727 11.5678 29.6531 11.9482C30.0335 12.3286 30.5493 12.5424 31.0873 12.5427C31.6252 12.5424 32.1411 12.3286 32.5215 11.9482C32.9019 11.5678 33.1157 11.0519 33.116 10.514C33.1157 9.97603 32.9019 9.4602 32.5215 9.07981C32.1411 8.69941 31.6252 8.48557 31.0873 8.48523ZM31.0873 9.73524C31.2894 9.74185 31.4811 9.82679 31.6217 9.97211C31.7623 10.1174 31.841 10.3117 31.841 10.514C31.841 10.7162 31.7623 10.9105 31.6217 11.0559C31.4811 11.2012 31.2894 11.2861 31.0873 11.2927C30.8852 11.2861 30.6935 11.2012 30.5529 11.0559C30.4122 10.9105 30.3336 10.7162 30.3336 10.514C30.3336 10.3117 30.4122 10.1174 30.5529 9.97211C30.6935 9.82679 30.8852 9.74185 31.0873 9.73524Z" fill="#4AC328"/>
</g>
<defs>
<clipPath id="clip0_207_178">
<rect width="40" height="40" fill="white"/>
</clipPath>
</defs>
</svg>
