<svg width="40" height="40" viewBox="0 0 40 40" fill="none" xmlns="http://www.w3.org/2000/svg">
<g clip-path="url(#clip0_207_186)">
<path d="M15.762 31.7949L16.4531 32.2285L18.9134 28.3075L18.2222 27.8738L15.762 31.7949Z" fill="#4AC328"/>
<path d="M17.0538 22.4727H15.8203V23.289H17.0538V22.4727Z" fill="#4AC328"/>
<path d="M14.8363 22.4727H12.8379V23.289H14.8363V22.4727Z" fill="#4AC328"/>
<path d="M36.5673 6.01588H37.1469V5.19955H36.5673H33.8246H33.245V6.01588H33.8246V7.17477L30.8315 4.68935L21.9763 12.0467H24.5206V20.4686H13.48C15.1817 19.0442 16.1484 17.0995 16.1484 15.0501C16.1484 12.6216 14.4839 9.66632 12.799 7.72224C12.9317 7.63384 13.0458 7.52073 13.1381 7.3909L14.9379 8.54077L15.3771 7.85281L13.4818 6.64188L15.3771 5.43094L14.9379 4.74298L13.1381 5.89286C12.9026 5.56184 12.518 5.34388 12.0819 5.34388H11.954C12.7981 4.10486 13.3059 2.54265 13.4921 1.45139C13.5348 1.20147 13.465 0.946366 13.3004 0.751468C13.1334 0.553345 12.8891 0.439753 12.6304 0.439753C12.2183 0.439753 12.1057 0.596243 11.429 1.27881C11.2106 1.49686 10.8295 1.49706 10.6103 1.27784C10.0833 0.750896 9.16414 0.750896 8.63721 1.27784C8.41798 1.49665 8.0377 1.49665 7.81847 1.27784C7.29153 0.750896 6.37235 0.750692 5.84541 1.27804C5.62659 1.49686 5.24512 1.49608 5.02708 1.27804L4.44353 0.694692C3.83304 0.0840391 2.849 0.649917 2.91582 1.38481C3.01561 2.51045 3.47733 4.10204 4.42496 5.34388H4.37549C3.65961 5.34388 3.07725 5.92624 3.07725 6.64192C3.07725 7.09245 3.30847 7.48943 3.65806 7.72228C1.97321 9.66665 0.308594 12.6221 0.308594 15.0501C0.308594 17.0994 1.27541 19.044 2.97708 20.4687H0.308594V25.2911H17.9565L12.9923 33.2048H11.15C10.1392 33.2048 9.31688 34.0273 9.31688 35.0381C9.31688 35.4143 9.43137 35.764 9.62643 36.0553H6.69451V36.8717C13.6204 36.8717 22.819 36.8717 27.5937 36.8717H32.0497V36.0553H29.1176C29.3128 35.764 29.4273 35.4143 29.4273 35.0381C29.4273 34.0273 28.6046 33.2048 27.5937 33.2048H25.7507L20.7902 25.2911H39.4923V20.4686H37.1469V12.0467H39.6916L36.5674 9.45233V6.01588H36.5673ZM34.6409 6.01588H35.751V8.77445L34.6409 7.85261V6.01588ZM3.72537 1.28955C3.73574 1.278 3.77121 1.26322 3.79672 1.25608H3.82741C3.84255 1.25608 3.85692 1.26204 3.86729 1.27241L4.45002 1.85514C4.97696 2.38208 5.89574 2.38228 6.42268 1.85494C6.64112 1.63649 7.02296 1.63649 7.24141 1.85494C7.76835 2.38228 8.68753 2.38228 9.21447 1.85494C9.43292 1.63649 9.81435 1.63571 10.0336 1.85575C10.5605 2.38228 11.4793 2.38249 12.0062 1.85637C12.3034 1.55665 12.5684 1.27967 12.6304 1.25608C12.6548 1.25608 12.6699 1.26963 12.6878 1.31388C12.4761 2.55151 11.8583 4.24796 10.9408 5.34388H5.49472C4.42888 4.28281 3.84055 2.572 3.72537 1.28955ZM4.37545 6.1602C6.20435 6.1602 9.95492 6.1602 12.0819 6.1602C12.3474 6.1602 12.5635 6.37624 12.5635 6.64192C12.5635 6.90759 12.3474 7.12363 12.0819 7.12363H4.37545C4.10957 7.12363 3.89353 6.90759 3.89353 6.64192C3.89353 6.37624 4.10961 6.1602 4.37545 6.1602ZM1.12492 15.0501C1.12492 12.6972 2.88112 9.75033 4.55606 7.93992H11.901C13.5759 9.74996 15.3321 12.6966 15.3321 15.0501C15.3321 17.0186 14.3101 18.8882 12.528 20.1794C12.2713 20.3658 11.9429 20.4682 11.6037 20.4682H4.85337C4.51414 20.4682 4.1861 20.3655 3.92904 20.1794C2.14692 18.8878 1.12492 17.0184 1.12492 15.0501ZM27.5937 34.0211C28.1546 34.0211 28.611 34.4773 28.611 35.0381C28.611 35.5989 28.1546 36.0553 27.5937 36.0553H11.15C10.5892 36.0553 10.1332 35.5989 10.1332 35.0381C10.1332 34.4773 10.5892 34.0211 11.15 34.0211H27.5937ZM24.7868 33.2036H13.9566L18.9197 25.2911H19.8264L24.7868 33.2036ZM38.6759 21.2849V24.4747H1.12492V23.2879H11.4103V22.4715H1.12492V21.2849H38.6759ZM29.1459 20.4664V15.4009H32.5212V20.4664H29.1459V20.4664ZM37.4307 11.2303H36.3306V12.8024H34.7246V13.6187H36.3306V15.548H34.7095V16.3643H36.3306V20.4664H33.3375V19.3876H34.9586V18.5713H33.3375V14.5845H28.3295V18.5713H26.7088V19.3876H28.3295V20.4664H25.3369V16.3643H26.9576V15.548H25.3369V13.6187H27.3777V12.8024H25.3369V11.2303H24.2363L25.3292 10.3223H27.1908V9.506H26.3116L30.8315 5.75041L35.3542 9.506H34.4225V10.3223H36.3373L37.4307 11.2303Z" fill="#4AC328"/>
<path d="M30.8327 8.07422C29.7262 8.07422 28.8262 8.97446 28.8262 10.0812C28.8262 11.1876 29.7262 12.0879 30.8327 12.0879C31.9392 12.0879 32.8396 11.1876 32.8396 10.0812C32.8396 8.97446 31.9392 8.07422 30.8327 8.07422ZM30.8327 11.2716C30.1766 11.2716 29.6425 10.7376 29.6425 10.0812C29.6425 9.42467 30.1766 8.89055 30.8327 8.89055C31.4892 8.89055 32.0233 9.42467 32.0233 10.0812C32.0233 10.7376 31.4892 11.2716 30.8327 11.2716Z" fill="#4AC328"/>
<path d="M32.2752 12.8027H29.8262V13.6191H32.2752V12.8027Z" fill="#4AC328"/>
<path d="M4.79446 11.6009L4.09691 11.1768C3.88924 11.5186 3.6987 11.8654 3.5305 12.2076L4.26311 12.5675C4.42058 12.247 4.59915 11.9218 4.79446 11.6009ZM4.00724 16.7948C3.68597 16.2372 3.52336 15.6507 3.52336 15.0514C3.52336 14.6321 3.64254 14.0892 3.86777 13.4811L3.10246 13.1973C2.84017 13.9052 2.70703 14.529 2.70703 15.0514C2.70703 15.785 2.91193 16.5285 3.29936 17.2022L4.00724 16.7948ZM12.9346 15.0514C12.9346 15.8681 12.6269 16.6729 12.0454 17.3786L12.6752 17.898C13.3791 17.0442 13.751 16.0598 13.751 15.0514C13.751 14.7784 13.7135 14.4716 13.6397 14.1394L12.8425 14.3168C12.9035 14.5908 12.9346 14.8379 12.9346 15.0514ZM13.3392 13.1541C13.1785 12.7267 12.9745 12.2803 12.7325 11.8275L12.0127 12.2122C12.2379 12.6337 12.4272 13.0472 12.5755 13.4414L13.3392 13.1541ZM8.30928 16.071C7.78234 16.071 7.35344 15.6421 7.35344 15.1149H6.53711C6.53711 15.9513 7.12083 16.6498 7.90111 16.8352V17.9545H8.71744V16.8352C9.49785 16.6498 10.0818 15.9512 10.0818 15.1149C10.0818 14.1376 9.28666 13.3426 8.30928 13.3426C7.78234 13.3426 7.35344 12.9139 7.35344 12.3867C7.35344 11.8596 7.78234 11.4307 8.30928 11.4307C8.83662 11.4307 9.26552 11.8596 9.26552 12.3867H10.0818C10.0818 11.5504 9.49785 10.8519 8.71744 10.6665V9.5625H7.90111V10.6665C7.12083 10.8519 6.53711 11.5505 6.53711 12.3867C6.53711 13.3639 7.33193 14.1589 8.30928 14.1589C8.83662 14.1589 9.26552 14.5878 9.26552 15.1149C9.26552 15.6421 8.83662 16.071 8.30928 16.071Z" fill="#4AC328"/>
<path d="M9.80256 3.58984H6.51562V4.40617H9.80256V3.58984Z" fill="#4AC328"/>
<path d="M36.7376 26.5566H31.4355V27.373H36.7376V26.5566Z" fill="#4AC328"/>
<path d="M30.1854 26.5566H28.1152V27.373H30.1854V26.5566Z" fill="#4AC328"/>
<path d="M9.29968 26.5566H3.99805V27.373H9.29968V26.5566Z" fill="#4AC328"/>
<path d="M12.621 26.5566H10.5508V27.373H12.621V26.5566Z" fill="#4AC328"/>
<path d="M28.3097 4.02502L27.3984 4.76953L27.9149 5.4017L28.8262 4.65719L28.3097 4.02502Z" fill="#4AC328"/>
<path d="M26.3445 5.63135L22.8477 8.48828L23.3641 9.12045L26.861 6.26352L26.3445 5.63135Z" fill="#4AC328"/>
<path d="M30.184 38.748H26.3477V39.5644H30.184V38.748Z" fill="#4AC328"/>
<path d="M24.3466 38.748H14.6074V39.5644H24.3466V38.748Z" fill="#4AC328"/>
<path d="M12.6206 38.748H8.55859V39.5644H12.6206V38.748Z" fill="#4AC328"/>
</g>
<defs>
<clipPath id="clip0_207_186">
<rect width="40" height="40" fill="white"/>
</clipPath>
</defs>
</svg>
