<svg width="40" height="40" viewBox="0 0 40 40" fill="none" xmlns="http://www.w3.org/2000/svg">
<g clip-path="url(#clip0_210_263)">
<path d="M38.0223 1.31641C38.0223 1.15065 37.9565 0.991675 37.8393 0.874464C37.7221 0.757254 37.5631 0.691406 37.3973 0.691406H1.58984C1.42408 0.691406 1.26511 0.757254 1.1479 0.874464C1.03069 0.991675 0.964844 1.15065 0.964844 1.31641V29.6258C0.964844 29.7915 1.03069 29.9505 1.1479 30.0677C1.26511 30.1849 1.42408 30.2508 1.58984 30.2508H29.1473L29.2486 37.157C29.2579 37.7244 29.4898 38.2653 29.8941 38.6634C30.2985 39.0615 30.8431 39.2847 31.4105 39.2852H31.4423H31.5911C31.8748 39.281 32.1548 39.221 32.4153 39.1086C32.6758 38.9962 32.9116 38.8336 33.1092 38.63C33.3068 38.4265 33.4624 38.186 33.5671 37.9223C33.6717 37.6587 33.7234 37.3769 33.7192 37.0933L33.6186 30.2508H37.3973C37.5631 30.2508 37.7221 30.1849 37.8393 30.0677C37.9565 29.9505 38.0223 29.7915 38.0223 29.6258V23.6514C39.3548 22.0541 40.0846 20.0399 40.0846 17.9598C40.0846 15.8797 39.3548 13.8656 38.0223 12.2683V1.31641ZM36.7723 1.94141V6.50078H2.21484V1.94141H36.7723ZM2.21484 7.75078H36.7723V11.0383C35.6801 10.155 34.3943 9.54263 33.0201 9.25137C31.6459 8.96011 30.2223 8.99817 28.8656 9.36245C27.5089 9.72673 26.2577 10.4069 25.2142 11.3473C24.1708 12.2878 23.3646 13.4618 22.8617 14.7734C22.3589 16.085 22.1735 17.4971 22.3208 18.894C22.4682 20.291 22.944 21.6333 23.7094 22.8112C24.4748 23.9891 25.5081 24.9691 26.7248 25.6712C27.9415 26.3733 29.307 26.7775 30.7098 26.8508L30.7355 28.5783L29.7505 28.5927C29.6231 28.5933 29.4991 28.6338 29.3958 28.7083C29.2925 28.7828 29.2151 28.8876 29.1742 29.0083H2.21484V7.75078ZM30.3911 29.8283L32.3611 29.7995L32.3755 30.7589L30.4055 30.7883L30.3911 29.8283ZM32.2123 37.7595C32.1293 37.8454 32.03 37.914 31.9202 37.9613C31.8105 38.0086 31.6925 38.0337 31.573 38.0352V38.0352H31.4236H31.4105C31.1719 38.0347 30.943 37.9408 30.7728 37.7737C30.6026 37.6065 30.5046 37.3793 30.4998 37.1408L30.4248 32.0383L32.3955 32.0089L32.4705 37.1114C32.4726 37.2312 32.4509 37.3502 32.4066 37.4614C32.3623 37.5727 32.2963 37.6741 32.2123 37.7595V37.7595ZM33.5692 29.0008C33.5353 28.8692 33.4589 28.7526 33.3519 28.6689C33.2449 28.5853 33.1132 28.5394 32.9773 28.5383H32.968L31.983 28.5527L31.9573 26.817C33.7176 26.6605 35.3921 25.9863 36.7698 24.8795V29.0045L33.5692 29.0008ZM37.913 21.5933C37.1932 22.927 36.094 24.0173 34.7544 24.7261C33.4148 25.4349 31.8951 25.7305 30.3875 25.5754C28.8799 25.4203 27.4522 24.8215 26.285 23.8548C25.1178 22.8881 24.2635 21.5968 23.8304 20.1445C23.3972 18.6922 23.4046 17.144 23.8515 15.6958C24.2985 14.2477 25.1649 12.9646 26.3413 12.009C27.5176 11.0534 28.951 10.4683 30.46 10.3275C31.969 10.1867 33.4858 10.4967 34.8186 11.2183C36.6038 12.1853 37.9323 13.8213 38.5125 15.7669C39.0926 17.7126 38.877 19.8089 37.913 21.5958V21.5933Z" fill="#4AC328"/>
<path d="M34.0113 3.59375H21.9375V4.84375H34.0113V3.59375Z" fill="#4AC328"/>
<path d="M7.32453 3.59375H4.51953V4.84375H7.32453V3.59375Z" fill="#4AC328"/>
<path d="M11.695 3.59375H8.89062V4.84375H11.695V3.59375Z" fill="#4AC328"/>
<path d="M34.1771 12.409C33.0803 11.8163 31.8324 11.5622 30.5912 11.6787C29.35 11.7952 28.1712 12.2771 27.2038 13.0635C26.2365 13.85 25.524 14.9056 25.1566 16.0969C24.7891 17.2882 24.7832 18.5617 25.1395 19.7564C25.4958 20.951 26.1983 22.0133 27.1582 22.8087C28.1182 23.6041 29.2924 24.0971 30.5325 24.2252C31.7726 24.3533 33.0228 24.1109 34.1251 23.5285C35.2274 22.9461 36.1322 22.05 36.7252 20.9534C37.5183 19.482 37.6954 17.7561 37.2177 16.1544C36.74 14.5526 35.6465 13.2056 34.1771 12.409V12.409ZM35.6246 20.359C35.0685 21.3872 34.1731 22.1908 33.0909 22.6329C32.0087 23.075 30.8067 23.1282 29.6897 22.7834C28.5727 22.4387 27.6098 21.7173 26.965 20.7423C26.3202 19.7672 26.0335 18.5987 26.1535 17.4359C26.2736 16.2731 26.7932 15.1879 27.6237 14.3652C28.4541 13.5425 29.5441 13.0332 30.708 12.924C31.8719 12.8148 33.0376 13.1126 34.0066 13.7665C34.9756 14.4204 35.6879 15.39 36.0221 16.5102C36.2137 17.1462 36.2772 17.8138 36.209 18.4744C36.1408 19.1351 35.9421 19.7756 35.6246 20.359V20.359ZM20.0996 10.2559H15.2246C15.0588 10.2559 14.8999 10.3217 14.7827 10.4389C14.6655 10.5561 14.5996 10.7151 14.5996 10.8809V16.1827H10.9746V13.5746C10.9746 13.4088 10.9088 13.2499 10.7916 13.1327C10.6743 13.0155 10.5154 12.9496 10.3496 12.9496H5.47461C5.30885 12.9496 5.14988 13.0155 5.03267 13.1327C4.91546 13.2499 4.84961 13.4088 4.84961 13.5746V24.3502C4.84961 24.516 4.91546 24.675 5.03267 24.7922C5.14988 24.9094 5.30885 24.9752 5.47461 24.9752H20.0996C20.2654 24.9752 20.4243 24.9094 20.5416 24.7922C20.6588 24.675 20.7246 24.516 20.7246 24.3502V10.8809C20.7246 10.7151 20.6588 10.5561 20.5416 10.4389C20.4243 10.3217 20.2654 10.2559 20.0996 10.2559ZM6.09086 14.1996H9.71898V23.7252H6.09398L6.09086 14.1996ZM10.9659 17.4327H14.5909V23.7252H10.9659V17.4327ZM19.4746 23.7252H15.8496V11.5059H19.4746V23.7252Z" fill="#4AC328"/>
</g>
<defs>
<clipPath id="clip0_210_263">
<rect width="40" height="40" fill="white"/>
</clipPath>
</defs>
</svg>
