<svg width="40" height="40" viewBox="0 0 40 40" fill="none" xmlns="http://www.w3.org/2000/svg">
<g clip-path="url(#clip0_203_162)">
<path d="M13.334 35V38.3333H26.6673V35H25.0007H15.0007H13.334Z" fill="#151813" fill-opacity="0.6"/>
<path d="M24.7833 4.16602C25.3937 5.04048 25.7527 6.06553 25.8213 7.12975C25.8898 8.19396 25.6654 9.2566 25.1722 10.2022C24.6791 11.1477 23.9362 11.94 23.0243 12.4929C22.1124 13.0458 21.0664 13.3381 20 13.3381C18.9336 13.3381 17.8876 13.0458 16.9757 12.4929C16.0638 11.94 15.3209 11.1477 14.8278 10.2022C14.3346 9.2566 14.1102 8.19396 14.1787 7.12975C14.2473 6.06553 14.6063 5.04048 15.2167 4.16602H5V22.4993H18.3333V18.3327C18.3333 17.8907 18.5089 17.4667 18.8215 17.1542C19.134 16.8416 19.558 16.666 20 16.666C20.442 16.666 20.8659 16.8416 21.1785 17.1542C21.4911 17.4667 21.6667 17.8907 21.6667 18.3327V22.4993H35V4.16602H24.7833Z" fill="#151813" fill-opacity="0.2"/>
<path d="M36.7506 0.833984H25.834V2.50065H36.7506C36.9496 2.50065 37.1403 2.57967 37.281 2.72032C37.4216 2.86097 37.5006 3.05174 37.5006 3.25065V26.7506C37.5006 26.9496 37.4216 27.1403 37.281 27.281C37.1403 27.4216 36.9496 27.5007 36.7506 27.5007H3.25065C3.05174 27.5007 2.86097 27.4216 2.72032 27.281C2.57967 27.1403 2.50065 26.9496 2.50065 26.7506V3.25065C2.50065 3.05174 2.57967 2.86097 2.72032 2.72032C2.86097 2.57967 3.05174 2.50065 3.25065 2.50065H14.1673V0.833984H3.25065C2.60971 0.833984 1.99502 1.0886 1.54181 1.54181C1.0886 1.99502 0.833984 2.60971 0.833984 3.25065V26.7506C0.833984 27.3916 1.0886 28.0063 1.54181 28.4595C1.99502 28.9127 2.60971 29.1673 3.25065 29.1673H14.1673V34.1673H13.334C13.113 34.1673 12.901 34.2551 12.7447 34.4114C12.5884 34.5677 12.5007 34.7796 12.5007 35.0006V37.5006H10.0007V39.1673H30.0007V37.5006H27.5007V35.0006C27.5007 34.7796 27.4129 34.5677 27.2566 34.4114C27.1003 34.2551 26.8883 34.1673 26.6673 34.1673H25.834V29.1673H36.7506C37.3916 29.1673 38.0063 28.9127 38.4595 28.4595C38.9127 28.0063 39.1673 27.3916 39.1673 26.7506V3.25065C39.1673 2.60971 38.9127 1.99502 38.4595 1.54181C38.0063 1.0886 37.3916 0.833984 36.7506 0.833984ZM14.1673 37.5006V35.834H25.834V37.5006H20.0007H14.1673ZM24.1673 34.1673H15.834V29.1673H24.1673V34.1673Z" fill="#4AC328"/>
<path d="M36.668 21.666H24.168V23.3327H36.668V21.666Z" fill="#4AC328"/>
<path d="M15.834 21.666H3.33398V23.3327H15.834V21.666Z" fill="#4AC328"/>
<path d="M35.8346 20V4.16667C35.8346 3.94566 35.7468 3.73369 35.5906 3.57741C35.4343 3.42113 35.2223 3.33334 35.0013 3.33334H27.5013V5H34.168V20H35.8346ZM12.5013 5V3.33334H5.0013C4.78029 3.33334 4.56833 3.42113 4.41205 3.57741C4.25577 3.73369 4.16797 3.94566 4.16797 4.16667V20H5.83464V5H12.5013ZM19.168 14.1092V15.9867C18.6822 16.1584 18.2614 16.476 17.963 16.8961C17.6647 17.3161 17.5034 17.8181 17.5013 18.3333V23.3333C17.5013 23.9964 17.7647 24.6323 18.2335 25.1011C18.7024 25.5699 19.3383 25.8333 20.0013 25.8333C20.6643 25.8333 21.3002 25.5699 21.7691 25.1011C22.2379 24.6323 22.5013 23.9964 22.5013 23.3333V18.3333C22.4992 17.8181 22.3379 17.3161 22.0396 16.8961C21.7412 16.476 21.3204 16.1584 20.8346 15.9867V14.1092C22.5172 13.8972 24.0557 13.052 25.137 11.7456C26.2183 10.4392 26.7611 8.76982 26.6549 7.07731C26.5487 5.38479 25.8015 3.79637 24.5654 2.63538C23.3292 1.4744 21.6971 0.828125 20.0013 0.828125C18.3055 0.828125 16.6734 1.4744 15.4372 2.63538C14.2011 3.79637 13.4539 5.38479 13.3477 7.07731C13.2415 8.76982 13.7843 10.4392 14.8656 11.7456C15.9469 13.052 17.4854 13.8972 19.168 14.1092V14.1092ZM20.8346 23.3333C20.8346 23.5544 20.7468 23.7663 20.5906 23.9226C20.4343 24.0789 20.2223 24.1667 20.0013 24.1667C19.7803 24.1667 19.5683 24.0789 19.412 23.9226C19.2558 23.7663 19.168 23.5544 19.168 23.3333V18.3333C19.168 18.1123 19.2558 17.9004 19.412 17.7441C19.5683 17.5878 19.7803 17.5 20.0013 17.5C20.2223 17.5 20.4343 17.5878 20.5906 17.7441C20.7468 17.9004 20.8346 18.1123 20.8346 18.3333V23.3333ZM20.0013 2.5C20.9902 2.5 21.9569 2.79325 22.7792 3.34266C23.6014 3.89206 24.2423 4.67296 24.6207 5.58659C24.9991 6.50022 25.0982 7.50555 24.9052 8.47545C24.7123 9.44536 24.2361 10.3363 23.5368 11.0355C22.8376 11.7348 21.9467 12.211 20.9768 12.4039C20.0068 12.5969 19.0015 12.4978 18.0879 12.1194C17.1743 11.741 16.3934 11.1001 15.844 10.2779C15.2945 9.45561 15.0013 8.48891 15.0013 7.5C15.0026 6.17433 15.5298 4.90333 16.4672 3.96593C17.4046 3.02854 18.6756 2.50133 20.0013 2.5V2.5Z" fill="#4AC328"/>
<path d="M20.0013 5.83268V4.16602C19.1172 4.16602 18.2694 4.5172 17.6443 5.14233C17.0192 5.76745 16.668 6.61529 16.668 7.49935H18.3346C18.3346 7.05732 18.5102 6.6334 18.8228 6.32084C19.1354 6.00828 19.5593 5.83268 20.0013 5.83268V5.83268Z" fill="#4AC328"/>
</g>
<defs>
<clipPath id="clip0_203_162">
<rect width="40" height="40" fill="white"/>
</clipPath>
</defs>
</svg>
