<svg width="40" height="40" viewBox="0 0 40 40" fill="none" xmlns="http://www.w3.org/2000/svg">
<path fill-rule="evenodd" clip-rule="evenodd" d="M9.76667 15.034C9.43333 15.109 8.01667 15.459 6.85 16.2173C5.81667 16.8923 5 17.8757 5 19.1673V24.1673C5.0003 24.3508 5.06086 24.5291 5.17235 24.6748C5.28385 24.8206 5.44012 24.9256 5.61714 24.9739C5.79416 25.0222 5.98214 25.011 6.15218 24.9421C6.32222 24.8731 6.46492 24.7502 6.55833 24.5923C7.31667 23.3007 8.25833 22.3673 9.44167 21.884C9.775 23.6923 10.375 25.459 10.9667 26.9173C9.83333 27.5007 6.675 29.4673 6.675 33.334V35.834C6.675 36.2923 7.05 36.6673 7.50833 36.6673H13.3417C13.7917 36.6673 14.1667 36.3007 14.175 35.8507C14.2 34.7007 14.5 33.7173 15.0083 32.8757C15.1417 33.634 15.425 34.4673 15.9417 35.4007C16.0667 35.634 16.2917 35.784 16.5583 35.8257C16.8167 35.859 17.075 35.7757 17.2667 35.5923L17.9583 34.9007C18.3176 35.6298 18.9059 36.2211 19.6333 36.584C19.875 36.7007 20.15 36.7007 20.3917 36.584C21.1833 36.184 21.7167 35.609 22.0667 34.9007L22.7583 35.5923C22.9417 35.7757 23.2083 35.8673 23.4667 35.8257C23.725 35.7923 23.95 35.634 24.0833 35.4007C24.6 34.4673 24.8833 33.634 25.0167 32.8757C25.5333 33.7173 25.8333 34.7007 25.85 35.8507C25.8583 36.309 26.2333 36.6673 26.6833 36.6673H32.5167C32.975 36.6673 33.35 36.2923 33.35 35.834V33.334C33.35 29.4673 30.1917 27.5007 29.0583 26.9173C29.65 25.4673 30.25 23.6923 30.5833 21.884C31.7667 22.3673 32.7083 23.2923 33.4667 24.5923C33.6583 24.9173 34.0417 25.0757 34.4083 24.9757C34.775 24.8757 35.025 24.5507 35.025 24.1673V19.1673C35.025 17.8757 34.2167 16.8923 33.175 16.2173C32.0083 15.459 30.5917 15.109 30.2583 15.034C29.1417 11.059 26.625 7.45898 24.2 5.35898C22.6833 4.05065 21.1667 3.33398 20.025 3.33398C18.8833 3.33398 17.3667 4.05065 15.85 5.35898C13.425 7.45065 10.9083 11.0507 9.79167 15.034H9.76667ZM12.6917 34.1673H8.33333V35.0007H12.55C12.5833 34.7173 12.6333 34.434 12.6917 34.1673V34.1673ZM31.6667 34.1673H27.3083C27.3667 34.434 27.4167 34.7173 27.45 35.0007H31.6667V34.1673ZM16.9333 30.834C16.8333 30.909 16.7333 30.984 16.6417 31.059C16.525 31.8007 16.5667 32.609 16.925 33.5673L17.75 32.7423C17.975 32.5257 18.3 32.4423 18.5917 32.5423C18.8917 32.634 19.1083 32.8923 19.1583 33.2007C19.2667 33.8673 19.5083 34.4507 20 34.8507C20.5 34.4507 20.7333 33.8673 20.8417 33.2007C20.8917 32.8923 21.1083 32.634 21.4083 32.5423C21.7083 32.4507 22.0333 32.5257 22.25 32.7423L23.075 33.5673C23.4333 32.609 23.4667 31.8007 23.3583 31.059C23.2583 30.984 23.1667 30.909 23.0667 30.834H16.9333ZM28.375 28.4423C27.8167 29.659 27.3833 30.4173 27.3833 30.4173C27.2333 30.6757 26.9583 30.834 26.6583 30.834H25.5417C26 31.3423 26.3917 31.8923 26.7 32.5007H31.5917C31.2 30.1257 29.2 28.8673 28.375 28.4423ZM11.6167 28.4423C10.7917 28.8673 8.79167 30.1257 8.4 32.5007H13.2917C13.6 31.8923 13.9833 31.3423 14.45 30.834H13.3333C13.0333 30.834 12.7583 30.6757 12.6083 30.4173C12.6083 30.4173 12.175 29.659 11.6167 28.4423V28.4423ZM27.6917 25.834C27.1083 27.3423 26.4917 28.559 26.175 29.1673H13.8333C13.5083 28.559 12.9 27.3423 12.3167 25.834H27.7H27.6917ZM25 26.6673C25.4583 26.6673 25.8333 27.0423 25.8333 27.5007C25.8333 27.959 25.4583 28.334 25 28.334C24.5417 28.334 24.1667 27.959 24.1667 27.5007C24.1667 27.0423 24.5417 26.6673 25 26.6673ZM17.5 26.6673C17.9583 26.6673 18.3333 27.0423 18.3333 27.5007C18.3333 27.959 17.9583 28.334 17.5 28.334C17.0417 28.334 16.6667 27.959 16.6667 27.5007C16.6667 27.0423 17.0417 26.6673 17.5 26.6673ZM15 26.6673C15.4583 26.6673 15.8333 27.0423 15.8333 27.5007C15.8333 27.959 15.4583 28.334 15 28.334C14.5417 28.334 14.1667 27.959 14.1667 27.5007C14.1667 27.0423 14.5417 26.6673 15 26.6673ZM22.5 26.6673C22.9583 26.6673 23.3333 27.0423 23.3333 27.5007C23.3333 27.959 22.9583 28.334 22.5 28.334C22.0417 28.334 21.6667 27.959 21.6667 27.5007C21.6667 27.0423 22.0417 26.6673 22.5 26.6673ZM20 26.6673C20.4583 26.6673 20.8333 27.0423 20.8333 27.5007C20.8333 27.959 20.4583 28.334 20 28.334C19.5417 28.334 19.1667 27.959 19.1667 27.5007C19.1667 27.0423 19.5417 26.6673 20 26.6673ZM25.8083 9.65898C24.8833 9.21732 22.5 8.33398 20 8.33398C17.5 8.33398 14.2167 9.65065 14.2 9.65898C12.3167 12.3007 10.8333 15.734 10.8333 19.1673C10.8333 20.8257 11.2167 22.584 11.7167 24.1673H28.275C28.775 22.584 29.1583 20.8257 29.1583 19.1673C29.1583 15.734 27.6833 12.3007 25.8 9.65898H25.8083ZM20 9.16732C16.3167 9.16732 13.3333 12.1507 13.3333 15.834C13.3333 19.5173 16.3167 22.5007 20 22.5007C23.6833 22.5007 26.6667 19.5173 26.6667 15.834C26.6667 12.1507 23.6833 9.16732 20 9.16732ZM30.6417 16.8757C30.7667 17.634 30.8333 18.4007 30.8333 19.1673C30.8333 19.509 30.8167 19.8507 30.7917 20.1923C31.7417 20.509 32.5917 21.0257 33.3333 21.7423V19.1673C33.3333 18.459 32.8083 17.9757 32.25 17.609C31.7167 17.259 31.1167 17.0257 30.65 16.8673L30.6417 16.8757ZM9.35833 16.8757C8.89167 17.0257 8.29167 17.2673 7.75833 17.6173C7.19167 17.984 6.675 18.4673 6.675 19.1757V21.7423C7.41667 21.034 8.26667 20.509 9.21667 20.1923C9.19167 19.8507 9.175 19.509 9.175 19.1673C9.175 18.4007 9.24167 17.634 9.36667 16.8757H9.35833ZM15.075 16.6673C15.425 18.759 17.0833 20.409 19.175 20.7673V19.9173C18.3747 19.753 17.6402 19.3575 17.0625 18.7798C16.4848 18.2021 16.0893 17.4676 15.925 16.6673H15.075V16.6673ZM24.9333 16.6673H24.0833C23.919 17.4676 23.5235 18.2021 22.9458 18.7798C22.3681 19.3575 21.6336 19.753 20.8333 19.9173V20.7673C22.925 20.4173 24.575 18.759 24.9333 16.6673V16.6673ZM20 13.334C21.3833 13.334 22.5 14.4507 22.5 15.834C22.5 17.2173 21.3833 18.334 20 18.334C18.6167 18.334 17.5 17.2173 17.5 15.834C17.5 14.4507 18.6167 13.334 20 13.334ZM20.8333 10.9007V11.7507C22.4667 12.084 23.75 13.3673 24.0833 15.0007H24.9333C24.5833 12.909 22.925 11.259 20.8333 10.9007ZM19.1667 10.9007C17.075 11.2507 15.425 12.909 15.0667 15.0007H15.9167C16.081 14.2004 16.4765 13.4659 17.0542 12.8882C17.6319 12.3105 18.3664 11.915 19.1667 11.7507V10.9007V10.9007ZM23.6417 7.12565C22.8833 6.39232 22.125 5.81732 21.4167 5.44232C20.8917 5.16732 20.4167 4.99232 19.9917 4.99232C19.5667 4.99232 19.0917 5.15898 18.5667 5.44232C17.8583 5.81732 17.1 6.39232 16.3417 7.12565C17.3917 6.85898 18.6333 6.65898 19.9833 6.65898C21.3333 6.65898 22.575 6.85898 23.625 7.12565H23.6417Z" fill="#4AC328"/>
</svg>
