<svg width="40" height="40" viewBox="0 0 40 40" fill="none" xmlns="http://www.w3.org/2000/svg">
<g clip-path="url(#clip0_206_71)">
<path d="M2.5157 3.44727C2.17008 3.44727 1.88758 3.16789 1.88758 2.82227C1.88758 2.47664 2.16383 2.19727 2.50883 2.19727H2.5157C2.8607 2.19727 3.1407 2.47664 3.1407 2.82227C3.1407 3.16789 2.8607 3.44727 2.5157 3.44727ZM4.3907 3.44727C4.04508 3.44727 3.76258 3.16789 3.76258 2.82227C3.76258 2.47664 4.03883 2.19727 4.38383 2.19727H4.3907C4.7357 2.19727 5.0157 2.47664 5.0157 2.82227C5.0157 3.16789 4.7357 3.44727 4.3907 3.44727ZM6.2657 3.44727C5.92008 3.44727 5.63758 3.16789 5.63758 2.82227C5.63758 2.47664 5.91383 2.19727 6.25883 2.19727H6.2657C6.6107 2.19727 6.8907 2.47664 6.8907 2.82227C6.8907 3.16789 6.6107 3.44727 6.2657 3.44727ZM39.377 39.0535H0.626953C0.281328 39.0535 0.00195312 38.7741 0.00195312 38.4285V4.07227C0.00195312 3.72664 0.281328 3.44727 0.626953 3.44727H39.377C39.7226 3.44727 40.002 3.72664 40.002 4.07227V38.4291C40.002 38.7741 39.7226 39.0535 39.377 39.0535ZM1.25195 37.8035H38.752V4.69727H1.25195V37.8035V37.8035Z" fill="#4AC328"/>
<path d="M0.623047 3.44727C0.277422 3.44727 -0.00195312 3.16789 -0.00195312 2.82227C-0.00195312 1.78852 0.839297 0.947266 1.87305 0.947266C2.21867 0.947266 2.49805 1.22664 2.49805 1.57227C2.49805 1.91789 2.21867 2.19727 1.87305 2.19727C1.52805 2.19727 1.24805 2.47727 1.24805 2.82227C1.24805 3.16727 0.968672 3.44727 0.623047 3.44727Z" fill="#4AC328"/>
<path d="M0.623047 4.69727C0.277422 4.69727 -0.00195312 4.41789 -0.00195312 4.07227V2.82227C-0.00195312 2.47664 0.277422 2.19727 0.623047 2.19727C0.968672 2.19727 1.24805 2.47664 1.24805 2.82227V4.07227C1.24805 4.41727 0.968672 4.69727 0.623047 4.69727ZM39.373 3.44727C39.0274 3.44727 38.748 3.16789 38.748 2.82227C38.748 2.47727 38.468 2.19727 38.123 2.19727C37.7774 2.19727 37.498 1.91789 37.498 1.57227C37.498 1.22664 37.7774 0.947266 38.123 0.947266C39.1568 0.947266 39.998 1.78852 39.998 2.82227C39.998 3.16727 39.7187 3.44727 39.373 3.44727Z" fill="#4AC328"/>
<path d="M39.373 4.69727C39.0274 4.69727 38.748 4.41789 38.748 4.07227V2.82227C38.748 2.47664 39.0274 2.19727 39.373 2.19727C39.7187 2.19727 39.998 2.47664 39.998 2.82227V4.07227C39.998 4.41727 39.7187 4.69727 39.373 4.69727ZM38.123 2.19727H1.87305C1.52742 2.19727 1.24805 1.91789 1.24805 1.57227C1.24805 1.22664 1.52742 0.947266 1.87305 0.947266H38.123C38.4687 0.947266 38.748 1.22664 38.748 1.57227C38.748 1.91789 38.4687 2.19727 38.123 2.19727ZM11.8855 34.6898H3.76367C3.41805 34.6898 3.13867 34.4104 3.13867 34.0648C3.13867 33.7191 3.41805 33.4398 3.76367 33.4398H11.8849C12.2305 33.4398 12.5099 33.7191 12.5099 34.0648C12.5099 34.4104 12.2305 34.6898 11.8855 34.6898ZM36.2593 34.6898H28.138C27.7924 34.6898 27.513 34.4104 27.513 34.0648C27.513 33.7191 27.7924 33.4398 28.138 33.4398H36.2593C36.6049 33.4398 36.8843 33.7191 36.8843 34.0648C36.8843 34.4104 36.6043 34.6898 36.2593 34.6898ZM24.0643 34.6898H15.943C15.5974 34.6898 15.318 34.4104 15.318 34.0648C15.318 33.7191 15.5974 33.4398 15.943 33.4398H24.0643C24.4099 33.4398 24.6893 33.7191 24.6893 34.0648C24.6893 34.4104 24.4099 34.6898 24.0643 34.6898ZM22.2005 36.5648H17.8062C17.4605 36.5648 17.1812 36.2854 17.1812 35.9398C17.1812 35.5941 17.4605 35.3148 17.8062 35.3148H22.2005C22.5462 35.3148 22.8255 35.5941 22.8255 35.9398C22.8255 36.2854 22.5455 36.5648 22.2005 36.5648ZM34.388 36.5648H30.0093C29.6637 36.5648 29.3843 36.2854 29.3843 35.9398C29.3843 35.5941 29.6637 35.3148 30.0093 35.3148H34.388C34.7337 35.3148 35.013 35.5941 35.013 35.9398C35.013 36.2854 34.733 36.5648 34.388 36.5648ZM10.013 36.5648H5.63867C5.29305 36.5648 5.01367 36.2854 5.01367 35.9398C5.01367 35.5941 5.29305 35.3148 5.63867 35.3148H10.0124C10.358 35.3148 10.6374 35.5941 10.6374 35.9398C10.6374 36.2854 10.358 36.5648 10.013 36.5648ZM36.888 25.9348H3.13805C2.79242 25.9348 2.51305 25.6554 2.51305 25.3098V6.58164C2.51305 6.23602 2.79242 5.95664 3.13805 5.95664H36.888C37.2337 5.95664 37.513 6.23602 37.513 6.58164V25.3098C37.513 25.6554 37.233 25.9348 36.888 25.9348ZM3.76305 24.6848H36.263V7.20664H3.76305V24.6848V24.6848Z" fill="#4AC328"/>
<path d="M33.7553 14.7018H22.5078C22.1622 14.7018 21.8828 14.4224 21.8828 14.0768C21.8828 13.7312 22.1622 13.4518 22.5078 13.4518H33.7553C34.1009 13.4518 34.3803 13.7312 34.3803 14.0768C34.3803 14.4224 34.1009 14.7018 33.7553 14.7018ZM33.7553 12.8262H22.5078C22.1622 12.8262 21.8828 12.5468 21.8828 12.2012C21.8828 11.8555 22.1622 11.5762 22.5078 11.5762H33.7553C34.1009 11.5762 34.3803 11.8555 34.3803 12.2012C34.3803 12.5468 34.1009 12.8262 33.7553 12.8262ZM33.7553 16.5818H22.5078C22.1622 16.5818 21.8828 16.3024 21.8828 15.9568C21.8828 15.6112 22.1622 15.3318 22.5078 15.3318H33.7553C34.1009 15.3318 34.3803 15.6112 34.3803 15.9568C34.3803 16.3024 34.1009 16.5818 33.7553 16.5818ZM27.5053 18.4618H22.5078C22.1622 18.4618 21.8828 18.1824 21.8828 17.8368C21.8828 17.4912 22.1622 17.2118 22.5078 17.2118H27.5053C27.8509 17.2118 28.1303 17.4912 28.1303 17.8368C28.1303 18.1824 27.8509 18.4618 27.5053 18.4618ZM25.0028 21.5818H22.5091C22.1634 21.5818 21.8841 21.3024 21.8841 20.9568C21.8841 20.6112 22.1634 20.3318 22.5091 20.3318H25.0028C25.3484 20.3318 25.6278 20.6112 25.6278 20.9568C25.6278 21.3024 25.3484 21.5818 25.0028 21.5818ZM27.4991 20.9568H26.8716C26.5259 20.9568 26.2466 20.6774 26.2466 20.3318C26.2466 19.9862 26.5259 19.7068 26.8716 19.7068H27.4991C27.8447 19.7068 28.1241 19.9862 28.1241 20.3318C28.1241 20.6774 27.8447 20.9568 27.4991 20.9568Z" fill="#4AC328"/>
<path d="M27.4997 22.2071C27.2709 22.2071 27.0503 22.0808 26.9403 21.8621L26.3128 20.6121C26.1578 20.304 26.2822 19.9283 26.5909 19.7733C26.899 19.619 27.2747 19.7433 27.4297 20.0515L28.0572 21.3015C28.2122 21.6096 28.0878 21.9852 27.779 22.1402C27.6897 22.1858 27.5934 22.2071 27.4997 22.2071Z" fill="#4AC328"/>
<path d="M27.4986 22.207H26.8736C26.528 22.207 26.2486 21.9277 26.2486 21.582C26.2486 21.2364 26.528 20.957 26.8736 20.957H27.4986C27.8442 20.957 28.1236 21.2364 28.1236 21.582C28.1236 21.9277 27.8442 22.207 27.4986 22.207ZM7.82422 32.1914C6.61797 32.1914 5.63672 31.2102 5.63672 30.0039C5.63672 28.7977 6.61797 27.8164 7.82422 27.8164C9.03047 27.8164 10.0117 28.7977 10.0117 30.0039C10.0117 31.2102 9.02984 32.1914 7.82422 32.1914ZM7.82422 29.0664C7.30734 29.0664 6.88672 29.487 6.88672 30.0039C6.88672 30.5208 7.30734 30.9414 7.82422 30.9414C8.34109 30.9414 8.76172 30.5208 8.76172 30.0039C8.76172 29.487 8.34109 29.0664 7.82422 29.0664ZM20.0123 32.1914C18.8061 32.1914 17.8248 31.2102 17.8248 30.0039C17.8248 28.7977 18.8061 27.8164 20.0123 27.8164C21.2186 27.8164 22.1998 28.7977 22.1998 30.0039C22.1998 31.2102 21.218 32.1914 20.0123 32.1914ZM20.0123 29.0664C19.4955 29.0664 19.0748 29.487 19.0748 30.0039C19.0748 30.5208 19.4955 30.9414 20.0123 30.9414C20.5292 30.9414 20.9498 30.5208 20.9498 30.0039C20.9498 29.487 20.5292 29.0664 20.0123 29.0664Z" fill="#4AC328"/>
<path d="M32.2012 32.1914C30.9949 32.1914 30.0137 31.2102 30.0137 30.0039C30.0137 28.7977 30.9949 27.8164 32.2012 27.8164C33.4074 27.8164 34.3887 28.7977 34.3887 30.0039C34.3887 31.2102 33.4068 32.1914 32.2012 32.1914ZM32.2012 29.0664C31.6843 29.0664 31.2637 29.487 31.2637 30.0039C31.2637 30.5208 31.6843 30.9414 32.2012 30.9414C32.718 30.9414 33.1387 30.5208 33.1387 30.0039C33.1387 29.487 32.718 29.0664 32.2012 29.0664Z" fill="#4AC328"/>
<path d="M16.8717 21.576H8.12109C7.08734 21.576 6.24609 20.7348 6.24609 19.701V14.0723C6.24609 13.0385 7.08734 12.1973 8.12109 12.1973H16.8717C17.9055 12.1973 18.7467 13.0385 18.7467 14.0723V19.701C18.7467 20.7354 17.9055 21.576 16.8717 21.576ZM8.12109 13.4479C7.77609 13.4479 7.49609 13.7279 7.49609 14.0729V19.7016C7.49609 20.0466 7.77609 20.3266 8.12109 20.3266H16.8717C17.2167 20.3266 17.4967 20.0466 17.4967 19.7016V14.0729C17.4967 13.7279 17.2167 13.4479 16.8717 13.4479H8.12109Z" fill="#4AC328"/>
<path d="M13.1167 15.948H11.8761C11.5305 15.948 11.2511 15.6686 11.2511 15.323C11.2511 14.9773 11.5305 14.698 11.8761 14.698H13.1167C13.4623 14.698 13.7417 14.9773 13.7417 15.323C13.7417 15.6686 13.4623 15.948 13.1167 15.948ZM14.9961 12.8242C14.6505 12.8242 14.3711 12.5448 14.3711 12.1992C14.3711 11.1655 13.5298 10.3242 12.4961 10.3242C11.4623 10.3242 10.6211 11.1655 10.6211 12.1992C10.6211 12.5448 10.3417 12.8242 9.99609 12.8242C9.65047 12.8242 9.37109 12.5448 9.37109 12.1992C9.37109 10.4761 10.773 9.07422 12.4961 9.07422C14.2192 9.07422 15.6211 10.4761 15.6211 12.1992C15.6211 12.5442 15.3417 12.8242 14.9961 12.8242Z" fill="#4AC328"/>
<path d="M9.99609 14.6992C9.65047 14.6992 9.37109 14.4198 9.37109 14.0742V12.1992C9.37109 11.8536 9.65047 11.5742 9.99609 11.5742C10.3417 11.5742 10.6211 11.8536 10.6211 12.1992V14.0742C10.6211 14.4192 10.3417 14.6992 9.99609 14.6992ZM14.9961 14.6992C14.6505 14.6992 14.3711 14.4198 14.3711 14.0742V12.1992C14.3711 11.8536 14.6505 11.5742 14.9961 11.5742C15.3417 11.5742 15.6211 11.8536 15.6211 12.1992V14.0742C15.6211 14.4192 15.3417 14.6992 14.9961 14.6992Z" fill="#4AC328"/>
</g>
<defs>
<clipPath id="clip0_206_71">
<rect width="40" height="40" fill="white"/>
</clipPath>
</defs>
</svg>
