<svg width="40" height="40" viewBox="0 0 40 40" fill="none" xmlns="http://www.w3.org/2000/svg">
<g clip-path="url(#clip0_206_101)">
<path d="M36.9298 0.408203H3.07024C1.60241 0.408203 0.408203 1.60237 0.408203 3.0702V36.9298C0.408203 38.3977 1.60241 39.5919 3.07024 39.5919H36.9298C38.3977 39.5919 39.5919 38.3977 39.5919 36.9298V3.0702C39.5919 1.60237 38.3977 0.408203 36.9298 0.408203ZM36.9298 38.7756H3.07024C2.05241 38.7756 1.22453 37.9477 1.22453 36.9298V8.27469H3.91604V7.45837H1.22453V3.0702C1.22453 2.05237 2.05241 1.22449 3.07024 1.22449H36.9298C37.9477 1.22449 38.7756 2.05237 38.7756 3.0702V7.45837H6.22433V8.27469H38.7756V36.9298C38.7756 37.9476 37.9477 38.7756 36.9298 38.7756Z" fill="#4AC328"/>
<path d="M3.67375 25.6055H2.85742V27.8344H3.67375V25.6055Z" fill="#4AC328"/>
<path d="M3.67375 34.5816V29.6836H2.85742V34.5816C2.85742 35.994 4.00636 37.1429 5.41881 37.1429H7.84526V36.3266H5.41881C4.45661 36.3266 3.67375 35.5438 3.67375 34.5816Z" fill="#4AC328"/>
<path d="M11.1911 36.3262H9.01562V37.1425H11.1911V36.3262Z" fill="#4AC328"/>
<path d="M35.4621 6.17738C36.4749 6.17738 37.2988 5.35346 37.2988 4.34064C37.2988 3.32782 36.4749 2.50391 35.4621 2.50391C34.4493 2.50391 33.6254 3.32782 33.6254 4.34064C33.6254 5.35346 34.4493 6.17738 35.4621 6.17738ZM35.4621 3.32023C36.0247 3.32023 36.4825 3.77803 36.4825 4.34064C36.4825 4.90325 36.0247 5.36105 35.4621 5.36105C34.8995 5.36105 34.4417 4.90325 34.4417 4.34064C34.4417 3.77803 34.8995 3.32023 35.4621 3.32023ZM30.8856 6.17738C31.8984 6.17738 32.7223 5.35346 32.7223 4.34064C32.7223 3.32782 31.8984 2.50391 30.8856 2.50391C29.8728 2.50391 29.0489 3.32782 29.0489 4.34064C29.0489 5.35346 29.8728 6.17738 30.8856 6.17738ZM30.8856 3.32023C31.4482 3.32023 31.906 3.77803 31.906 4.34064C31.906 4.90325 31.4482 5.36105 30.8856 5.36105C30.323 5.36105 29.8652 4.90325 29.8652 4.34064C29.8652 3.77803 30.323 3.32023 30.8856 3.32023ZM26.3093 6.17738C27.3221 6.17738 28.146 5.35346 28.146 4.34064C28.146 3.32782 27.3221 2.50391 26.3093 2.50391C25.2965 2.50391 24.4726 3.32782 24.4726 4.34064C24.4726 5.35346 25.2965 6.17738 26.3093 6.17738ZM26.3093 3.32023C26.8719 3.32023 27.3297 3.77803 27.3297 4.34064C27.3297 4.90325 26.8719 5.36105 26.3093 5.36105C25.7467 5.36105 25.2889 4.90325 25.2889 4.34064C25.2889 3.77803 25.7467 3.32023 26.3093 3.32023ZM23.5267 32.0513L23.2913 32.1226L22.7231 35.0475H18.8991L18.3309 32.1226L18.0956 32.0513C17.51 31.8739 16.9426 31.6377 16.4091 31.3496L16.1917 31.2322L13.7176 32.9023L11.0123 30.1973L12.6827 27.7232L12.5653 27.5057C12.2773 26.9722 12.0411 26.4048 11.8634 25.8191L11.792 25.5839L8.86711 25.0157V21.1915L11.792 20.6233L11.8634 20.3882C12.0399 19.806 12.2755 19.238 12.5633 18.7001L12.6793 18.4833L11.0123 16.0102L13.7176 13.3049L16.1889 14.9722L16.4063 14.8548C16.9375 14.5679 17.5058 14.3319 18.0956 14.1531L18.331 14.0818L18.899 11.1597H22.7231L23.2913 14.0818L23.5267 14.1531C24.116 14.3317 24.6844 14.5679 25.216 14.8548L25.4334 14.9722L27.9047 13.3049L30.6098 16.0099L28.9424 18.4813L29.0598 18.6987C29.3468 19.23 29.5828 19.7984 29.7615 20.3879L29.8329 20.6233L32.755 21.1915V25.0157L29.8329 25.5839L29.7615 25.8193C29.5863 26.3974 29.35 26.9662 29.059 27.5099L29.7789 27.895C30.0553 27.3782 30.2867 26.8401 30.468 26.292L33.5713 25.6886V20.5188L30.468 19.9153C30.3104 19.4376 30.1179 18.9738 29.8935 18.5314L31.6629 15.9088L28.0059 12.2519L25.3834 14.0213C24.9407 13.7968 24.4769 13.6041 23.9994 13.4467L23.396 10.3434H18.2262L17.6229 13.4467C17.145 13.6043 16.6812 13.7968 16.239 14.0213L13.6164 12.2519L9.95927 15.9086L11.7294 18.5348C11.505 18.98 11.3131 19.4426 11.1569 19.9153L8.05078 20.5188V25.6886L11.1571 26.292C11.3141 26.7672 11.5066 27.2299 11.7316 27.6732L9.95927 30.2985L13.6164 33.9555L16.2418 32.1833C16.685 32.4085 17.1478 32.6008 17.6229 32.7579L18.2262 35.8639H23.396L23.9994 32.7579C24.5499 32.5761 25.087 32.3457 25.5996 32.0715L25.2145 31.3516C24.6763 31.6395 24.1083 31.8751 23.5267 32.0513Z" fill="#4AC328"/>
<path d="M28.1716 26.3393C28.621 25.3179 28.8488 24.2299 28.8488 23.1051C28.8488 18.6737 25.2435 15.0684 20.8121 15.0684C16.3807 15.0684 12.7754 18.6737 12.7754 23.1051C12.7754 27.5364 16.3807 31.1417 20.8121 31.1417C22.0603 31.1417 23.2565 30.8633 24.3673 30.3144L24.0058 29.5826C23.0084 30.0755 21.9337 30.3254 20.8121 30.3254C16.8307 30.3254 13.5917 27.0864 13.5917 23.105C13.5917 19.1236 16.8307 15.8846 20.8121 15.8846C24.7935 15.8846 28.0325 19.1236 28.0325 23.105C28.0325 24.1159 27.8278 25.0934 27.4242 26.0104L28.1716 26.3393Z" fill="#4AC328"/>
<path d="M25.4348 24.5849C26.0029 22.8681 25.6103 20.9003 24.247 19.5369C23.315 18.605 22.0774 18.0918 20.7624 18.0918C20.0999 18.0918 19.6981 18.2165 19.1068 18.3126L21.6371 20.8429L21.5466 23.818L18.5731 23.9073L16.0412 21.3753C16.0465 21.6493 15.0501 24.3041 17.2653 26.5186C18.6249 27.8785 20.576 28.2875 22.316 27.7095L29.9732 35.3664C30.8354 36.2291 32.232 36.2293 33.0948 35.3664C33.9553 34.5059 33.9553 33.1056 33.0948 32.2449L25.4348 24.5849ZM17.8425 25.9413C17.0866 25.1854 16.6623 24.1742 16.6377 23.1262L18.2451 24.734L22.3391 24.6108L22.4639 20.5152L20.8579 18.9093C21.9192 18.9332 22.9145 19.3589 23.6698 20.114C25.2761 21.7206 25.2761 24.3348 23.6698 25.9413C22.0593 27.5518 19.453 27.5518 17.8425 25.9413ZM32.5177 34.7892C31.9919 35.3145 31.0757 35.3145 30.5504 34.7892L23.1219 27.3609C23.5297 27.1375 23.909 26.8564 24.247 26.5185C24.5886 26.1768 24.8666 25.7957 25.087 25.3914L32.5177 32.8219C33.0599 33.3644 33.0599 34.2469 32.5177 34.7892Z" fill="#4AC328"/>
<path d="M31.3363 34.3192C31.7281 34.3192 32.0457 34.0016 32.0457 33.6098C32.0457 33.218 31.7281 32.9004 31.3363 32.9004C30.9446 32.9004 30.627 33.218 30.627 33.6098C30.627 34.0016 30.9446 34.3192 31.3363 34.3192Z" fill="#4AC328"/>
<path d="M26.0792 28.9151L28.5977 31.4336L29.1749 30.8564L26.6565 28.3379L26.0792 28.9151Z" fill="#4AC328"/>
<path d="M25.6593 27.3407L25.082 27.918L25.571 28.4069L26.1482 27.8296L25.6593 27.3407Z" fill="#4AC328"/>
<path d="M36.7382 17.5254H35.9219V29.1936H36.7382V17.5254Z" fill="#4AC328"/>
<path d="M36.7382 14.2441H35.9219V15.6878H36.7382V14.2441Z" fill="#4AC328"/>
<path d="M18.1147 3.93359H15.791V4.74992H18.1147V3.93359Z" fill="#4AC328"/>
<path d="M14.2536 3.93359H3.91602V4.74992H14.2536V3.93359Z" fill="#4AC328"/>
</g>
<defs>
<clipPath id="clip0_206_101">
<rect width="40" height="40" fill="white"/>
</clipPath>
</defs>
</svg>
