<svg width="40" height="40" viewBox="0 0 40 40" fill="none" xmlns="http://www.w3.org/2000/svg">
<g clip-path="url(#clip0_206_162)">
<path d="M17.4492 24.2923C17.4492 24.2923 17.4492 24.359 17.4492 24.3923C17.4492 24.4257 17.4492 24.3923 17.4492 24.3923V24.459C17.4595 24.4937 17.4735 24.5272 17.4909 24.559L17.5326 24.634C17.5529 24.6681 17.5781 24.699 17.6076 24.7257C17.6076 24.7257 17.6076 24.7673 17.6076 24.784H17.6492L17.6909 24.834H17.7326L17.8242 24.884L17.9076 24.9257H17.9659C18.0295 24.9338 18.0939 24.9338 18.1576 24.9257V24.9257C18.224 24.9337 18.2911 24.9337 18.3576 24.9257L27.7909 22.5673C27.9256 22.5329 28.0495 22.4653 28.1514 22.3707C28.2533 22.276 28.3299 22.1574 28.3742 22.0257L29.4909 18.6923L32.8909 15.2923C33.0461 15.1362 33.1332 14.925 33.1332 14.7048C33.1332 14.4847 33.0461 14.2735 32.8909 14.1173L28.3326 9.49233C28.1764 9.33712 27.9652 9.25 27.745 9.25C27.5249 9.25 27.3137 9.33712 27.1576 9.49233L23.7576 12.8923L20.4242 14.009C20.2924 14.0533 20.1738 14.1299 20.0792 14.2318C19.9846 14.3337 19.917 14.4576 19.8826 14.5923L17.4992 24.0257C17.4992 24.0257 17.4992 24.0923 17.4992 24.1257L17.4492 24.2923ZM27.6992 11.259L31.2409 14.8007L28.8826 17.159L25.3409 13.6173L27.6992 11.259ZM21.3242 15.4257L23.9409 14.5923L27.9242 18.5757L27.0909 21.1923L21.0242 22.709L22.9409 20.7923C23.0694 20.821 23.2008 20.835 23.3326 20.834C23.6622 20.834 23.9844 20.7362 24.2585 20.5531C24.5326 20.37 24.7462 20.1097 24.8724 19.8051C24.9985 19.5006 25.0315 19.1655 24.9672 18.8422C24.9029 18.5189 24.7441 18.2219 24.5111 17.9888C24.278 17.7557 23.981 17.597 23.6577 17.5327C23.3344 17.4684 22.9993 17.5014 22.6947 17.6275C22.3902 17.7537 22.1299 17.9673 21.9468 18.2414C21.7636 18.5155 21.6659 18.8377 21.6659 19.1673C21.6677 19.3109 21.6873 19.4536 21.7242 19.5923L19.8076 21.509L21.3242 15.4257Z" fill="#4AC328"/>
<path d="M37.5 0.833984H2.5C1.83696 0.833984 1.20107 1.09738 0.732233 1.56622C0.263392 2.03506 0 2.67094 0 3.33398L0 38.334C0 38.555 0.0877974 38.767 0.244078 38.9232C0.400358 39.0795 0.61232 39.1673 0.833333 39.1673H39.1667C39.3877 39.1673 39.5996 39.0795 39.7559 38.9232C39.9122 38.767 40 38.555 40 38.334V3.33398C40 2.67094 39.7366 2.03506 39.2678 1.56622C38.7989 1.09738 38.163 0.833984 37.5 0.833984V0.833984ZM1.66667 3.33398C1.66667 3.11297 1.75446 2.90101 1.91074 2.74473C2.06702 2.58845 2.27899 2.50065 2.5 2.50065H37.5C37.721 2.50065 37.933 2.58845 38.0893 2.74473C38.2455 2.90101 38.3333 3.11297 38.3333 3.33398V5.83398H1.66667V3.33398ZM38.3333 37.5007H1.66667V7.50065H38.3333V37.5007Z" fill="#4AC328"/>
<path d="M4.16732 5.00065C4.62756 5.00065 5.00065 4.62756 5.00065 4.16732C5.00065 3.70708 4.62756 3.33398 4.16732 3.33398C3.70708 3.33398 3.33398 3.70708 3.33398 4.16732C3.33398 4.62756 3.70708 5.00065 4.16732 5.00065Z" fill="#4AC328"/>
<path d="M7.49935 5.00065C7.95959 5.00065 8.33268 4.62756 8.33268 4.16732C8.33268 3.70708 7.95959 3.33398 7.49935 3.33398C7.03911 3.33398 6.66602 3.70708 6.66602 4.16732C6.66602 4.62756 7.03911 5.00065 7.49935 5.00065Z" fill="#4AC328"/>
<path d="M10.8333 5.00065C11.2936 5.00065 11.6667 4.62756 11.6667 4.16732C11.6667 3.70708 11.2936 3.33398 10.8333 3.33398C10.3731 3.33398 10 3.70708 10 4.16732C10 4.62756 10.3731 5.00065 10.8333 5.00065Z" fill="#4AC328"/>
<path d="M12.3912 27.7336C12.4495 27.8336 12.5162 27.9253 12.5828 28.0253C12.488 28.2791 12.4564 28.5523 12.491 28.8211C12.5255 29.0899 12.6251 29.3463 12.781 29.5679C12.937 29.7895 13.1447 29.9698 13.386 30.0931C13.6274 30.2163 13.8952 30.2789 14.1662 30.2753C14.3654 30.2731 14.5628 30.2365 14.7495 30.1669L15.0412 30.3586L20.2745 35.5919C20.352 35.67 20.4441 35.732 20.5457 35.7743C20.6472 35.8167 20.7562 35.8384 20.8662 35.8384C20.9762 35.8384 21.0851 35.8167 21.1867 35.7743C21.2882 35.732 21.3804 35.67 21.4578 35.5919C21.5359 35.5145 21.5979 35.4223 21.6402 35.3208C21.6826 35.2192 21.7043 35.1103 21.7043 35.0003C21.7043 34.8903 21.6826 34.7813 21.6402 34.6798C21.5979 34.5782 21.5359 34.4861 21.4578 34.4086L18.6328 31.5919C18.9162 31.5919 19.1912 31.6336 19.4662 31.6336C21.1448 31.6292 22.783 31.118 24.1662 30.1669C24.3531 30.2358 24.5503 30.2725 24.7495 30.2753C25.0805 30.2772 25.4047 30.1805 25.6805 29.9975C25.9564 29.8145 26.1715 29.5535 26.2985 29.2477C26.4254 28.942 26.4584 28.6054 26.3933 28.2808C26.3282 27.9562 26.1679 27.6584 25.9328 27.4253V27.4253C25.778 27.2703 25.5942 27.1474 25.3919 27.0635C25.1896 26.9796 24.9727 26.9365 24.7537 26.9365C24.5346 26.9365 24.3178 26.9796 24.1154 27.0635C23.9131 27.1474 23.7293 27.2703 23.5745 27.4253C23.3898 27.6144 23.2516 27.8438 23.1706 28.0954C23.0896 28.347 23.0681 28.614 23.1078 28.8753C22.0641 29.5598 20.8492 29.9375 19.6014 29.9655C18.3535 29.9935 17.1229 29.6706 16.0495 29.0336L15.7912 28.7753C15.8183 28.5297 15.7905 28.2812 15.7098 28.0477C15.6291 27.8143 15.4975 27.6016 15.3245 27.4253V27.4253C15.1481 27.2523 14.9355 27.1207 14.702 27.04C14.4685 26.9593 14.22 26.9315 13.9745 26.9586L13.7245 26.7003C13.0863 25.6277 12.762 24.3975 12.7885 23.1496C12.815 21.9018 13.1913 20.6865 13.8745 19.6419H14.1412C14.5801 19.6445 15.0023 19.4738 15.3162 19.1669C15.6266 18.8547 15.8008 18.4322 15.8008 17.9919C15.8008 17.5516 15.6266 17.1292 15.3162 16.8169V16.8169C15.1614 16.662 14.9776 16.539 14.7752 16.4552C14.5729 16.3713 14.356 16.3281 14.137 16.3281C13.918 16.3281 13.7011 16.3713 13.4988 16.4552C13.2964 16.539 13.1126 16.662 12.9578 16.8169C12.655 17.1355 12.4903 17.5608 12.4995 18.0003C12.5004 18.2004 12.54 18.3985 12.6162 18.5836C11.4806 20.2116 10.9635 22.1915 11.1578 24.1669L8.9245 21.9336C8.76758 21.7767 8.55475 21.6885 8.33284 21.6885C8.11092 21.6885 7.89809 21.7767 7.74117 21.9336C7.58425 22.0905 7.49609 22.3034 7.49609 22.5253C7.49609 22.7472 7.58425 22.96 7.74117 23.1169L12.3912 27.7336Z" fill="#4AC328"/>
</g>
<defs>
<clipPath id="clip0_206_162">
<rect width="40" height="40" fill="white"/>
</clipPath>
</defs>
</svg>
