<svg width="40" height="40" viewBox="0 0 40 40" fill="none" xmlns="http://www.w3.org/2000/svg">
<path d="M20.001 3.33398C16.7045 3.33395 13.4821 4.31144 10.7413 6.14282C8.0004 7.9742 5.86415 10.5772 4.60267 13.6227C3.34119 16.6682 3.01114 20.0194 3.65426 23.2524C4.29738 26.4855 5.88479 29.4553 8.21573 31.7862C10.5467 34.1171 13.5165 35.7044 16.7496 36.3474C19.9826 36.9905 23.3338 36.6603 26.3793 35.3988C29.4247 34.1372 32.0277 32.0009 33.859 29.26C35.6903 26.5191 36.6677 23.2967 36.6676 20.0003C36.6626 15.5816 34.905 11.3453 31.7805 8.22084C28.656 5.09639 24.4197 3.33891 20.001 3.33398V3.33398ZM5.01643 20.0003C5.01477 17.8988 5.45688 15.8207 6.31383 13.9019L13.4619 33.4862C10.9299 32.258 8.79491 30.3418 7.30132 27.9568C5.80772 25.5717 5.01587 22.8144 5.01643 20.0003V20.0003ZM20.001 34.986C18.5679 34.986 17.1423 34.7804 15.7676 34.3755L20.2641 21.311L24.8696 33.9299C24.8996 34.0016 24.9356 34.0707 24.977 34.1364C23.3785 34.6996 21.6958 34.9869 20.001 34.986V34.986ZM22.066 12.9746C22.9681 12.9272 23.7811 12.8323 23.7811 12.8323C23.9431 12.8173 24.0927 12.7392 24.1976 12.6149C24.3025 12.4905 24.3542 12.3299 24.3417 12.1677C24.3291 12.0055 24.2532 11.8547 24.1304 11.748C24.0076 11.6412 23.8478 11.5871 23.6854 11.5973C23.6854 11.5973 21.2583 11.7878 19.6913 11.7878C18.2191 11.7878 15.745 11.5973 15.745 11.5973C15.5828 11.5876 15.4234 11.642 15.301 11.7488C15.1786 11.8556 15.103 12.0061 15.0905 12.1681C15.0781 12.33 15.1297 12.4904 15.2344 12.6146C15.339 12.7389 15.4882 12.817 15.65 12.8323C15.65 12.8323 16.4141 12.9272 17.2216 12.9746L19.5562 19.3713L16.2762 29.206L10.8198 12.9746C11.7226 12.9272 12.5347 12.8323 12.5347 12.8323C12.6966 12.8172 12.846 12.739 12.9508 12.6147C13.0555 12.4903 13.1072 12.3298 13.0946 12.1677C13.082 12.0056 13.0062 11.8549 12.8836 11.7482C12.7609 11.6415 12.6012 11.5873 12.4389 11.5973C12.4389 11.5973 10.0124 11.7879 8.44538 11.7879C8.16421 11.7879 7.83258 11.7809 7.48103 11.7696C8.67238 9.95652 10.2433 8.4238 12.0853 7.27749C13.9272 6.13117 15.9961 5.39861 18.149 5.13046C20.3018 4.86232 22.4872 5.06499 24.5541 5.72445C26.6209 6.38392 28.5199 7.48445 30.1196 8.94994C30.0551 8.94597 29.992 8.93794 29.9257 8.93794C29.2398 8.95837 28.59 9.24966 28.1184 9.74806C27.6468 10.2465 27.3918 10.9114 27.4093 11.5973C27.5664 12.8822 28.0758 14.0985 28.8812 15.1118C29.6687 16.3479 30.0965 17.7789 30.1166 19.2444C29.9609 20.9038 29.5773 22.5339 28.9765 24.0886L27.4815 29.0825L22.066 12.9746ZM27.5343 32.9523L32.1111 19.7195C32.8376 18.0219 33.2247 16.1986 33.2507 14.3523C33.2516 13.837 33.218 13.3222 33.15 12.8114C35.0226 16.2384 35.4835 20.2611 34.4347 24.0229C33.3858 27.7848 30.91 30.9886 27.5343 32.9523V32.9523Z" fill="#4AC328"/>
</svg>
