<svg width="40" height="49" viewBox="0 0 40 49" fill="none" xmlns="http://www.w3.org/2000/svg">
<g clip-path="url(#clip0_201_33)">
<path d="M14.0057 10.4537C14.3087 10.4537 14.5691 10.3408 14.7869 10.1151C15.0047 9.88932 15.1136 9.61939 15.1136 9.30529C15.1136 8.99119 15.0047 8.72125 14.7869 8.49549C14.5691 8.26973 14.3087 8.15685 14.0057 8.15685C13.7027 8.15685 13.447 8.26973 13.2386 8.49549C13.0303 8.72125 12.9261 8.99119 12.9261 9.30529C12.9261 9.61939 13.0303 9.88932 13.2386 10.1151C13.447 10.3408 13.7027 10.4537 14.0057 10.4537ZM25.9943 10.4537C26.2973 10.4537 26.553 10.3408 26.7614 10.1151C26.9697 9.88932 27.0739 9.61939 27.0739 9.30529C27.0739 8.99119 26.9697 8.72125 26.7614 8.49549C26.553 8.26973 26.2973 8.15685 25.9943 8.15685C25.6913 8.15685 25.4309 8.26973 25.2131 8.49549C24.9953 8.72125 24.8864 8.99119 24.8864 9.30529C24.8864 9.61939 24.9953 9.88932 25.2131 10.1151C25.4309 10.3408 25.6913 10.4537 25.9943 10.4537ZM2.92614 15.872C3.72159 15.872 4.40341 16.1665 4.97159 16.7554C5.53977 17.3444 5.82386 18.0511 5.82386 18.8756V31.5379C5.82386 32.382 5.54451 33.0986 4.9858 33.6875C4.42708 34.2764 3.74053 34.5709 2.92614 34.5709C2.11174 34.5709 1.42045 34.2764 0.852273 33.6875C0.284091 33.0986 0 32.382 0 31.5379V18.8756C0 18.0511 0.284091 17.3444 0.852273 16.7554C1.42045 16.1665 2.11174 15.872 2.92614 15.872ZM33.0398 16.4315V36.0433C33.0398 36.9463 32.7367 37.7119 32.1307 38.3401C31.5246 38.9684 30.7955 39.2825 29.9432 39.2825H27.8125V45.9669C27.8125 46.8111 27.5284 47.5276 26.9602 48.1166C26.392 48.7055 25.7008 49 24.8864 49C24.072 49 23.3807 48.7055 22.8125 48.1166C22.2443 47.5276 21.9602 46.8111 21.9602 45.9669V39.2825H18.0398V45.9669C18.0398 46.8111 17.7557 47.5276 17.1875 48.1166C16.6193 48.7055 15.928 49 15.1136 49C14.3182 49 13.6364 48.7055 13.0682 48.1166C12.5 47.5276 12.2159 46.8111 12.2159 45.9669L12.1875 39.2825H10.0852C9.21402 39.2825 8.47538 38.9684 7.86932 38.3401C7.26326 37.7119 6.96023 36.9463 6.96023 36.0433V16.4315H33.0398ZM26.4489 4.50541C28.4754 5.58514 30.0947 7.09185 31.3068 9.02554C32.5189 10.9592 33.125 13.0745 33.125 15.3714H6.84659C6.84659 13.0745 7.45265 10.9592 8.66477 9.02554C9.87689 7.09185 11.5057 5.58514 13.5511 4.50541L11.5341 0.647837C11.4015 0.392628 11.4489 0.196314 11.6761 0.0588942C11.9223 -0.0588942 12.1117 -1.49012e-08 12.2443 0.235577L14.2898 4.1226C16.089 3.29808 17.9924 2.88582 20 2.88582C22.0076 2.88582 23.911 3.29808 25.7102 4.1226L27.7557 0.235577C27.8883 -1.49012e-08 28.0777 -0.0588942 28.3239 0.0588942C28.5511 0.196314 28.5985 0.392628 28.4659 0.647837L26.4489 4.50541ZM40 18.8756V31.5379C40 32.382 39.7159 33.0986 39.1477 33.6875C38.5795 34.2764 37.8883 34.5709 37.0739 34.5709C36.2784 34.5709 35.5966 34.2764 35.0284 33.6875C34.4602 33.0986 34.1761 32.382 34.1761 31.5379V18.8756C34.1761 18.0315 34.4602 17.3198 35.0284 16.7407C35.5966 16.1616 36.2784 15.872 37.0739 15.872C37.8883 15.872 38.5795 16.1616 39.1477 16.7407C39.7159 17.3198 40 18.0315 40 18.8756Z" fill="#4AC328"/>
</g>
<defs>
<clipPath id="clip0_201_33">
<rect width="40" height="49" fill="white"/>
</clipPath>
</defs>
</svg>
