<svg width="40" height="40" viewBox="0 0 40 40" fill="none" xmlns="http://www.w3.org/2000/svg">
<path d="M29.3788 16.3645C30.0132 15.8891 30.4602 15.2059 30.6417 14.4342C30.8232 13.6626 30.7276 12.8517 30.3715 12.1434C30.0155 11.4351 29.4217 10.8746 28.6942 10.56C27.9666 10.2453 27.1515 10.1965 26.3916 10.4221L23.2088 4.09006C23.1669 4.00663 23.106 3.93415 23.0311 3.87839C22.9562 3.82263 22.8693 3.78514 22.7773 3.7689C22.6854 3.75266 22.5909 3.75813 22.5014 3.78486C22.412 3.81159 22.33 3.85884 22.262 3.92286L10.758 14.7421L4.07839 18.0993C3.27088 18.5065 2.65789 19.2174 2.3739 20.076C2.08991 20.9346 2.15813 21.8709 2.56359 22.6793L5.32639 28.1753C5.52703 28.5759 5.80477 28.9331 6.14369 29.2262C6.4826 29.5193 6.87603 29.7427 7.30143 29.8835C7.72683 30.0243 8.17583 30.0797 8.6227 30.0467C9.06958 30.0136 9.50553 29.8927 9.90559 29.6909L10.2412 29.5221L12.3224 33.6637C12.6342 34.2859 13.0954 34.8211 13.6647 35.2215C14.2341 35.6218 14.8938 35.8748 15.5848 35.9577L17.8696 36.2341C17.8936 36.2367 17.9178 36.2381 17.942 36.2381C18.0566 36.2381 18.1688 36.2053 18.2653 36.1435C18.3619 36.0818 18.4387 35.9937 18.4868 35.8897L19.352 34.0141C19.4135 33.8802 19.4237 33.7284 19.3805 33.5875C19.3374 33.4466 19.2439 33.3265 19.118 33.2501L17.322 32.1621C17.0991 32.0267 16.9246 31.8245 16.8234 31.5842C16.7221 31.3438 16.6992 31.0777 16.758 30.8237L17.1016 29.3425C17.1208 29.2596 17.1221 29.1736 17.1055 29.0902C17.0889 29.0068 17.0548 28.9279 17.0054 28.8587C16.956 28.7895 16.8925 28.7315 16.819 28.6888C16.7455 28.646 16.6638 28.6193 16.5792 28.6105L14.6704 28.4117L14.2224 27.5213L16.5852 26.3333L32.1312 23.5565C32.2232 23.5401 32.31 23.5024 32.3849 23.4465C32.4597 23.3906 32.5205 23.318 32.5623 23.2345C32.6041 23.151 32.6258 23.0588 32.6257 22.9654C32.6255 22.872 32.6036 22.7799 32.5616 22.6965L29.3788 16.3645ZM29.2996 12.6805C29.5121 13.1046 29.581 13.5864 29.4958 14.0531C29.4107 14.5198 29.1762 14.9462 28.8276 15.2681L26.9428 11.5185C27.4085 11.4305 27.8902 11.4963 28.3152 11.7059C28.7403 11.9155 29.0858 12.2575 29.2996 12.6805V12.6805ZM14.5936 23.5129L11.0636 25.2873L11.014 25.2709L10.626 24.4989C10.6215 24.49 10.6207 24.4797 10.6238 24.4703C10.6269 24.4608 10.6336 24.453 10.6424 24.4485L14.1716 22.6749L14.5936 23.5129ZM9.36639 28.6193C8.84247 28.8826 8.23543 28.927 7.67876 28.7427C7.1221 28.5585 6.6614 28.1607 6.39799 27.6369L3.63519 22.1401C3.37265 21.616 3.32863 21.0091 3.51278 20.4526C3.69694 19.8961 4.09424 19.4353 4.61759 19.1713L10.8388 16.0441L13.6332 21.6025L10.104 23.3765C9.81111 23.5242 9.58878 23.782 9.48575 24.0934C9.38272 24.4049 9.4074 24.7444 9.55439 25.0377L9.94239 25.8097C10.015 25.955 10.1156 26.0846 10.2386 26.1908C10.3616 26.297 10.5044 26.3778 10.6588 26.4285C10.7846 26.4703 10.9162 26.4918 11.0488 26.4921C11.2414 26.4919 11.4314 26.4464 11.6032 26.3593L15.1324 24.5853L15.5884 25.4917L9.36639 28.6193ZM13.7452 29.2445C13.7903 29.3345 13.8574 29.4117 13.9402 29.469C14.0231 29.5262 14.119 29.5617 14.2192 29.5721L15.7784 29.7341L15.5884 30.5533C15.4727 31.0537 15.5179 31.5778 15.7175 32.051C15.9171 32.5243 16.2609 32.9224 16.7 33.1889L18.0372 33.9989L17.5796 34.9909L15.7288 34.7669C15.2343 34.7075 14.7622 34.5265 14.3547 34.24C13.9473 33.9535 13.6172 33.5705 13.394 33.1253L11.3128 28.9833L13.15 28.0601L13.7452 29.2445ZM29.7484 22.7633L25.1344 13.5833C25.0993 13.5123 25.0506 13.4489 24.991 13.3969C24.9313 13.3448 24.862 13.3051 24.7869 13.2799C24.7118 13.2548 24.6325 13.2448 24.5535 13.2504C24.4746 13.2561 24.3975 13.2773 24.3268 13.3129C24.2561 13.3484 24.1931 13.3977 24.1415 13.4577C24.0898 13.5177 24.0506 13.5874 24.026 13.6626C24.0015 13.7379 23.992 13.8173 23.9983 13.8962C24.0045 13.9751 24.0263 14.052 24.0624 14.1225L28.516 22.9833L16.7288 25.0889L11.8428 15.3689L20.5656 7.16566L22.3812 10.7781C22.4157 10.85 22.4641 10.9143 22.5237 10.9673C22.5833 11.0202 22.6529 11.0608 22.7284 11.0866C22.8038 11.1123 22.8837 11.1228 22.9632 11.1174C23.0428 11.1119 23.1205 11.0907 23.1917 11.0549C23.263 11.019 23.3264 10.9694 23.3782 10.9088C23.43 10.8482 23.4693 10.7779 23.4936 10.7019C23.518 10.626 23.5269 10.546 23.52 10.4665C23.513 10.3871 23.4903 10.3098 23.4532 10.2393L21.4772 6.30806L22.498 5.34806L26.8132 13.9321L28.0624 16.4181V16.4185L31.128 22.5165L29.7484 22.7633Z" fill="#4AC328"/>
<path d="M6.48444 19.3076C6.37288 19.3637 6.28045 19.4516 6.21886 19.5602C6.15727 19.6688 6.12927 19.7932 6.13841 19.9178C6.14756 20.0423 6.19343 20.1613 6.27022 20.2598C6.34702 20.3582 6.45129 20.4317 6.56984 20.4709C6.6884 20.51 6.81591 20.5132 6.93625 20.4799C7.05659 20.4466 7.16435 20.3783 7.2459 20.2838C7.32745 20.1892 7.37913 20.0726 7.39439 19.9487C7.40965 19.8248 7.38781 19.6991 7.33164 19.5876C7.29441 19.5136 7.24296 19.4476 7.18023 19.3935C7.1175 19.3393 7.04472 19.2981 6.96605 19.2721C6.88737 19.2461 6.80434 19.2358 6.72171 19.2419C6.63907 19.248 6.55845 19.2703 6.48444 19.3076ZM9.36124 18.5676C9.30516 18.456 9.21726 18.3636 9.10864 18.302C9.00003 18.2404 8.87559 18.2124 8.75106 18.2216C8.62653 18.2307 8.50751 18.2766 8.40906 18.3534C8.31061 18.4302 8.23714 18.5344 8.19796 18.653C8.15878 18.7715 8.15564 18.8991 8.18894 19.0194C8.22224 19.1397 8.29048 19.2475 8.38503 19.329C8.47959 19.4106 8.5962 19.4623 8.72013 19.4775C8.84406 19.4928 8.96972 19.471 9.08124 19.4148C9.23066 19.3395 9.34409 19.208 9.39659 19.0491C9.4491 18.8903 9.43638 18.7171 9.36124 18.5676V18.5676ZM33.232 5.01558C33.1681 4.96951 33.0957 4.93648 33.019 4.91839C32.9424 4.90029 32.8629 4.89747 32.7851 4.9101C32.7073 4.92273 32.6328 4.95055 32.5657 4.99199C32.4987 5.03342 32.4405 5.08765 32.3944 5.15158L29.8312 8.70758C29.7851 8.77151 29.7521 8.84389 29.734 8.92059C29.7158 8.99729 29.713 9.07681 29.7256 9.15461C29.7382 9.23241 29.766 9.30696 29.8075 9.37401C29.8489 9.44106 29.9031 9.49929 29.967 9.54538C30.031 9.59148 30.1033 9.62453 30.18 9.64265C30.2567 9.66077 30.3363 9.66361 30.4141 9.651C30.4919 9.63839 30.5664 9.61058 30.6335 9.56916C30.7005 9.52773 30.7587 9.47351 30.8048 9.40958L33.368 5.85318C33.4141 5.78926 33.4471 5.71688 33.4652 5.64019C33.4833 5.5635 33.4862 5.484 33.4735 5.40622C33.4609 5.32844 33.4331 5.25391 33.3916 5.18688C33.3502 5.11986 33.296 5.06165 33.232 5.01558V5.01558ZM37.2092 13.4948L32.826 13.43H32.8172C32.7384 13.4294 32.6603 13.4443 32.5873 13.4739C32.5143 13.5035 32.4478 13.5472 32.3916 13.6025C32.2782 13.7141 32.2139 13.8663 32.2126 14.0254C32.2114 14.1845 32.2735 14.3376 32.3851 14.451C32.4968 14.5644 32.6489 14.6288 32.808 14.63L37.1912 14.6948H37.2008C37.2796 14.6954 37.3578 14.6804 37.4308 14.6508C37.5038 14.6212 37.5703 14.5775 37.6264 14.5222C37.6825 14.4669 37.7272 14.401 37.7579 14.3285C37.7886 14.2559 37.8047 14.178 37.8052 14.0992C37.8058 14.0204 37.7909 13.9423 37.7613 13.8692C37.7316 13.7962 37.6879 13.7298 37.6326 13.6736C37.5773 13.6175 37.5115 13.5728 37.4389 13.5421C37.3663 13.5115 37.2884 13.4954 37.2096 13.4948H37.2092ZM32.3348 11.7588C32.4284 11.7589 32.5206 11.737 32.604 11.6948L37.1144 9.42758C37.1854 9.39254 37.2488 9.34379 37.3008 9.28414C37.3529 9.2245 37.3926 9.15515 37.4178 9.08007C37.4429 9.005 37.4529 8.9257 37.4473 8.84673C37.4416 8.76777 37.4204 8.6907 37.3848 8.61998C37.3493 8.54925 37.3 8.48626 37.24 8.43465C37.18 8.38303 37.1103 8.3438 37.0351 8.31923C36.9598 8.29465 36.8804 8.28521 36.8015 8.29145C36.7226 8.29769 36.6457 8.31949 36.5752 8.35558L32.0648 10.6236C31.9442 10.6843 31.8475 10.7839 31.7905 10.9064C31.7335 11.0288 31.7195 11.1669 31.7507 11.2983C31.782 11.4297 31.8566 11.5468 31.9626 11.6305C32.0686 11.7142 32.1998 11.7597 32.3348 11.7596V11.7588Z" fill="#4AC328"/>
</svg>
