<svg width="40" height="40" viewBox="0 0 40 40" fill="none" xmlns="http://www.w3.org/2000/svg">
<g clip-path="url(#clip0_203_224)">
<path d="M36.0219 29.6509C36.9809 27.858 37.4882 25.8583 37.4998 23.8251C37.5114 21.7919 37.0269 19.7866 36.0884 17.9829C35.1498 16.1792 33.7856 14.6317 32.1138 13.4744C30.4421 12.3171 28.5133 11.585 26.4947 11.3416C25.8315 9.78984 24.861 8.38845 23.6416 7.22188C22.4223 6.0553 20.9794 5.14769 19.3998 4.55375C17.8203 3.95981 16.1369 3.69183 14.451 3.76598C12.7651 3.84013 11.1117 4.25486 9.5904 4.98517C8.06911 5.71549 6.71144 6.74627 5.59922 8.0154C4.487 9.28452 3.64327 10.7657 3.11887 12.3697C2.59448 13.9736 2.40027 15.6672 2.54797 17.3482C2.69567 19.0292 3.18221 20.663 3.97826 22.1509L3.01192 25.5337C2.90469 25.9088 2.89973 26.3057 2.99754 26.6834C3.09535 27.061 3.29237 27.4057 3.5682 27.6815C3.84403 27.9574 4.18861 28.1545 4.56625 28.2524C4.94388 28.3503 5.34082 28.3454 5.71593 28.2382L9.09911 27.2717C10.4682 28.0045 11.962 28.4752 13.5038 28.6598C14.1854 30.2542 15.1912 31.6896 16.4572 32.8745C17.7232 34.0595 19.2219 34.9682 20.8579 35.543C22.494 36.1177 24.2317 36.3459 25.9606 36.2132C27.6896 36.0804 29.3721 35.5895 30.9012 34.7716L34.2842 35.7383C34.6593 35.8454 35.0562 35.8503 35.4338 35.7524C35.8115 35.6545 36.156 35.4575 36.4319 35.1816C36.7077 34.9058 36.9047 34.5612 37.0026 34.1836C37.1004 33.8059 37.0955 33.409 36.9884 33.0339L36.0219 29.6509ZM33.602 28.8528C33.5149 28.9992 33.4587 29.1619 33.4368 29.3308C33.4148 29.4997 33.4276 29.6714 33.4744 29.8352L34.4301 33.1799L31.0854 32.2243C30.9216 32.1775 30.75 32.1647 30.5811 32.1867C30.4122 32.2086 30.2495 32.2648 30.1031 32.3519C28.9591 33.0298 27.6915 33.473 26.3742 33.6553C25.057 33.8377 23.7166 33.7557 22.4314 33.414C21.1462 33.0723 19.9421 32.4779 18.8893 31.6654C17.8365 30.8529 16.9563 29.8388 16.3 28.6822C18.0123 28.505 19.6693 27.9756 21.1672 27.1274C22.665 26.2792 23.9713 25.1303 25.0039 23.7531C26.0366 22.3759 26.7732 20.8001 27.1677 19.1245C27.5622 17.449 27.606 15.71 27.2962 14.0167C28.8235 14.3775 30.2444 15.0925 31.4442 16.104C32.6441 17.1154 33.5891 18.395 34.2029 19.8393C34.8168 21.2835 35.0822 22.8519 34.9778 24.4177C34.8734 25.9835 34.4021 27.5028 33.602 28.8528Z" fill="#4AC328"/>
</g>
<defs>
<clipPath id="clip0_203_224">
<rect width="40" height="40" fill="white"/>
</clipPath>
</defs>
</svg>
