<svg width="40" height="40" viewBox="0 0 40 40" fill="none" xmlns="http://www.w3.org/2000/svg">
<path d="M38.7502 19.9994C38.7478 18.1121 38.0349 16.2949 36.7535 14.9093C35.472 13.5237 33.7159 12.6714 31.8346 12.5219C31.7197 11.6762 31.3587 10.8829 30.7964 10.2409C30.234 9.5989 29.4953 9.13649 28.6721 8.91126C28.4456 7.09321 27.6536 5.39227 26.4081 4.0487C25.1625 2.70513 23.5263 1.78685 21.7306 1.42358C19.9349 1.0603 18.0704 1.2704 16.4006 2.02418C14.7307 2.77796 13.3399 4.03733 12.4246 5.62439C10.5529 5.63778 8.75457 6.35352 7.38561 7.62988C6.01665 8.90625 5.17691 10.6502 5.03268 12.5163C3.77579 13.3094 2.76096 14.4326 2.09901 15.7632C1.43705 17.0939 1.1534 18.5808 1.27904 20.0617C1.40468 21.5426 1.93477 22.9605 2.81143 24.1606C3.6881 25.3607 4.87764 26.2969 6.25018 26.8669V33.7494H5.62518C5.29366 33.7494 4.97572 33.8811 4.74129 34.1155C4.50687 34.3499 4.37518 34.6679 4.37518 34.9994V36.8744C4.37518 37.3717 4.57272 37.8486 4.92435 38.2002C5.27598 38.5518 5.7529 38.7494 6.25018 38.7494H33.7502C34.2475 38.7494 34.7244 38.5518 35.076 38.2002C35.4276 37.8486 35.6252 37.3717 35.6252 36.8744V34.9994C35.6252 34.6679 35.4935 34.3499 35.2591 34.1155C35.0246 33.8811 34.7067 33.7494 34.3752 33.7494H33.7502V27.0619C35.2096 26.5432 36.4733 25.5863 37.3682 24.3222C38.2632 23.058 38.7459 21.5483 38.7502 19.9994V19.9994ZM34.3752 36.8744C34.3752 37.0401 34.3093 37.1991 34.1921 37.3163C34.0749 37.4335 33.9159 37.4994 33.7502 37.4994H6.25018C6.08442 37.4994 5.92545 37.4335 5.80824 37.3163C5.69103 37.1991 5.62518 37.0401 5.62518 36.8744V34.9994H15.0002V35.6244C15.0002 35.9559 15.1319 36.2738 15.3663 36.5083C15.6007 36.7427 15.9187 36.8744 16.2502 36.8744H23.7502C24.0817 36.8744 24.3996 36.7427 24.6341 36.5083C24.8685 36.2738 25.0002 35.9559 25.0002 35.6244V34.9994H34.3752V36.8744ZM23.7502 35.6244H16.2502V34.9994H23.7502V35.6244ZM7.50018 33.7494V18.1244C7.50018 17.9586 7.56603 17.7997 7.68324 17.6824C7.80045 17.5652 7.95942 17.4994 8.12518 17.4994H11.8752V16.2494H8.12518C7.6279 16.2494 7.15098 16.4469 6.79935 16.7986C6.44772 17.1502 6.25018 17.6271 6.25018 18.1244V25.4919C5.14752 24.9307 4.21707 24.0819 3.55731 23.0353C2.89754 21.9887 2.53299 20.7832 2.50225 19.5463C2.47151 18.3095 2.77571 17.0873 3.38267 16.0092C3.98963 14.9311 4.87676 14.0371 5.95018 13.4219C6.04196 13.369 6.11879 13.2936 6.17346 13.2029C6.22812 13.1121 6.25882 13.009 6.26268 12.9031C6.31327 11.2841 6.99315 9.74857 8.15787 8.62283C9.32259 7.49709 10.8803 6.86985 12.5002 6.87439C12.5371 6.87439 12.5727 6.87439 12.6077 6.87939C12.7489 6.90251 12.8938 6.88361 13.0244 6.82505C13.1549 6.76649 13.2654 6.67085 13.3421 6.55001C14.0925 5.09831 15.2971 3.93182 16.7722 3.22833C18.2472 2.52485 19.9118 2.32296 21.5123 2.65344C23.1127 2.98392 24.5612 3.82865 25.637 5.05886C26.7127 6.28907 27.3567 7.83728 27.4708 9.46751C27.4806 9.6083 27.5377 9.74164 27.6329 9.84582C27.7282 9.94999 27.8558 10.0189 27.9952 10.0413C28.7296 10.1562 29.3986 10.5304 29.881 11.0959C30.3634 11.6615 30.6274 12.381 30.6252 13.1244C30.6252 13.2901 30.691 13.4491 30.8082 13.5663C30.9254 13.6835 31.0844 13.7494 31.2502 13.7494C32.6859 13.7483 34.0782 14.2418 35.1927 15.1469C36.3073 16.052 37.0759 17.3134 37.3694 18.7189C37.6629 20.1243 37.4632 21.5879 36.804 22.8634C36.1449 24.1389 35.0664 25.1484 33.7502 25.7219V18.1244C33.7502 17.6271 33.5526 17.1502 33.201 16.7986C32.8494 16.4469 32.3725 16.2494 31.8752 16.2494H28.7502V17.4994H31.8752C32.0409 17.4994 32.1999 17.5652 32.3171 17.6824C32.4343 17.7997 32.5002 17.9586 32.5002 18.1244V33.7494H7.50018Z" fill="#4AC328"/>
<path d="M16.25 15C16.9404 15 17.5 14.4404 17.5 13.75C17.5 13.0596 16.9404 12.5 16.25 12.5C15.5596 12.5 15 13.0596 15 13.75C15 14.4404 15.5596 15 16.25 15Z" fill="#CDCCC0"/>
<path d="M16.25 21.875C16.9404 21.875 17.5 21.3154 17.5 20.625C17.5 19.9346 16.9404 19.375 16.25 19.375C15.5596 19.375 15 19.9346 15 20.625C15 21.3154 15.5596 21.875 16.25 21.875Z" fill="#CDCCC0"/>
<path d="M20 15C20.6904 15 21.25 14.4404 21.25 13.75C21.25 13.0596 20.6904 12.5 20 12.5C19.3096 12.5 18.75 13.0596 18.75 13.75C18.75 14.4404 19.3096 15 20 15Z" fill="#CDCCC0"/>
<path d="M20 21.875C20.6904 21.875 21.25 21.3154 21.25 20.625C21.25 19.9346 20.6904 19.375 20 19.375C19.3096 19.375 18.75 19.9346 18.75 20.625C18.75 21.3154 19.3096 21.875 20 21.875Z" fill="#CDCCC0"/>
<path d="M23.75 15C24.4404 15 25 14.4404 25 13.75C25 13.0596 24.4404 12.5 23.75 12.5C23.0596 12.5 22.5 13.0596 22.5 13.75C22.5 14.4404 23.0596 15 23.75 15Z" fill="#CDCCC0"/>
<path d="M23.75 21.875C24.4404 21.875 25 21.3154 25 20.625C25 19.9346 24.4404 19.375 23.75 19.375C23.0596 19.375 22.5 19.9346 22.5 20.625C22.5 21.3154 23.0596 21.875 23.75 21.875Z" fill="#CDCCC0"/>
<path d="M28.7492 25.625C28.3481 25.626 27.9532 25.7234 27.5977 25.9091C27.2422 26.0948 26.9366 26.3633 26.7067 26.6919L24.3742 25.8169V23.75H25.6242C26.1215 23.75 26.5984 23.5525 26.95 23.2008C27.3017 22.8492 27.4992 22.3723 27.4992 21.875V19.375C27.4992 18.8777 27.3017 18.4008 26.95 18.0492C26.5984 17.6975 26.1215 17.5 25.6242 17.5V16.875C26.1215 16.875 26.5984 16.6775 26.95 16.3258C27.3017 15.9742 27.4992 15.4973 27.4992 15V12.5C27.4992 12.0027 27.3017 11.5258 26.95 11.1742C26.5984 10.8225 26.1215 10.625 25.6242 10.625H14.3742C13.8769 10.625 13.4 10.8225 13.0484 11.1742C12.6968 11.5258 12.4992 12.0027 12.4992 12.5V15C12.4992 15.4973 12.6968 15.9742 13.0484 16.3258C13.4 16.6775 13.8769 16.875 14.3742 16.875V17.5C13.8769 17.5 13.4 17.6975 13.0484 18.0492C12.6968 18.4008 12.4992 18.8777 12.4992 19.375V21.875C12.4992 22.3723 12.6968 22.8492 13.0484 23.2008C13.4 23.5525 13.8769 23.75 14.3742 23.75H15.6242V25.8169L13.2917 26.6919C12.948 26.2057 12.4416 25.8585 11.8642 25.7132C11.2868 25.5678 10.6764 25.6339 10.1434 25.8994C9.61049 26.1649 9.19013 26.6124 8.95837 27.1609C8.72661 27.7093 8.69875 28.3226 8.87983 28.8899C9.06091 29.4571 9.43897 29.9408 9.94566 30.2536C10.4524 30.5663 11.0542 30.6874 11.6424 30.595C12.2307 30.5026 12.7664 30.2028 13.1528 29.7498C13.5392 29.2968 13.7508 28.7204 13.7492 28.125C13.7452 28.0379 13.7364 27.9511 13.723 27.865L16.4686 26.8356C16.5878 26.7909 16.6905 26.7109 16.763 26.6063C16.8355 26.5016 16.8743 26.3773 16.8742 26.25V23.75H19.3742V25.7138C18.785 25.8659 18.2716 26.2276 17.9301 26.7313C17.5886 27.2349 17.4425 27.8457 17.5191 28.4494C17.5958 29.053 17.89 29.608 18.3466 30.0102C18.8031 30.4124 19.3907 30.6344 19.9992 30.6344C20.6077 30.6344 21.1953 30.4124 21.6519 30.0102C22.1084 29.608 22.4026 29.053 22.4793 28.4494C22.556 27.8457 22.4098 27.2349 22.0683 26.7313C21.7268 26.2276 21.2134 25.8659 20.6242 25.7138V23.75H23.1242V26.25C23.1241 26.3773 23.1629 26.5016 23.2354 26.6063C23.3079 26.7109 23.4106 26.7909 23.5298 26.8356L26.2755 27.865C26.262 27.9511 26.2532 28.0379 26.2492 28.125C26.2492 28.6195 26.3958 29.1028 26.6705 29.5139C26.9452 29.9251 27.3357 30.2455 27.7925 30.4347C28.2493 30.6239 28.752 30.6734 29.2369 30.577C29.7219 30.4805 30.1673 30.2424 30.517 29.8928C30.8666 29.5431 31.1047 29.0977 31.2012 28.6127C31.2976 28.1278 31.2481 27.6251 31.0589 27.1683C30.8697 26.7115 30.5493 26.321 30.1381 26.0463C29.727 25.7716 29.2437 25.625 28.7492 25.625ZM11.2492 29.375C11.002 29.375 10.7603 29.3017 10.5547 29.1643C10.3492 29.027 10.189 28.8318 10.0944 28.6034C9.99975 28.3749 9.975 28.1236 10.0232 27.8811C10.0715 27.6387 10.1905 27.4159 10.3653 27.2411C10.5401 27.0663 10.7629 26.9473 11.0053 26.899C11.2478 26.8508 11.4992 26.8755 11.7276 26.9702C11.956 27.0648 12.1512 27.225 12.2885 27.4305C12.4259 27.6361 12.4992 27.8778 12.4992 28.125C12.4992 28.4565 12.3675 28.7745 12.1331 29.0089C11.8987 29.2433 11.5807 29.375 11.2492 29.375ZM21.2492 28.125C21.2492 28.3722 21.1759 28.6139 21.0385 28.8195C20.9012 29.025 20.706 29.1852 20.4776 29.2799C20.2492 29.3745 19.9978 29.3992 19.7553 29.351C19.5129 29.3028 19.2901 29.1837 19.1153 29.0089C18.9405 28.8341 18.8215 28.6113 18.7732 28.3689C18.725 28.1264 18.7498 27.8751 18.8444 27.6466C18.939 27.4182 19.0992 27.223 19.3047 27.0857C19.5103 26.9483 19.752 26.875 19.9992 26.875C20.3307 26.875 20.6487 27.0067 20.8831 27.2411C21.1175 27.4755 21.2492 27.7935 21.2492 28.125ZM13.7492 15V12.5C13.7492 12.3342 13.8151 12.1753 13.9323 12.0581C14.0495 11.9408 14.2085 11.875 14.3742 11.875H25.6242C25.79 11.875 25.9489 11.9408 26.0662 12.0581C26.1834 12.1753 26.2492 12.3342 26.2492 12.5V15C26.2492 15.1658 26.1834 15.3247 26.0662 15.4419C25.9489 15.5592 25.79 15.625 25.6242 15.625H14.3742C14.2085 15.625 14.0495 15.5592 13.9323 15.4419C13.8151 15.3247 13.7492 15.1658 13.7492 15ZM15.6242 16.875H24.3742V17.5H15.6242V16.875ZM13.7492 21.875V19.375C13.7492 19.2092 13.8151 19.0503 13.9323 18.9331C14.0495 18.8158 14.2085 18.75 14.3742 18.75H25.6242C25.79 18.75 25.9489 18.8158 26.0662 18.9331C26.1834 19.0503 26.2492 19.2092 26.2492 19.375V21.875C26.2492 22.0408 26.1834 22.1997 26.0662 22.3169C25.9489 22.4342 25.79 22.5 25.6242 22.5H14.3742C14.2085 22.5 14.0495 22.4342 13.9323 22.3169C13.8151 22.1997 13.7492 22.0408 13.7492 21.875ZM28.7492 29.375C28.502 29.375 28.2603 29.3017 28.0547 29.1643C27.8492 29.027 27.689 28.8318 27.5944 28.6034C27.4998 28.3749 27.475 28.1236 27.5232 27.8811C27.5715 27.6387 27.6905 27.4159 27.8653 27.2411C28.0401 27.0663 28.2629 26.9473 28.5053 26.899C28.7478 26.8508 28.9992 26.8755 29.2276 26.9702C29.456 27.0648 29.6512 27.225 29.7885 27.4305C29.9259 27.6361 29.9992 27.8778 29.9992 28.125C29.9992 28.4565 29.8675 28.7745 29.6331 29.0089C29.3987 29.2433 29.0807 29.375 28.7492 29.375Z" fill="#4AC328"/>
</svg>
