<svg width="40" height="40" viewBox="0 0 40 40" fill="none" xmlns="http://www.w3.org/2000/svg">
<path d="M28.4642 7.79125C26.4792 6.555 24.6067 6.06813 22.7342 4.83219C21.5727 4.04563 19.9627 2.17281 18.6136 0.5625C18.3517 3.14688 17.5652 4.19563 16.6667 4.94438C14.7564 6.44281 13.5577 6.89187 11.9098 7.79094C10.5239 8.5025 2.99609 12.9969 2.99609 22.6597C2.99609 32.3231 11.1236 39.4387 20.1495 39.4387C29.1767 39.4387 37.0039 32.8844 37.0039 22.9594C37.0039 13.0344 29.663 8.54 28.4642 7.79125V7.79125ZM28.6808 35.9144C28.4933 36.1019 26.7705 37.3003 24.7483 37.4875C22.7255 37.6747 19.9917 37.7875 18.3433 36.2891C18.0814 36.0266 18.1564 35.6525 18.3433 35.5025C18.5308 35.3528 18.6808 35.24 18.9055 35.24C19.1302 35.24 19.093 35.24 19.2052 35.315C19.9539 35.9141 21.0777 36.4013 23.4745 36.4013C25.872 36.4013 27.557 35.7269 28.3061 35.1653C28.6436 34.9028 28.7933 35.1281 28.8305 35.2775C28.8683 35.4275 28.9433 35.6525 28.6808 35.9144ZM22.1264 32.5063C22.5383 32.1316 23.213 31.5328 23.8495 31.2703C24.4861 31.0084 24.8236 31.0456 25.4223 31.0456C26.0217 31.0456 26.6583 31.0828 27.1083 31.3828C27.5577 31.6822 27.8198 32.3566 27.9695 32.7309C28.1192 33.1053 27.9695 33.33 27.6698 33.4797C27.408 33.6297 27.3702 33.5547 27.1083 33.0684C26.8458 32.5813 26.6211 32.0944 25.3102 32.0944C23.9992 32.0944 23.587 32.5438 22.9505 33.0684C22.3139 33.5928 22.0892 33.78 21.8645 33.4797C21.6398 33.1803 21.7142 32.8809 22.1264 32.5063V32.5063ZM32.0517 32.8059C30.7036 32.6938 28.0064 28.4988 26.2833 28.4241C24.1117 28.3491 19.3917 32.9556 15.6839 32.9556C13.437 32.9556 12.763 32.6191 12.0136 32.1316C10.8898 31.3453 10.3283 30.1466 10.3658 28.4988C10.4033 25.5772 13.1373 22.8431 16.583 22.8056C20.9652 22.7688 23.9986 27.1503 26.2089 27.1128C28.0814 27.0756 31.677 23.4053 33.4373 23.4053C35.3098 23.4053 35.8348 25.3528 35.8348 26.5138C35.8348 27.6747 35.4602 29.7722 34.5611 31.0828C33.662 32.3938 33.1005 32.8809 32.0517 32.8059V32.8059Z" fill="#4AC328"/>
</svg>
