<svg width="40" height="40" viewBox="0 0 40 40" fill="none" xmlns="http://www.w3.org/2000/svg">
<g clip-path="url(#clip0_202_57)">
<path d="M9.99984 26.1583L3.83984 19.9983L23.8415 0H36.1598L9.99984 26.1583ZM36.1582 18.455H23.8398L19.2265 23.0683L25.3865 29.2283L36.1582 18.455V18.455Z" fill="#262925" fill-opacity="0.8"/>
<path d="M19.2266 35.3868L23.8416 40.0002H36.1599L25.3882 29.2285L19.2266 35.3868V35.3868Z" fill="#151813"/>
<path d="M13.082 29.2317L19.232 23.0801L25.382 29.2301L19.232 35.3817L13.082 29.2317Z" fill="#151813"/>
<path d="M19.2324 35.3824L25.3824 29.2324L26.2408 30.0908L20.0908 36.2408L19.2324 35.3824Z" fill="url(#paint0_linear_202_57)"/>
<path d="M19.2266 35.3868L28.3649 32.2302L25.3849 29.2285L19.2266 35.3868V35.3868Z" fill="url(#paint1_linear_202_57)"/>
</g>
<defs>
<linearGradient id="paint0_linear_202_57" x1="22.2345" y1="32.2755" x2="23.1195" y2="33.1606" gradientUnits="userSpaceOnUse">
<stop offset="0.2" stop-opacity="0.15"/>
<stop offset="0.85" stop-color="#616161" stop-opacity="0.01"/>
</linearGradient>
<linearGradient id="paint1_linear_202_57" x1="19.7104" y1="32.5779" x2="28.1897" y2="32.5779" gradientUnits="userSpaceOnUse">
<stop offset="0.2" stop-opacity="0.55"/>
<stop offset="0.85" stop-color="#616161" stop-opacity="0.01"/>
</linearGradient>
<clipPath id="clip0_202_57">
<rect width="40" height="40" fill="white"/>
</clipPath>
</defs>
</svg>
