<svg width="40" height="40" viewBox="0 0 40 40" fill="none" xmlns="http://www.w3.org/2000/svg">
<g clip-path="url(#clip0_204_238)">
<path d="M26.6673 0L40.0007 40H30.2507C28.834 40 27.584 39.4167 26.6673 38.4583C26.1673 37.9583 25.7923 37.3333 25.5423 36.6667L13.334 0H26.6673Z" fill="#0F9D58"/>
<path d="M26.6667 0L20 20L40 40L26.6667 0Z" fill="url(#paint0_linear_204_238)"/>
<path opacity="0.2" d="M0 39.9993L0.0833333 39.791L0 39.9993Z" fill="#263238"/>
<path d="M13.3333 0L0 40H9.75C11.1667 40 12.4167 39.4167 13.3333 38.4583C13.8333 37.9583 14.2083 37.3333 14.4583 36.6667L26.6667 0H13.3333Z" fill="#4285F5"/>
<path d="M26.5417 0.208333L26.6667 0H13.3333L0 40L0.125 39.7917L13.3333 0.208333H26.5417Z" fill="white" fill-opacity="0.2"/>
<path d="M14.4583 36.4583C14.4583 36.5 14.4583 36.5 14.4583 36.4583C14.2083 37.125 13.8333 37.75 13.3333 38.25C12.4167 39.1667 11.1667 39.7917 9.75 39.7917H0.125L0 40H9.75C11.1667 40 12.4167 39.4167 13.3333 38.4583C13.8333 37.9583 14.2083 37.3333 14.4583 36.6667L26.6667 0L26.5417 0.208333L14.4583 36.4583Z" fill="#263238" fill-opacity="0.2"/>
<path d="M14.4583 36.7083C14.2083 37.375 13.8333 38 13.3333 38.5C12.4167 39.4167 11.1667 40.0417 9.75 40.0417L0.0833333 40L0 40.2083H9.75C11.1667 40.2083 12.4167 39.625 13.3333 38.6667C13.8333 38.1667 14.2083 37.5417 14.4583 36.875L26.7083 0.0833333L26.6667 0L14.4583 36.7083Z" fill="#263238" fill-opacity="0.1"/>
<path d="M39.9167 39.7917L26.6667 0V0.208333L39.875 39.7917H30.2083C28.7917 39.7917 27.5417 39.2083 26.625 38.25C26.125 37.75 25.75 37.125 25.5 36.4583L25.5833 36.6667C25.8333 37.3333 26.2083 37.9583 26.7083 38.4583C27.625 39.375 28.875 40 30.2917 40H40L39.9167 39.7917Z" fill="#263238" fill-opacity="0.2"/>
<g opacity="0.6">
<path d="M26.6667 0H13.3333L0 40H9.75C11.1667 40 12.4167 39.4167 13.3333 38.4583C13.8333 37.9583 14.2083 37.3333 14.4583 36.6667L20 20L25.5417 36.6667C25.7917 37.3333 26.1667 37.9583 26.6667 38.4583C27.5833 39.375 28.8333 40 30.25 40H40L26.6667 0Z" fill="#4AC328"/>
</g>
</g>
<defs>
<linearGradient id="paint0_linear_204_238" x1="21.3413" y1="16.0754" x2="44.7708" y2="23.7433" gradientUnits="userSpaceOnUse">
<stop stop-color="#263238" stop-opacity="0.2"/>
<stop offset="1" stop-color="#263238" stop-opacity="0"/>
</linearGradient>
<clipPath id="clip0_204_238">
<rect width="40" height="40" fill="white"/>
</clipPath>
</defs>
</svg>
