<svg width="40" height="40" viewBox="0 0 40 40" fill="none" xmlns="http://www.w3.org/2000/svg">
<g clip-path="url(#clip0_201_17)">
<mask id="mask0_201_17" style="mask-type:alpha" maskUnits="userSpaceOnUse" x="0" y="0" width="40" height="40">
<path d="M30.6667 0H9.33333C4.17868 0 0 4.17868 0 9.33333V30.6667C0 35.8213 4.17868 40 9.33333 40H30.6667C35.8213 40 40 35.8213 40 30.6667V9.33333C40 4.17868 35.8213 0 30.6667 0Z" fill="white"/>
</mask>
<g mask="url(#mask0_201_17)">
<path d="M30.6667 0H9.33333C4.17868 0 0 4.17868 0 9.33333V30.6667C0 35.8213 4.17868 40 9.33333 40H30.6667C35.8213 40 40 35.8213 40 30.6667V9.33333C40 4.17868 35.8213 0 30.6667 0Z" fill="#4AC328"/>
<path fill-rule="evenodd" clip-rule="evenodd" d="M27.742 22.968H32.3436C32.8409 22.968 33.3178 23.1655 33.6694 23.5172C34.0211 23.8688 34.2186 24.3457 34.2186 24.843C34.2186 25.3403 34.0211 25.8172 33.6694 26.1688C33.3178 26.5205 32.8409 26.718 32.3436 26.718H29.892L31.5726 29.6497C31.8202 30.0815 31.8865 30.5938 31.757 31.0745C31.6274 31.5551 31.3127 31.9647 30.8816 32.2137C30.4506 32.4625 29.9386 32.5302 29.4577 32.402C28.9768 32.2738 28.5665 31.9601 28.3166 31.5297L21.2866 19.4157C21.2853 19.4137 20.8713 18.6747 21.0043 16.9823C21.0726 16.1123 21.5783 15.0727 22.5216 13.863L27.742 22.968ZM19.869 9.34933L20.5856 8.10766C20.7087 7.89442 20.8726 7.70751 21.068 7.55761C21.2633 7.40771 21.4863 7.29776 21.7241 7.23403C21.962 7.17029 22.2101 7.15403 22.4542 7.18617C22.6983 7.21831 22.9337 7.29821 23.147 7.42133C23.3602 7.54444 23.5471 7.70835 23.697 7.9037C23.8469 8.09905 23.9569 8.32201 24.0206 8.55985C24.0843 8.79769 24.1006 9.04576 24.0684 9.28988C24.0363 9.53401 23.9564 9.76942 23.8333 9.98266L16.3366 22.968H22.0713C22.2813 23.0333 23.9363 24.088 23.9513 25.618C23.9563 26.1153 23.8573 26.482 23.654 26.718H7.26562C6.76834 26.718 6.29143 26.5205 5.9398 26.1688C5.58817 25.8172 5.39062 25.3403 5.39062 24.843C5.39062 24.3457 5.58817 23.8688 5.9398 23.5172C6.29143 23.1655 6.76834 22.968 7.26562 22.968H12.0063L17.704 13.0993L15.8593 9.90433C15.7362 9.69108 15.6563 9.45568 15.6241 9.21155C15.592 8.96742 15.6083 8.71936 15.672 8.48152C15.7357 8.24368 15.8457 8.02072 15.9956 7.82537C16.1455 7.63002 16.3324 7.46611 16.5456 7.34299C16.7589 7.21988 16.9943 7.13997 17.2384 7.10784C17.4825 7.0757 17.7306 7.09196 17.9684 7.15569C18.2063 7.21942 18.4292 7.32938 18.6246 7.47928C18.8199 7.62918 18.9838 7.81608 19.107 8.02933L19.869 9.34933V9.34933ZM9.34762 27.7103C9.34762 27.7103 9.76862 27.3637 10.7276 27.383C11.3676 27.3963 12.191 27.7887 13.1996 28.561L11.344 31.557C11.0794 31.9842 10.659 32.2917 10.1717 32.4142C9.68436 32.5368 9.16848 32.4649 8.73329 32.2137C8.52602 32.094 8.34503 31.9338 8.20117 31.7425C8.05732 31.5513 7.95355 31.3329 7.89609 31.1006C7.83864 30.8683 7.82867 30.6268 7.86679 30.3905C7.90492 30.1543 7.99034 29.9281 8.11796 29.7257C8.51429 29.0973 8.92396 28.4257 9.34796 27.7103H9.34762Z" fill="white"/>
</g>
</g>
<defs>
<clipPath id="clip0_201_17">
<rect width="40" height="40" fill="white"/>
</clipPath>
</defs>
</svg>
