<svg width="40" height="40" viewBox="0 0 40 40" fill="none" xmlns="http://www.w3.org/2000/svg">
<path d="M12.4336 15.8995C12.4367 16.1193 12.5266 16.3289 12.6836 16.4828L14.3503 18.1495C14.4277 18.2276 14.5199 18.2896 14.6215 18.3319C14.723 18.3742 14.8319 18.396 14.9419 18.396C15.052 18.396 15.1609 18.3742 15.2624 18.3319C15.364 18.2896 15.4561 18.2276 15.5336 18.1495L22.4836 11.1995C23.114 10.46 23.9746 9.95392 24.9272 9.76241C25.8798 9.57091 26.8691 9.70513 27.7363 10.1435C28.6034 10.5819 29.2981 11.299 29.7087 12.1797C30.1193 13.0603 30.222 14.0534 30.0003 14.9995C29.9801 15.1288 29.9907 15.2612 30.0313 15.3857C30.0718 15.5102 30.1411 15.6234 30.2336 15.7161L32.5003 17.9828C32.5891 18.0721 32.697 18.1401 32.8159 18.1817C32.9348 18.2233 33.0615 18.2374 33.1866 18.223C33.3118 18.2085 33.432 18.1659 33.5383 18.0983C33.6445 18.0308 33.7341 17.94 33.8003 17.8328C34.5828 16.5226 34.9973 15.0255 35.0003 13.4995C35.0137 13.2552 35.0137 13.0104 35.0003 12.7661C35.8365 12.3625 36.564 11.7646 37.1219 11.0223C37.6798 10.2801 38.0519 9.41503 38.207 8.49953C38.3622 7.58404 38.2959 6.6447 38.0137 5.76006C37.7316 4.87542 37.2417 4.07118 36.5851 3.4146C35.9285 2.75802 35.1243 2.26816 34.2397 1.986C33.355 1.70384 32.4157 1.63756 31.5002 1.79271C30.5847 1.94787 29.7197 2.31994 28.9774 2.87783C28.2351 3.43572 27.6372 4.1632 27.2336 4.99946H26.5003C25.3857 4.99636 24.2815 5.21423 23.2517 5.64048C22.2218 6.06673 21.2867 6.6929 20.5003 7.48279L12.6669 15.3161C12.516 15.4727 12.4323 15.682 12.4336 15.8995V15.8995Z" fill="#4AC328"/>
<path d="M4.99946 12.7661C4.986 13.0104 4.986 13.2552 4.99946 13.4995C4.99727 14.6139 5.21556 15.7178 5.64176 16.7475C6.06796 17.7773 6.69364 18.7125 7.48279 19.4995L15.3161 27.3328C15.3936 27.4109 15.4858 27.4729 15.5873 27.5152C15.6889 27.5575 15.7978 27.5793 15.9078 27.5793C16.0178 27.5793 16.1267 27.5575 16.2283 27.5152C16.3298 27.4729 16.422 27.4109 16.4995 27.3328L18.1661 25.6661C18.2442 25.5887 18.3062 25.4965 18.3485 25.3949C18.3908 25.2934 18.4126 25.1845 18.4126 25.0745C18.4126 24.9645 18.3908 24.8555 18.3485 24.754C18.3062 24.6524 18.2442 24.5603 18.1661 24.4828L11.2828 17.4661C10.8743 17.0601 10.5505 16.577 10.3302 16.0448C10.1099 15.5127 9.99749 14.9421 9.99946 14.3661C9.99835 13.737 10.1322 13.1149 10.3919 12.5418C10.6517 11.9688 11.0313 11.4581 11.5052 11.0443C11.979 10.6304 12.5362 10.323 13.139 10.1428C13.7417 9.96253 14.3762 9.91366 14.9995 9.99946C15.1289 10.021 15.2616 10.011 15.3863 9.97041C15.5111 9.92979 15.6242 9.85972 15.7161 9.76612L17.9828 7.49946C18.0721 7.41064 18.1401 7.30273 18.1817 7.18385C18.2233 7.06497 18.2374 6.93821 18.223 6.81309C18.2085 6.68797 18.1659 6.56775 18.0983 6.46147C18.0308 6.35519 17.94 6.26561 17.8328 6.19946C16.3128 5.27505 14.5393 4.85502 12.7661 4.99946C12.3625 4.1632 11.7646 3.43572 11.0223 2.87783C10.2801 2.31994 9.41503 1.94787 8.49953 1.79271C7.58403 1.63756 6.6447 1.70384 5.76006 1.986C4.87542 2.26816 4.07118 2.75802 3.4146 3.4146C2.75802 4.07118 2.26816 4.87542 1.986 5.76006C1.70384 6.6447 1.63756 7.58404 1.79271 8.49953C1.94787 9.41503 2.31994 10.2801 2.87783 11.0223C3.43572 11.7646 4.1632 12.3625 4.99946 12.7661ZM34.9995 27.2328C35.0129 26.9885 35.0129 26.7437 34.9995 26.4995C35.0016 25.385 34.7833 24.2811 34.3572 23.2514C33.931 22.2217 33.3053 21.2864 32.5161 20.4995L24.6828 12.6661C24.6053 12.588 24.5132 12.526 24.4116 12.4837C24.3101 12.4414 24.2011 12.4196 24.0911 12.4196C23.9811 12.4196 23.8722 12.4414 23.7706 12.4837C23.6691 12.526 23.5769 12.588 23.4995 12.6661L21.8328 14.3328C21.7547 14.4103 21.6927 14.5024 21.6504 14.604C21.6081 14.7055 21.5863 14.8144 21.5863 14.9245C21.5863 15.0345 21.6081 15.1434 21.6504 15.2449C21.6927 15.3465 21.7547 15.4387 21.8328 15.5161L28.7828 22.4661C29.1874 22.8856 29.5035 23.382 29.7125 23.926C29.9215 24.47 30.0191 25.0504 29.9995 25.6328C30.0006 26.262 29.8667 26.884 29.607 27.4571C29.3473 28.0301 28.9676 28.5408 28.4938 28.9546C28.0199 29.3685 27.4627 29.6759 26.86 29.8561C26.2572 30.0364 25.6227 30.0853 24.9995 29.9995C24.87 29.9779 24.7373 29.9879 24.6126 30.0285C24.4878 30.0691 24.3747 30.1392 24.2828 30.2328L22.0161 32.4995C21.9268 32.5883 21.8588 32.6962 21.8172 32.8151C21.7756 32.9339 21.7615 33.0607 21.7759 33.1858C21.7904 33.3109 21.833 33.4312 21.9006 33.5375C21.9682 33.6437 22.0589 33.7333 22.1661 33.7995C23.7073 34.7482 25.5133 35.1748 27.3161 35.0161C27.7176 35.86 28.3164 36.5946 29.062 37.158C29.8076 37.7213 30.6779 38.0968 31.5993 38.2525C32.5207 38.4082 33.466 38.3397 34.3553 38.0526C35.2446 37.7656 36.0517 37.2685 36.7081 36.6035C37.3646 35.9385 37.8512 35.1251 38.1267 34.2322C38.4022 33.3392 38.4586 32.3931 38.2909 31.4738C38.1233 30.5544 37.7367 29.6891 37.1637 28.9508C36.5908 28.2126 35.8484 27.6233 34.9995 27.2328Z" fill="#4AC328"/>
<path d="M27.5661 24.1C27.563 23.8802 27.4731 23.6705 27.3161 23.5167L25.6495 21.85C25.572 21.7719 25.4798 21.7099 25.3783 21.6676C25.2767 21.6253 25.1678 21.6035 25.0578 21.6035C24.9478 21.6035 24.8389 21.6253 24.7373 21.6676C24.6358 21.7099 24.5436 21.7719 24.4661 21.85L17.5161 28.8C16.8857 29.5394 16.0251 30.0456 15.0725 30.2371C14.1199 30.4286 13.1306 30.2943 12.2634 29.856C11.3963 29.4176 10.7016 28.7005 10.291 27.8198C9.88045 26.9392 9.77776 25.9461 9.99946 25C10.0196 24.8706 10.009 24.7383 9.96844 24.6138C9.9279 24.4893 9.85859 24.3761 9.76612 24.2833L7.56612 21.9333C7.4773 21.844 7.3694 21.776 7.25052 21.7344C7.13164 21.6928 7.00488 21.6787 6.87976 21.6932C6.75464 21.7076 6.63442 21.7502 6.52814 21.8178C6.42185 21.8854 6.33227 21.9762 6.26612 22.0833C5.44566 23.411 5.00736 24.9393 4.99946 26.5C4.986 26.7443 4.986 26.9891 4.99946 27.2333C4.1632 27.6369 3.43572 28.2349 2.87783 28.9771C2.31994 29.7194 1.94787 30.5844 1.79271 31.4999C1.63756 32.4154 1.70384 33.3548 1.986 34.2394C2.26816 35.1241 2.75802 35.9283 3.4146 36.5849C4.07118 37.2415 4.87542 37.7313 5.76006 38.0135C6.6447 38.2956 7.58403 38.3619 8.49953 38.2068C9.41502 38.0516 10.2801 37.6795 11.0223 37.1216C11.7646 36.5638 12.3625 35.8363 12.7661 35H13.4995C14.614 35.0031 15.7182 34.7852 16.7481 34.359C17.7779 33.9327 18.7131 33.3066 19.4995 32.5167L27.3328 24.6833C27.4837 24.5268 27.5674 24.3175 27.5661 24.1V24.1Z" fill="#4AC328"/>
</svg>
