<svg width="40" height="40" viewBox="0 0 40 40" fill="none" xmlns="http://www.w3.org/2000/svg">
<path d="M20 36.1231C28.9046 36.1231 36.1231 28.9046 36.1231 20C36.1231 11.0955 28.9046 3.87695 20 3.87695C11.0955 3.87695 3.87695 11.0955 3.87695 20C3.87695 28.9046 11.0955 36.1231 20 36.1231Z" fill="white" stroke="#4AC328" stroke-width="2" stroke-miterlimit="10" stroke-linecap="round" stroke-linejoin="round"/>
<path d="M24.0606 29.4776C23.999 29.416 23.9375 29.3545 23.9375 29.293C23.9375 29.3545 23.999 29.416 24.0606 29.4776Z" fill="#535453"/>
<path d="M24.4317 29.8458C24.4317 29.8458 24.2471 29.7227 24.0625 29.4766C24.2471 29.7227 24.4317 29.8458 24.4317 29.8458Z" fill="#AA9678"/>
<path d="M29.17 19.3223C29.0469 19.3223 28.9238 19.5069 28.9238 19.753C28.9238 19.9992 29.0469 20.1838 29.17 20.1838C29.2931 20.1838 29.4161 19.9992 29.4161 19.753C29.4161 19.4453 29.2931 19.3223 29.17 19.3223Z" fill="white"/>
<path d="M25.0468 28.431C24.8006 28.3079 24.5545 28.2463 24.3083 28.1233C24.0006 28.0002 23.7545 27.9386 23.4468 27.8156C23.0776 27.6925 22.7083 27.631 22.3391 27.5079C21.8468 27.3848 21.3545 27.3233 20.8006 27.2617C21.1083 28.1848 21.416 29.0463 21.7237 29.9694C21.7237 30.154 21.7237 30.3386 21.7237 30.4617C21.0468 30.3386 20.3083 30.2771 19.5699 30.2771C18.8314 30.2771 18.0929 30.3386 17.416 30.4617C17.416 30.2771 17.416 30.0925 17.416 29.9694C17.7852 29.0463 18.0929 28.1848 18.3391 27.2617C17.8468 27.3233 17.2929 27.3848 16.8006 27.5079C16.4314 27.5694 16.0622 27.6925 15.6929 27.8156C15.3852 27.8771 15.1391 28.0002 14.8314 28.1233C14.5852 28.2463 14.3391 28.3079 14.0929 28.431C12.3083 29.231 10.7083 30.4002 9.41602 31.8771C10.1545 32.4925 10.9545 33.0463 11.7545 33.5386C11.9391 33.6617 12.1237 33.7233 12.3083 33.8463C12.4929 33.9694 12.6776 34.031 12.9237 34.154C12.9852 33.6617 13.1083 32.9233 13.1083 32.3079C13.1083 32.3079 19.5083 32.3079 19.5699 32.3079H25.9699C25.9699 32.3079 26.0314 32.3694 26.0929 32.3694C26.0929 32.9848 26.1545 33.6002 26.2776 34.154C26.4622 34.031 26.6468 33.9694 26.8929 33.8463C27.0776 33.7233 27.2622 33.6617 27.4468 33.5386C28.3083 33.0463 29.0468 32.4925 29.7852 31.8771C28.4314 30.3386 26.8314 29.231 25.0468 28.431Z" fill="#FAD1C4" stroke="#4AC328" stroke-width="2" stroke-miterlimit="10" stroke-linecap="round" stroke-linejoin="round"/>
<path d="M19.9996 31.2005C14.215 31.2005 9.47656 26.462 9.47656 20.6774C9.47656 14.8928 14.215 10.1543 19.9996 10.1543C25.7843 10.1543 30.5227 14.8928 30.5227 20.6774C30.5227 26.462 25.7843 31.2005 19.9996 31.2005Z" fill="white"/>
<path d="M19.9998 10.7073C25.4767 10.7073 29.9075 15.1381 29.9075 20.615C29.9075 26.0919 25.4767 30.5227 19.9998 30.5227C14.5229 30.5227 10.0921 26.0919 10.0921 20.615C10.0921 15.1996 14.5229 10.7073 19.9998 10.7073ZM19.9998 9.47656C13.8459 9.47656 8.86133 14.4612 8.86133 20.615C8.86133 26.7689 13.8459 31.7535 19.9998 31.7535C26.1536 31.7535 31.1382 26.7689 31.1382 20.615C31.1382 14.5227 26.1536 9.47656 19.9998 9.47656Z" fill="#4AC328"/>
<path d="M20.3683 18.9531C20.0606 18.9531 19.8145 19.1993 19.8145 19.507C19.8145 19.8147 20.0606 20.0608 20.3683 20.0608C20.676 20.0608 20.9221 19.8147 20.9221 19.507C20.9221 19.1993 20.676 18.9531 20.3683 18.9531Z" fill="white"/>
<path d="M21.8454 20.2471C21.8454 20.1855 21.8454 20.124 21.8454 20.0625C21.8454 20.0009 21.8454 19.9394 21.8454 19.9394C21.8454 19.8779 21.8454 19.8163 21.7838 19.8163C21.7838 19.7548 21.7223 19.7548 21.7223 19.6932C21.7223 19.6317 21.6608 19.6317 21.6608 19.5702C21.5992 19.4471 21.4761 19.324 21.4146 19.2625L20.43 16.1855L19.4454 19.2625L15.1992 20.3086L19.3838 21.3548C19.5069 21.4779 19.5684 21.5394 19.7531 21.6009C19.8146 21.6009 19.8146 21.6625 19.8761 21.6625C19.9377 21.6625 19.9377 21.724 19.9992 21.724C20.0608 21.724 20.0608 21.724 20.1223 21.724C20.1838 21.724 20.1838 21.724 20.2454 21.724C20.2454 21.724 20.2454 21.724 20.3069 21.724C20.3684 21.724 20.43 21.724 20.43 21.724C20.6146 21.724 20.7992 21.6625 20.9838 21.6009C21.0454 21.5394 21.1684 21.5394 21.23 21.4779C21.4146 21.3548 21.5377 21.2317 21.5992 21.1086C21.6608 21.0471 21.7223 20.924 21.7223 20.8625C21.7838 20.6163 21.8454 20.4317 21.8454 20.2471ZM20.3684 20.0625C20.0608 20.0625 19.8146 19.8163 19.8146 19.5086C19.8146 19.2009 20.0608 18.9548 20.3684 18.9548C20.6761 18.9548 20.9223 19.2009 20.9223 19.5086C20.9223 19.8163 20.6761 20.0625 20.3684 20.0625Z" fill="#4AC328"/>
<path d="M9.35451 21.1072C9.29297 20.7996 9.29297 20.4303 9.29297 20.1226C9.29297 14.4611 13.9084 9.8457 19.5699 9.8457C23.2007 9.8457 26.4622 11.6919 28.3084 14.6457C28.1237 14.5842 27.8776 14.5842 27.693 14.5842C26.9545 14.5842 26.216 14.9534 25.6007 15.5688C25.2314 15.8765 24.9237 16.3072 24.616 16.7995C24.3084 16.5534 24.0007 16.3072 23.6314 16.1226C23.4468 15.8765 23.2007 15.7534 22.6468 15.5688C22.4622 15.5072 22.3391 15.4457 22.1545 15.3226C21.9699 15.2611 21.7853 15.1996 21.5391 15.0765C21.0468 14.8919 20.5545 14.7688 20.4314 14.7688C19.816 14.6457 19.2007 14.5842 18.5853 14.5842C18.4007 14.5842 18.1545 14.5842 17.9699 14.5842H17.9084C16.8007 14.6457 15.7545 14.9534 14.7699 15.3842C13.9084 15.7534 13.1699 16.2457 12.4314 16.8611C12.2468 17.0457 12.0622 17.1688 11.8776 17.3534L11.7545 17.4765C11.5699 17.6611 11.4468 17.8457 11.2622 17.9688L11.1391 18.0919C11.016 18.2765 10.8314 18.4611 10.7084 18.6457L10.6468 18.7072C10.5237 18.8919 10.4007 19.0765 10.2776 19.2611L10.216 19.3842C10.093 19.5688 10.0314 19.6919 9.90835 19.8765L9.84681 19.9996L9.78528 20.1842C9.6622 20.3688 9.60066 20.5534 9.53912 20.738L9.47758 20.9226C9.41605 20.9842 9.41605 21.0457 9.35451 21.1072Z" fill="#FAD1C4"/>
<path d="M19.6306 10.4612C22.5844 10.4612 25.3537 11.8151 27.1383 14.0305C26.4614 14.1535 25.7844 14.5228 25.1691 15.1382C24.9229 15.3843 24.7383 15.6305 24.4921 15.9382C24.3691 15.8151 24.246 15.7535 24.1229 15.692C23.8152 15.3843 23.3844 15.1997 22.9537 15.0151C22.7691 14.9535 22.646 14.892 22.4614 14.8305C21.7229 14.5228 20.7998 14.2766 20.6152 14.2766C20.6152 14.2766 20.6152 14.2766 20.5537 14.2766C19.8767 14.1535 19.1998 14.092 18.5844 14.092C18.3998 14.092 18.1537 14.092 17.9075 14.092H17.846C16.6767 14.1535 15.5691 14.4612 14.4614 14.9535C13.5998 15.3843 12.7383 15.8766 11.9998 16.5535C11.8152 16.6766 11.6306 16.8612 11.446 17.0459L11.3844 17.1074C11.1998 17.292 11.0152 17.4766 10.8921 17.6612L10.8306 17.7843C10.646 17.9689 10.5229 18.2151 10.3383 18.3997L10.2767 18.4612C10.2152 18.5228 10.1537 18.6459 10.0921 18.7074C10.7691 13.9689 14.7691 10.4612 19.6306 10.4612ZM19.6306 9.23047C13.5998 9.23047 8.73828 14.092 8.73828 20.1228C8.73828 21.292 8.9229 22.4612 9.29213 23.5074C9.35367 23.1997 9.4152 22.892 9.53828 22.5228C9.59982 22.2766 9.7229 22.0305 9.78444 21.7843C9.84597 21.5997 9.96905 21.3535 10.0306 21.1689C10.0306 21.1074 10.0921 21.0459 10.0921 20.9843C10.1537 20.7997 10.2767 20.6766 10.3383 20.492C10.3998 20.4305 10.3998 20.3689 10.4614 20.3074C10.4614 20.2459 10.5229 20.2459 10.5229 20.1843C10.5844 19.9997 10.7075 19.8766 10.7691 19.692C10.7691 19.6305 10.8306 19.6305 10.8306 19.5689C10.9537 19.3843 11.0767 19.1997 11.1998 19.0151C11.1998 19.0151 11.1998 18.9535 11.2614 18.9535C11.3844 18.7689 11.5691 18.5843 11.6921 18.3997C11.7537 18.3382 11.7537 18.3382 11.8152 18.2766C11.9383 18.092 12.1229 17.9689 12.246 17.7843C12.246 17.9074 12.3075 17.8459 12.3075 17.8459C12.4921 17.6612 12.6152 17.5382 12.7998 17.3535C13.4767 16.7997 14.2152 16.3074 15.0152 15.9382C15.9383 15.5074 16.9229 15.2612 17.9691 15.1997H18.0306C18.2152 15.1997 18.3998 15.1997 18.646 15.1997C19.2614 15.1997 19.8152 15.2612 20.3691 15.3843C20.7383 15.5074 21.4767 15.692 21.9691 15.8766C22.1537 15.9382 22.2767 15.9997 22.4614 16.1228C22.8306 16.2459 23.1383 16.3689 23.1998 16.492C23.1383 16.4305 22.8921 16.3074 22.5229 16.1843C22.5844 16.1843 22.5844 16.2459 22.646 16.2459C22.646 16.2459 22.646 16.2459 22.7075 16.2459C22.7075 16.2459 22.7691 16.2459 22.7691 16.3074C22.7691 16.3074 22.8306 16.3689 22.8921 16.3689C23.0152 16.4305 23.1998 16.5535 23.2614 16.5535C23.6306 16.7997 24.0614 17.0459 24.3691 17.3535C24.4921 17.4766 24.6152 17.5382 24.7383 17.6612C24.7998 17.7228 24.7998 17.7228 24.8614 17.7843C24.8614 17.7843 24.8614 17.7228 24.9229 17.7228C25.2306 17.1074 25.5998 16.492 26.0921 16.0612C26.5229 15.6305 27.1383 15.2612 27.7537 15.2612C28.246 15.2612 28.7383 15.4459 29.1691 15.8151C29.2306 15.8766 29.2306 15.8766 29.2921 15.9382L29.3537 15.9997C29.4152 16.0612 29.4767 16.1228 29.5383 16.1843C29.6614 16.3074 29.7844 16.492 29.9075 16.6766C28.4921 12.3074 24.4306 9.23047 19.6306 9.23047ZM21.4152 15.6305C21.4767 15.7535 22.0306 15.9382 22.4614 16.0612H22.3998C22.0306 15.9382 21.4767 15.7535 21.4152 15.6305Z" fill="#4AC328"/>
<path d="M24.6156 29.2313C24.5541 29.1698 24.5541 29.1698 24.4925 29.1082C24.431 29.0467 24.431 29.0467 24.3695 28.9852C24.3079 28.9236 24.3079 28.9236 24.2464 28.8621L24.1849 28.739C24.1233 28.6159 24.0618 28.5544 24.0002 28.4313C23.9387 28.3082 23.8772 28.1852 23.8772 28.0621C23.8772 28.0005 23.8156 27.8775 23.8156 27.7544C23.8156 27.6313 23.7541 27.4467 23.8156 27.3236C23.8156 27.2621 23.8156 27.139 23.8156 27.0775C23.8156 27.0159 23.8772 26.8928 23.8772 26.7698C23.9387 26.4621 24.1233 26.1544 24.3079 25.7852L24.5541 25.4159C25.6002 23.6928 26.3387 22.1544 26.031 19.8775V19.8159C26.0925 19.8775 26.3387 20.1236 26.3387 20.1236C26.4618 20.3082 26.6464 20.4313 26.7695 20.6159L26.831 20.6775C27.0772 20.9236 27.2618 21.2313 27.5079 21.4775C27.7541 21.7236 27.9387 22.0313 28.1849 22.2775C28.431 22.5852 28.6156 22.8313 28.8002 23.0775C28.8002 23.0775 29.2925 23.6928 29.4772 24.0005C30.031 24.739 30.4618 25.2928 30.7079 25.7236C30.031 26.339 28.431 27.7544 26.6464 28.6159L26.4618 28.739C26.2156 28.8621 26.031 28.9236 25.7849 29.0467C25.3541 29.0467 24.9849 29.1698 24.6156 29.2313ZM23.0156 22.4621C23.2002 22.0313 23.3849 21.539 23.5079 21.0467L23.631 20.3698C23.6925 19.8775 23.7541 19.4467 23.8156 18.9544C23.8156 18.7698 23.8156 18.6467 23.8156 18.5236C23.8156 18.339 23.8156 18.2159 23.8156 18.0313C23.8156 17.9698 23.8156 17.8467 23.8156 17.7852L23.8772 17.8467C24.0002 17.9698 24.1233 18.0313 24.1849 18.1544L24.3079 18.2775C24.3695 18.339 24.3695 18.339 24.431 18.339C24.4925 18.4005 24.5541 18.4621 24.6156 18.5236C24.8002 18.7082 24.9849 18.8313 25.1695 19.0159C25.0464 19.0159 24.9849 19.0775 24.8618 19.2005C24.8002 19.3236 24.6772 19.4467 24.6772 19.5698L24.6156 19.7544C24.3695 20.6775 23.8772 21.4775 23.0156 22.4621Z" fill="#FAD1C4"/>
<path d="M26.7084 21.4768C26.8315 21.5999 26.893 21.723 27.0161 21.846C27.2007 22.0922 27.4469 22.3999 27.6315 22.646L27.693 22.7076C27.8776 22.9537 28.0623 23.1999 28.3084 23.5076L28.37 23.5691C28.5546 23.8153 28.8007 24.123 28.9853 24.3691C29.3546 24.8614 29.6623 25.2922 29.9084 25.5999C29.1084 26.2768 27.8161 27.323 26.4007 27.9999L26.2776 28.0614C26.2161 28.0614 26.2161 28.123 26.1546 28.123C25.97 28.1845 25.7853 28.3076 25.5392 28.3691C25.293 28.4306 25.1084 28.4922 24.8623 28.5537C24.8623 28.5537 24.8007 28.4922 24.8007 28.4307L24.7392 28.3691C24.6776 28.3076 24.6161 28.1845 24.6161 28.123C24.5546 27.9999 24.5546 27.9383 24.493 27.8153C24.493 27.7537 24.4315 27.6922 24.4315 27.6307C24.4315 27.5076 24.4315 27.3845 24.4315 27.2614C24.4315 27.1999 24.4315 27.1383 24.4315 27.0768C24.4315 27.0153 24.4315 26.9537 24.493 26.8306C24.5546 26.5845 24.6776 26.3383 24.8623 26.0306L25.1084 25.6614C25.9084 24.3076 26.5853 23.0153 26.7084 21.4768ZM23.2623 16.4922C23.2623 16.7999 23.3238 17.1691 23.3238 17.4768C23.3238 17.5383 23.3238 17.5383 23.3238 17.5999C23.3238 17.723 23.3238 17.846 23.3238 17.9691C23.3238 18.1537 23.3238 18.2768 23.3238 18.4614C23.3238 18.5845 23.3238 18.7076 23.3238 18.8306C23.3238 18.8306 23.3238 18.8307 23.3238 18.8922C23.2623 19.323 23.2007 19.8153 23.1392 20.246L22.893 20.923C22.5853 22.1537 21.97 23.2614 21.4776 24.3691C21.3546 24.6768 21.2315 24.9845 21.1084 25.2922C21.1084 25.2922 21.1084 25.3537 21.0469 25.3537C21.2315 25.1691 21.3546 25.046 21.4776 24.923C21.6007 24.7999 21.7238 24.6768 21.8469 24.6153C22.1546 24.3691 22.4007 24.0614 22.6469 23.8153C22.77 23.6307 22.9546 23.5076 23.0776 23.3845C24.1238 22.2768 24.8623 21.2306 25.293 19.8768C25.293 19.8153 25.293 19.8153 25.3546 19.7537C25.3546 19.6922 25.3546 19.6306 25.4161 19.5691C25.4161 19.5691 25.4161 19.5691 25.4161 19.5076C25.4161 19.6307 25.4776 19.7537 25.4776 19.8768C25.7238 21.9076 25.1084 23.2614 24.0623 25.046C24.0007 25.1691 23.9392 25.2922 23.8161 25.4153C23.57 25.7845 23.4469 26.2153 23.3238 26.523C23.3238 26.646 23.2623 26.7691 23.2623 26.8922C23.2623 27.0153 23.2623 27.1383 23.2007 27.2614C23.2007 27.446 23.2007 27.6307 23.2623 27.8153C23.2623 27.9383 23.3238 28.0614 23.3238 28.1845C23.3853 28.3691 23.4469 28.4922 23.5084 28.6768C23.57 28.7999 23.6315 28.923 23.7546 29.046C23.7546 29.1076 23.8161 29.1076 23.8161 29.1691C23.8776 29.2307 23.8776 29.2922 23.9392 29.3537C24.0007 29.4153 24.0623 29.4768 24.0623 29.5383C24.2469 29.7845 24.4315 29.9076 24.4315 29.9076H24.493C24.9853 29.846 25.4776 29.723 25.97 29.5383C26.2161 29.4768 26.4623 29.3537 26.7084 29.2306C26.77 29.1691 26.8315 29.1691 26.9546 29.1076C29.4776 27.8768 31.57 25.7845 31.57 25.7845C31.57 25.7845 30.9546 24.8614 30.0315 23.6307C29.8469 23.323 29.6007 23.0768 29.4161 22.7691L29.3546 22.7076C29.17 22.4614 28.9238 22.2153 28.7392 21.9076C28.7392 21.9076 28.7392 21.9076 28.6776 21.846C28.493 21.5999 28.2469 21.2922 28.0007 21.046C27.7546 20.7999 27.57 20.4922 27.3238 20.246C27.3238 20.246 27.3238 20.1845 27.2623 20.1845C27.1392 19.9999 26.9546 19.8768 26.8315 19.6922C26.77 19.6306 26.7084 19.5691 26.7084 19.5076C26.5853 19.3845 26.4623 19.2614 26.3392 19.1383C26.2161 19.0153 26.1546 18.9537 26.0315 18.8306C25.97 18.7076 25.8469 18.646 25.7853 18.523C25.6007 18.3383 25.3546 18.1537 25.17 17.9691C25.1084 17.9076 24.9853 17.7845 24.8623 17.723C24.8007 17.6614 24.8007 17.6614 24.7392 17.5999C24.6161 17.4768 24.493 17.4153 24.37 17.2922C24.0007 17.046 23.6315 16.7383 23.2623 16.4922ZM30.1546 20.246L29.7238 19.8153V19.7537L29.17 17.2306L28.6161 19.7537C28.6161 19.8153 28.6161 19.8768 28.5546 19.9383V19.9999C28.5546 20.0614 28.5546 20.123 28.5546 20.1845C28.5546 20.7999 28.8623 21.2306 29.17 21.2306C29.2315 21.2306 29.293 21.2307 29.3546 21.1691C29.3546 21.1691 29.4161 21.1691 29.4161 21.1076C29.4161 21.1076 29.4161 21.1076 29.4776 21.046L29.5392 20.9845L29.6007 20.923V20.8614C29.6007 20.7999 29.6623 20.7999 29.6623 20.7383C29.6623 20.7383 29.6623 20.7383 29.6623 20.6768C29.6623 20.6153 29.7238 20.5537 29.7238 20.4922L30.1546 20.246ZM29.17 20.123C29.0469 20.123 28.9238 19.9383 28.9238 19.6922C28.9238 19.446 29.0469 19.2614 29.17 19.2614C29.293 19.2614 29.4161 19.446 29.4161 19.6922C29.4161 19.9383 29.293 20.123 29.17 20.123Z" fill="#4AC328"/>
<path d="M24.4304 29.7838C24.4304 29.7838 24.2458 29.6607 24.0612 29.4146C23.9997 29.353 23.9381 29.2915 23.9381 29.23C23.8766 29.1684 23.8766 29.1069 23.8151 29.0453C23.8151 28.9838 23.7535 28.9838 23.7535 28.9223C23.692 28.7992 23.6304 28.6761 23.5689 28.4915C23.5074 28.3069 23.5074 28.1838 23.4458 28.0607C23.3843 28.0607 23.3843 27.9377 23.3843 27.8146C23.3843 27.63 23.3227 27.4453 23.3227 27.2607C23.3227 27.1376 23.3227 27.0146 23.3843 26.8915C23.3843 26.7684 23.4458 26.6453 23.4458 26.5223C23.5074 26.153 23.692 25.7838 23.9381 25.4146L23.9997 25.2915C24.0612 25.1684 24.1227 25.1684 24.1843 25.0453C25.2304 23.2607 25.7843 21.9684 25.5381 19.9377C25.5381 19.8146 25.4766 19.4453 25.4151 19.3223C25.4151 19.4453 25.3535 19.753 25.3535 19.753C25.3535 19.8146 25.292 19.8761 25.292 19.8761C24.8612 21.23 24.1227 22.2146 23.0766 23.3223C22.9535 23.4453 22.7689 23.63 22.6458 23.753C22.3997 23.9992 22.1535 24.3069 21.8458 24.553C21.7227 24.6761 21.5997 24.7992 21.4766 24.8607C21.3535 24.9838 21.2304 25.1684 21.1074 25.353C20.9843 25.5992 20.9227 25.9069 20.7997 26.2761C20.7381 26.2761 20.7381 26.2761 20.6766 26.2146C18.7074 25.4146 17.3535 24.43 17.3535 24.43C17.3535 24.43 18.3997 25.7838 20.1227 27.0146C20.3074 27.1377 20.4304 27.2607 20.6151 27.3223C20.5535 28.43 21.0458 29.5376 23.2612 29.8453C23.6304 29.9069 23.9997 29.9069 24.4304 29.8453C24.4304 29.8453 24.4304 29.8453 24.4304 29.7838C24.4304 29.8453 24.4304 29.8453 24.4304 29.7838Z" fill="#FAD1C4"/>
<path d="M24.4304 29.7838C24.4304 29.7838 24.2458 29.6607 24.0612 29.4146C23.9997 29.353 23.9381 29.2915 23.9381 29.23C23.8766 29.1684 23.8766 29.1069 23.8151 29.0453C23.8151 28.9838 23.7535 28.9838 23.7535 28.9223C23.692 28.7992 23.6304 28.6761 23.5689 28.4915C23.5074 28.3069 23.5074 28.1838 23.4458 28.0607C23.3843 28.0607 23.3843 27.9377 23.3843 27.8146C23.3843 27.63 23.3227 27.4453 23.3227 27.2607C23.3227 27.1376 23.3227 27.0146 23.3843 26.8915C23.3843 26.7684 23.4458 26.6453 23.4458 26.5223C23.5074 26.153 23.692 25.7838 23.9381 25.4146L23.9997 25.2915C24.0612 25.1684 24.1227 25.1684 24.1843 25.0453C25.2304 23.2607 25.7843 21.9684 25.5381 19.9377C25.5381 19.8146 25.4766 19.4453 25.4151 19.3223C25.4151 19.4453 25.3535 19.753 25.3535 19.753C25.3535 19.8146 25.292 19.8761 25.292 19.8761C24.8612 21.23 24.1227 22.2146 23.0766 23.3223C22.9535 23.4453 22.7689 23.63 22.6458 23.753C22.3997 23.9992 22.1535 24.3069 21.8458 24.553C21.7227 24.6761 21.5997 24.7992 21.4766 24.8607C21.3535 24.9838 21.2304 25.1684 21.1074 25.353C20.9843 25.5992 20.9227 25.9069 20.7997 26.2761C20.7381 26.2761 20.7381 26.2761 20.6766 26.2146C18.7074 25.4146 17.3535 24.43 17.3535 24.43C17.3535 24.43 18.3997 25.7838 20.1227 27.0146C20.3074 27.1377 20.4304 27.2607 20.6151 27.3223C20.5535 28.43 21.0458 29.5376 23.2612 29.8453C23.6304 29.9069 23.9997 29.9069 24.4304 29.8453C24.4304 29.8453 24.4304 29.8453 24.4304 29.7838ZM24.4304 29.7838C24.4304 29.8453 24.4304 29.8453 24.4304 29.7838Z" stroke="#4AC328" stroke-width="2" stroke-miterlimit="10" stroke-linecap="round" stroke-linejoin="round"/>
</svg>
