<svg width="40" height="40" viewBox="0 0 40 40" fill="none" xmlns="http://www.w3.org/2000/svg">
<g clip-path="url(#clip0_204_286)">
<path fill-rule="evenodd" clip-rule="evenodd" d="M29.3781 5.82917L30.9762 7.22333C30.9762 7.22333 34.4714 7.45167 34.6362 7.46333C34.7345 7.4707 34.8272 7.50673 34.8994 7.56565C34.9716 7.62458 35.0191 7.70299 35.0343 7.78833C35.0657 7.99 40 37.3267 40 37.3267L27.8924 39.6292L29.3781 5.82917V5.82917ZM27.521 4.7175C27.4436 4.72622 27.3672 4.74015 27.2924 4.75917L25.9324 5.1275C25.121 3.075 23.6895 1.18917 21.1724 1.18917C21.1029 1.18917 21.0295 1.19083 20.959 1.195C20.2419 0.3625 19.3552 0 18.5895 0C12.7229 0 9.91905 6.45 9.04095 9.72667C6.76095 10.3475 5.1419 10.7883 4.93619 10.8458C3.6619 11.1975 3.6219 11.2325 3.45524 12.2867C3.32952 13.085 0 35.7258 0 35.7258L25.9429 40L25.9705 39.995L27.521 4.7175V4.7175ZM20.7667 6.31L20.7657 6.53417L16.2305 7.76833C17.1038 4.80667 18.74 3.375 20.1714 2.835C20.5305 3.63 20.7667 4.77083 20.7667 6.31V6.31ZM18.4267 1.38333C18.6819 1.38333 18.9362 1.46 19.181 1.6075C17.3 2.385 15.2857 4.345 14.4343 8.2575L10.8505 9.23417C11.8467 6.24917 14.2133 1.38417 18.4267 1.38417V1.38333ZM19.4381 18.8275C19.4381 18.8275 17.92 18.115 16.059 18.115C13.3295 18.115 13.1924 19.6208 13.1924 20C13.1924 22.0717 19.3295 22.865 19.3295 27.715C19.3295 31.53 16.5771 33.9875 12.8657 33.9875C8.41238 33.9875 6.13524 31.55 6.13524 31.55L7.32762 28.0858C7.32762 28.0858 9.66952 29.8533 11.6448 29.8533C12.9343 29.8533 13.46 28.96 13.46 28.3075C13.46 25.6058 8.42381 25.485 8.42381 21.0458C8.42381 17.3117 11.4733 13.6958 17.6286 13.6958C20 13.6958 21.1714 14.2942 21.1714 14.2942L19.4381 18.8275V18.8275ZM22.3038 6.115L22.3048 5.69833C22.3048 4.42333 22.1029 3.39667 21.781 2.5825C23.0781 2.725 23.9429 4.02417 24.4981 5.5175L22.3038 6.115V6.115Z" fill="#81BF37"/>
</g>
<defs>
<clipPath id="clip0_204_286">
<rect width="40" height="40" fill="white"/>
</clipPath>
</defs>
</svg>
