<svg width="41" height="41" viewBox="0 0 41 41" fill="none" xmlns="http://www.w3.org/2000/svg">
<path d="M25.6256 0.853516H15.3757C14.9226 0.853516 14.4881 1.0335 14.1677 1.35387C13.8473 1.67425 13.6673 2.10877 13.6673 2.56185V9.39518C13.6673 9.84826 13.8473 10.2828 14.1677 10.6032C14.4881 10.9235 14.9226 11.1035 15.3757 11.1035H25.6256C26.0787 11.1035 26.5132 10.9235 26.8336 10.6032C27.154 10.2828 27.334 9.84826 27.334 9.39518V2.56185C27.334 2.10877 27.154 1.67425 26.8336 1.35387C26.5132 1.0335 26.0787 0.853516 25.6256 0.853516ZM22.209 8.54102H17.084C16.8574 8.54102 16.6402 8.45102 16.48 8.29084C16.3198 8.13065 16.2298 7.91339 16.2298 7.68685C16.2298 7.46031 16.3198 7.24305 16.48 7.08286C16.6402 6.92267 16.8574 6.83268 17.084 6.83268H22.209C22.4355 6.83268 22.6528 6.92267 22.813 7.08286C22.9732 7.24305 23.0632 7.46031 23.0632 7.68685C23.0632 7.91339 22.9732 8.13065 22.813 8.29084C22.6528 8.45102 22.4355 8.54102 22.209 8.54102ZM23.9173 5.12435H17.084C16.8574 5.12435 16.6402 5.03436 16.48 4.87417C16.3198 4.71398 16.2298 4.49672 16.2298 4.27018C16.2298 4.04364 16.3198 3.82638 16.48 3.6662C16.6402 3.50601 16.8574 3.41602 17.084 3.41602H23.9173C24.1439 3.41602 24.3611 3.50601 24.5213 3.6662C24.6815 3.82638 24.7715 4.04364 24.7715 4.27018C24.7715 4.49672 24.6815 4.71398 24.5213 4.87417C24.3611 5.03436 24.1439 5.12435 23.9173 5.12435ZM25.6256 15.3743H15.3757C14.9226 15.3743 14.4881 15.5543 14.1677 15.8747C13.8473 16.1951 13.6673 16.6296 13.6673 17.0827V23.916C13.6673 24.3691 13.8473 24.8036 14.1677 25.124C14.4881 25.4444 14.9226 25.6243 15.3757 25.6243H25.6256C26.0787 25.6243 26.5132 25.4444 26.8336 25.124C27.154 24.8036 27.334 24.3691 27.334 23.916V17.0827C27.334 16.6296 27.154 16.1951 26.8336 15.8747C26.5132 15.5543 26.0787 15.3743 25.6256 15.3743ZM22.209 23.0618H17.084C16.8574 23.0618 16.6402 22.9719 16.48 22.8117C16.3198 22.6515 16.2298 22.4342 16.2298 22.2077C16.2298 21.9811 16.3198 21.7639 16.48 21.6037C16.6402 21.4435 16.8574 21.3535 17.084 21.3535H22.209C22.4355 21.3535 22.6528 21.4435 22.813 21.6037C22.9732 21.7639 23.0632 21.9811 23.0632 22.2077C23.0632 22.4342 22.9732 22.6515 22.813 22.8117C22.6528 22.9719 22.4355 23.0618 22.209 23.0618ZM23.9173 19.6452H17.084C16.8574 19.6452 16.6402 19.5552 16.48 19.395C16.3198 19.2348 16.2298 19.0176 16.2298 18.791C16.2298 18.5645 16.3198 18.3472 16.48 18.187C16.6402 18.0268 16.8574 17.9368 17.084 17.9368H23.9173C24.1439 17.9368 24.3611 18.0268 24.5213 18.187C24.6815 18.3472 24.7715 18.5645 24.7715 18.791C24.7715 19.0176 24.6815 19.2348 24.5213 19.395C24.3611 19.5552 24.1439 19.6452 23.9173 19.6452ZM25.6256 29.8952H15.3757C14.9226 29.8952 14.4881 30.0752 14.1677 30.3955C13.8473 30.7159 13.6673 31.1504 13.6673 31.6035V38.4368C13.6673 38.8899 13.8473 39.3245 14.1677 39.6448C14.4881 39.9652 14.9226 40.1452 15.3757 40.1452H25.6256C26.0787 40.1452 26.5132 39.9652 26.8336 39.6448C27.154 39.3245 27.334 38.8899 27.334 38.4368V31.6035C27.334 31.1504 27.154 30.7159 26.8336 30.3955C26.5132 30.0752 26.0787 29.8952 25.6256 29.8952ZM22.209 37.5827H17.084C16.8574 37.5827 16.6402 37.4927 16.48 37.3325C16.3198 37.1723 16.2298 36.9551 16.2298 36.7285C16.2298 36.502 16.3198 36.2847 16.48 36.1245C16.6402 35.9643 16.8574 35.8743 17.084 35.8743H22.209C22.4355 35.8743 22.6528 35.9643 22.813 36.1245C22.9732 36.2847 23.0632 36.502 23.0632 36.7285C23.0632 36.9551 22.9732 37.1723 22.813 37.3325C22.6528 37.4927 22.4355 37.5827 22.209 37.5827ZM23.9173 34.166H17.084C16.8574 34.166 16.6402 34.076 16.48 33.9158C16.3198 33.7557 16.2298 33.5384 16.2298 33.3118C16.2298 33.0853 16.3198 32.868 16.48 32.7079C16.6402 32.5477 16.8574 32.4577 17.084 32.4577H23.9173C24.1439 32.4577 24.3611 32.5477 24.5213 32.7079C24.6815 32.868 24.7715 33.0853 24.7715 33.3118C24.7715 33.5384 24.6815 33.7557 24.5213 33.9158C24.3611 34.076 24.1439 34.166 23.9173 34.166ZM30.7506 5.12435C30.5241 5.12435 30.3068 5.21434 30.1467 5.37453C29.9865 5.53472 29.8965 5.75198 29.8965 5.97852C29.8965 6.20505 29.9865 6.42232 30.1467 6.5825C30.3068 6.74269 30.5241 6.83268 30.7506 6.83268C38.8481 6.83268 39.8732 17.2279 33.0911 19.3548C33.2277 19.1876 33.296 18.9748 33.2821 18.7594C33.2682 18.5439 33.1733 18.3416 33.0163 18.1933C32.8594 18.0451 32.6521 17.9617 32.4361 17.9601C32.2202 17.9584 32.0117 18.0387 31.8525 18.1846C30.2125 19.8331 30.0588 19.9441 29.9648 20.1748C29.8994 20.3303 29.8815 20.5018 29.9135 20.6675C29.9454 20.8332 30.0257 20.9857 30.1442 21.1058C32.0063 22.9679 31.9977 23.0618 32.459 23.0618C32.6286 23.0628 32.7947 23.0133 32.9361 22.9195C33.0775 22.8257 33.1878 22.6919 33.2528 22.5352C33.3179 22.3785 33.3348 22.206 33.3014 22.0397C33.2681 21.8733 33.1859 21.7207 33.0654 21.6012L32.6725 21.2168C34.5318 20.865 36.2102 19.8758 37.4185 18.4195C38.6269 16.9633 39.2895 15.1312 39.2923 13.2389C39.2923 9.08768 36.1148 5.12435 30.7506 5.12435ZM10.2507 21.3535C10.4772 21.3535 10.6945 21.2635 10.8546 21.1033C11.0148 20.9431 11.1048 20.7259 11.1048 20.4993C11.1048 20.2728 11.0148 20.0555 10.8546 19.8954C10.6945 19.7352 10.4772 19.6452 10.2507 19.6452C4.83523 19.6452 1.70898 23.6598 1.70898 27.7598C1.71177 29.6521 2.37441 31.4841 3.58275 32.9404C4.7911 34.3966 6.46948 35.3859 8.32878 35.7377L7.93586 36.1221C7.77502 36.2829 7.68466 36.5011 7.68466 36.7285C7.68466 36.956 7.77502 37.1741 7.93586 37.335C8.0967 37.4958 8.31485 37.5862 8.54232 37.5862C8.76978 37.5862 8.98793 37.4958 9.14878 37.335C11.7796 34.6956 11.7796 35.3362 9.14878 32.7054C8.9896 32.5595 8.78107 32.4793 8.56515 32.4809C8.34923 32.4825 8.14194 32.5659 7.98499 32.7142C7.82803 32.8625 7.73307 33.0647 7.7192 33.2802C7.70533 33.4957 7.77359 33.7084 7.91023 33.8756C6.41259 33.4062 5.139 32.404 4.33052 31.0588C3.52205 29.7136 3.2348 28.1186 3.52315 26.5759C3.81149 25.0331 4.65543 23.6496 5.89521 22.6872C7.13498 21.7248 8.68457 21.2503 10.2507 21.3535V21.3535ZM35.2692 32.7054L32.459 35.5241L31.3571 34.4137C31.2775 34.3341 31.1829 34.2709 31.0789 34.2278C30.9748 34.1847 30.8633 34.1625 30.7506 34.1625C30.638 34.1625 30.5265 34.1847 30.4224 34.2278C30.3184 34.2709 30.2238 34.3341 30.1442 34.4137C30.0646 34.4934 30.0014 34.5879 29.9583 34.692C29.9152 34.796 29.893 34.9076 29.893 35.0202C29.893 35.1328 29.9152 35.2443 29.9583 35.3484C30.0014 35.4525 30.0646 35.547 30.1442 35.6266C32.9544 38.4283 31.8525 38.5308 36.4821 33.9183C36.6429 33.7575 36.7333 33.5393 36.7333 33.3118C36.7333 33.0844 36.6429 32.8662 36.4821 32.7054C36.3213 32.5445 36.1031 32.4542 35.8756 32.4542C35.6482 32.4542 35.43 32.5445 35.2692 32.7054V32.7054ZM4.27148 5.97852C8.79003 5.97852 8.29461 5.86747 7.93586 6.22622C7.8154 6.3457 7.73324 6.49834 7.69987 6.66468C7.6665 6.83103 7.68342 7.00355 7.74848 7.16024C7.81354 7.31693 7.92379 7.4507 8.06517 7.54449C8.20655 7.63828 8.37266 7.68784 8.54232 7.68685C9.00357 7.68685 9.02919 7.55872 10.8571 5.73081C11.0111 5.57153 11.0971 5.35868 11.0971 5.13716C11.0971 4.91564 11.0111 4.70279 10.8571 4.54352L9.14878 2.83518C8.98599 2.7029 8.78022 2.63515 8.57068 2.64483C8.36115 2.65452 8.16251 2.74096 8.01261 2.88769C7.86272 3.03442 7.77205 3.23117 7.7579 3.44045C7.74374 3.64973 7.80709 3.8569 7.93586 4.02247C8.27753 4.3556 8.97794 4.27018 4.27148 4.27018C4.04495 4.27018 3.82768 4.36017 3.6675 4.52036C3.50731 4.68055 3.41732 4.89781 3.41732 5.12435C3.41732 5.35089 3.50731 5.56815 3.6675 5.72834C3.82768 5.88852 4.04495 5.97852 4.27148 5.97852Z" fill="#151813"/>
</svg>
